<?xml version="1.0" encoding="UTF-8"?>
<svg width="140px" height="140px" viewBox="0 0 140 140" version="1.1" xmlns="http://www.w3.org/2000/svg" xmlns:xlink="http://www.w3.org/1999/xlink">
    <title>pictogram/earth-and-nature/15-warming</title>
    <defs>
        <path d="M140,70 C140,108.66079 108.66079,140 70.0016542,140 C53.7588619,140 38.8096701,134.468286 26.932366,125.188109 C10.5390396,112.37617 0,92.4179979 0,70 C0,31.3392098 31.3392098,0 70.0016542,0 C76.178514,0 82.1684469,0.800642783 87.8738539,2.30267511 C116.822715,9.92532375 138.438416,35.6236412 139.918943,66.6005766 C139.971878,67.7254466 140,68.860242 140,70 Z" id="path-1"></path>
    </defs>
    <g id="pictogram/earth-and-nature/15-warming" stroke="none" stroke-width="1" fill="none" fill-rule="evenodd">
        <g>
            <path d="M140,70 C140,108.65995 108.65995,140 70,140 C31.34005,140 0,108.65995 0,70 C0,31.34005 31.34005,0 70,0 C108.65995,0 140,31.34005 140,70" id="Mask" fill="#91BFE3"></path>
            <g id="Icon-Globe-Copy">
                <mask id="mask-2" fill="white">
                    <use xlink:href="#path-1"></use>
                </mask>
                <use id="Stroke-1" fill="#2167AE" xlink:href="#path-1"></use>
                <polyline id="Stroke-3" stroke="#33B1E6" stroke-width="3.051282" fill="#1FB1E6" stroke-linecap="round" stroke-linejoin="round" mask="url(#mask-2)" points="24.1666667 134 37 101.986832 16.5382379 95.3827165 17.2829187 86.4721137 -8 81.6727572"></polyline>
                <polyline id="Stroke-5" stroke="#33B1E6" stroke-width="3.051282" fill="#1FB1E6" stroke-linecap="round" stroke-linejoin="round" mask="url(#mask-2)" points="73.5945946 -11 42.7890625 16.171875 28 13.3150396"></polyline>
                <polyline id="Stroke-7" stroke="#33B1E6" stroke-width="3.051282" fill="#1FB1E6" stroke-linecap="round" stroke-linejoin="round" mask="url(#mask-2)" points="87.1488996 -9.8515625 71.2504163 21.2375383 77.2669044 24.6884776 61.7142909 32.189512 67.3700862 38.156244 73.974553 35.7496897 83.5106783 39.0351163 97.6798125 37.3932305 103.128086 47.7973573 97.5793455 53.3784447 87.8702852 52.4515737 83.7840802 56.8326943 68.2528777 49.4408982 57.0812821 52.1784778 47 65.0470884 49.7241367 78.465201 64.7118294 83.6672644 75.3366213 84.7613031 75.6100232 94.344487 80.5147868 98.7256076 82.9671686 122 97.9532144 118.166726 101.494263 107.7626 106.944183 102.285785 107.761095 89.9650217 117.570622 78.465201 111.030388 76.2738131 102.046007 62.862321 104.442391 57.7910127 115.388348 55.1908085 120.021357 59.0240821 184.28125 35.5429688"></polyline>
            </g>
            <g id="degree" transform="translate(45.000000, 45.000000)">
                <circle id="Oval-Copy-5" fill="#23366F" cx="25" cy="25" r="25"></circle>
                <path d="M16.6,32 L16.6,17.92 L14.06,17.92 C13.82,18.6666667 13.38,19.2866667 12.74,19.78 C12.1,20.2733333 11.36,20.5466667 10.52,20.6 L10.52,20.6 L10.52,23.18 C11.08,23.1666667 11.63,23.0766667 12.17,22.91 C12.71,22.7433333 13.2133333,22.5066667 13.68,22.2 L13.68,22.2 L13.68,32 L16.6,32 Z M20.56,32.16 C21.0266667,32.16 21.43,31.9866667 21.77,31.64 C22.11,31.2933333 22.28,30.8666667 22.28,30.36 C22.28,29.8933333 22.11,29.49 21.77,29.15 C21.43,28.81 21.0266667,28.64 20.56,28.64 C20.0533333,28.64 19.6266667,28.81 19.28,29.15 C18.9333333,29.49 18.76,29.8933333 18.76,30.36 C18.76,30.8666667 18.9333333,31.2933333 19.28,31.64 C19.6266667,31.9866667 20.0533333,32.16 20.56,32.16 Z M29.02,32.32 C30.0733333,32.32 31,32.11 31.8,31.69 C32.6,31.27 33.2166667,30.6866667 33.65,29.94 C34.0833333,29.1933333 34.3,28.3466667 34.3,27.4 C34.3,26.4666667 34.1133333,25.6466667 33.74,24.94 C33.3666667,24.2333333 32.8433333,23.6866667 32.17,23.3 C31.4966667,22.9133333 30.72,22.72 29.84,22.72 C29.2933333,22.72 28.8033333,22.7733333 28.37,22.88 C27.9366667,22.9866667 27.5466667,23.1466667 27.2,23.36 L27.2,23.36 L27.6,20.5 L33.7,20.5 L33.7,17.92 L25.02,17.92 L24,26.12 L26.84,26.12 C27.04,25.84 27.3266667,25.5833333 27.7,25.35 C28.0733333,25.1166667 28.5133333,25 29.02,25 C29.7,25 30.25,25.2066667 30.67,25.62 C31.09,26.0333333 31.3,26.6 31.3,27.32 C31.3,28.0533333 31.09,28.63 30.67,29.05 C30.25,29.47 29.7,29.68 29.02,29.68 C28.42,29.68 27.9133333,29.5233333 27.5,29.21 C27.0866667,28.8966667 26.8333333,28.4733333 26.74,27.94 L26.74,27.94 L23.62,27.94 C23.6733333,28.7 23.9233333,29.4133333 24.37,30.08 C24.8166667,30.7466667 25.4366667,31.2866667 26.23,31.7 C27.0233333,32.1133333 27.9533333,32.32 29.02,32.32 Z M39.14,24.1 C39.74,24.1 40.28,23.9566667 40.76,23.67 C41.24,23.3833333 41.6233333,22.9966667 41.91,22.51 C42.1966667,22.0233333 42.34,21.4866667 42.34,20.9 C42.34,20.3133333 42.1966667,19.78 41.91,19.3 C41.6233333,18.82 41.24,18.4366667 40.76,18.15 C40.28,17.8633333 39.74,17.72 39.14,17.72 C38.54,17.72 38,17.8633333 37.52,18.15 C37.04,18.4366667 36.6566667,18.82 36.37,19.3 C36.0833333,19.78 35.94,20.3133333 35.94,20.9 C35.94,21.4866667 36.0833333,22.0233333 36.37,22.51 C36.6566667,22.9966667 37.04,23.3833333 37.52,23.67 C38,23.9566667 38.54,24.1 39.14,24.1 Z M39.14,22.44 C38.7133333,22.44 38.3533333,22.29 38.06,21.99 C37.7666667,21.69 37.62,21.3266667 37.62,20.9 C37.62,20.4733333 37.7666667,20.1133333 38.06,19.82 C38.3533333,19.5266667 38.7133333,19.38 39.14,19.38 C39.5666667,19.38 39.93,19.5266667 40.23,19.82 C40.53,20.1133333 40.68,20.4733333 40.68,20.9 C40.68,21.3266667 40.53,21.69 40.23,21.99 C39.93,22.29 39.5666667,22.44 39.14,22.44 Z" id="1.5°" fill="#EEF0F1" fill-rule="nonzero"></path>
            </g>
        </g>
    </g>
</svg>