<?xml version="1.0" encoding="UTF-8"?>
<svg width="140px" height="140px" viewBox="0 0 140 140" version="1.1" xmlns="http://www.w3.org/2000/svg" xmlns:xlink="http://www.w3.org/1999/xlink">
    <title>pictogram/more/addressing-your-needs</title>
    <g id="pictogram/more/addressing-your-needs" stroke="none" stroke-width="1" fill="none" fill-rule="evenodd">
        <g>
            <g id="claims" fill="#91BFE3">
                <path d="M140,70 C140,108.65995 108.65995,140 70,140 C31.34005,140 0,108.65995 0,70 C0,31.34005 31.34005,0 70,0 C108.65995,0 140,31.34005 140,70" id="Mask"></path>
            </g>
            <path d="M102.146195,55.0347989 C102.1569,55.0409147 102.169135,55.0485594 102.17984,55.0546752 C111.866335,60.6735534 115.161946,73.0809538 109.541821,82.7637717 C105.922002,89.0018732 99.2604331,92.8456446 92.0483216,92.862463 L52.2884219,92.862463 L60.2116513,84.9425204 C60.8860663,84.182634 60.8187777,83.0191058 60.0587227,82.3433114 C59.3583099,81.7210302 58.3015734,81.7240881 57.6042191,82.3509562 L46.545954,93.3930074 C46.492429,93.4556943 46.4480798,93.5244968 46.4129062,93.5994152 C46.3027976,93.7094994 46.214099,93.8394598 46.1483398,93.9816518 C46.0550533,94.2109938 46.0061162,94.4556252 45.999999,94.7033146 C46.0045869,94.946417 46.053524,95.1849327 46.1483398,95.4096878 C46.2171576,95.5534088 46.3058562,95.6879561 46.4129062,95.8072139 C46.4526676,95.8744875 46.4970169,95.9387033 46.545954,95.9983322 L57.6042191,107.055673 C57.9483084,107.401215 58.4132113,107.59692 58.9010534,107.599978 C59.3919542,107.593862 59.8614449,107.399686 60.2116513,107.055673 C60.916652,106.329423 60.916652,105.175069 60.2116513,104.448819 L52.2884219,96.5426371 L92.0483216,96.5426371 C105.281231,96.5380503 116.004582,85.810962 115.999999,72.5809884 C115.996936,64.026533 111.432018,56.1234088 104.0211,51.8454166 C103.155524,51.3423932 102.048321,51.6374799 101.545186,52.5028636 C101.53601,52.518153 101.526835,52.5349714 101.517659,52.5517899 C101.005348,53.4110578 101.286737,54.5226018 102.146195,55.0347989 Z" id="Fill-13" stroke="#23366F" stroke-width="2" fill="#23366F"></path>
            <path d="M80.1461952,41.0347989 C80.1569002,41.0409147 80.1691345,41.0485594 80.1798395,41.0546752 C89.8663353,46.6735534 93.161946,59.0809538 87.541821,68.7637717 C83.9220017,75.0018732 77.2604331,78.8456446 70.0483216,78.862463 L30.2884219,78.862463 L38.2116513,70.9425204 C38.8860663,70.182634 38.8187777,69.0191058 38.0587227,68.3433114 C37.3583099,67.7210302 36.3015734,67.7240881 35.6042191,68.3509562 L24.545954,79.3930074 C24.492429,79.4556943 24.4480798,79.5244968 24.4129062,79.5994152 C24.3027976,79.7094994 24.214099,79.8394598 24.1483398,79.9816518 C24.0550533,80.2109938 24.0061162,80.4556252 23.999999,80.7033146 C24.0045869,80.946417 24.053524,81.1849327 24.1483398,81.4096878 C24.2171576,81.5534088 24.3058562,81.6879561 24.4129062,81.8072139 C24.4526676,81.8744875 24.4970169,81.9387033 24.545954,81.9983322 L35.6042191,93.0556729 C35.9483084,93.4012148 36.4132113,93.59692 36.9010534,93.5999779 C37.3919542,93.5938621 37.8614449,93.3996859 38.2116513,93.0556729 C38.916652,92.3294234 38.916652,91.1750688 38.2116513,90.4488192 L30.2884219,82.5426371 L70.0483216,82.5426371 C83.281231,82.5380503 94.0045825,71.810962 93.999999,58.5809884 C93.9969361,50.026533 89.4320182,42.1234088 82.0210995,37.8454166 C81.1555238,37.3423932 80.0483209,37.6374799 79.5451859,38.5028636 C79.5360102,38.518153 79.5268345,38.5349714 79.5176588,38.5517899 C79.0053481,39.4110578 79.2867366,40.5226018 80.1461952,41.0347989 Z" id="Fill-13" stroke="#DAD2BD" stroke-width="2" fill="#DAD2BD" transform="translate(58.999999, 65.599978) rotate(-180.000000) translate(-58.999999, -65.599978) "></path>
        </g>
    </g>
</svg>