<?xml version="1.0" encoding="UTF-8"?>
<svg width="140px" height="140px" viewBox="0 0 140 140" version="1.1" xmlns="http://www.w3.org/2000/svg" xmlns:xlink="http://www.w3.org/1999/xlink">
    <title>pictogram/more/advocacy</title>
    <defs>
        <path d="M70,140 C31.34005,140 0,108.65995 0,70 C0,31.34005 31.34005,0 70,0 C108.65995,0 140,31.34005 140,70 C140,108.65995 108.65995,140 70,140 Z" id="path-1"></path>
        <polygon id="path-3" points="0 0 57.4528302 0 57.4528302 68.4522714 0 68.4522714"></polygon>
        <path d="M24.44266,47.1456342 C10.9657928,47.1456342 0,36.4671251 0,23.3398602 C0,10.4676393 10.9657928,0 24.44266,0 C37.9229402,0 48.8904395,10.4676393 48.8904395,23.3398602 C48.8904395,36.4671251 37.9229402,47.1456342 24.44266,47.1456342 Z" id="path-5"></path>
    </defs>
    <g id="pictogram/more/advocacy" stroke="none" stroke-width="1" fill="none" fill-rule="evenodd">
        <g>
            <mask id="mask-2" fill="white">
                <use xlink:href="#path-1"></use>
            </mask>
            <use id="Mask" fill="#91BFE3" xlink:href="#path-1"></use>
            <path d="M86,142 L17,142 L17,118.743762 C17,102.316698 32.1876667,89 50.9223167,89 L52.0776833,89 C70.8123333,89 86,102.316698 86,118.743762 L86,142 Z" id="Fill-3" fill="#23366F" mask="url(#mask-2)"></path>
            <g id="Group-6" mask="url(#mask-2)">
                <g transform="translate(65.000000, 27.547619)">
                    <g id="Group-3" stroke-width="1" fill="none">
                        <mask id="mask-4" fill="white">
                            <use xlink:href="#path-3"></use>
                        </mask>
                        <g id="Clip-2"></g>
                        <path d="M54.7169811,32.018081 C54.7169811,39.9629381 51.1614717,47.3667476 44.9620377,52.3292714 L44.9620377,52.3303667 L28.7264151,65.3308429 L12.4907925,52.3292714 C6.29135849,47.3667476 2.73584906,39.9629381 2.73584906,32.018081 L2.73584906,13.2478905 L28.7264151,2.84312857 L54.7169811,13.2478905 L54.7169811,32.018081 Z M56.5926792,11.0497476 L29.2341887,0.0973666667 C28.9091698,-0.0329666667 28.5436604,-0.0329666667 28.2186415,0.0973666667 L0.860150943,11.0497476 C0.340339623,11.2578429 0,11.7605571 0,12.321319 L0,32.018081 C0,40.7997 3.92977358,48.9822238 10.781434,54.4682714 L27.8717358,68.1532714 C28.1212453,68.3526048 28.4243774,68.4522714 28.7264151,68.4522714 C29.0284528,68.4522714 29.3315849,68.3526048 29.5810943,68.1532714 L46.6713962,54.4693667 C53.5230566,48.983319 57.4528302,40.7997 57.4528302,32.018081 L57.4528302,12.321319 C57.4528302,11.7605571 57.1113962,11.2578429 56.5926792,11.0497476 L56.5926792,11.0497476 Z" id="Fill-1" fill="#23366F" mask="url(#mask-4)"></path>
                    </g>
                    <path d="M49,17.1297487 L30,9.45238095 L30,57.452381 L41.3598286,48.2713459 C46.2162286,44.3471142 49,38.4947664 49,32.2135828 L49,17.1297487 Z" id="Fill-4" fill="#23366F"></path>
                </g>
            </g>
            <g id="woman" mask="url(#mask-2)">
                <g transform="translate(27.000000, 35.000000)" id="head">
                    <mask id="mask-6" fill="white">
                        <use xlink:href="#path-5"></use>
                    </mask>
                    <use id="Mask" fill="#DAD2BD" xlink:href="#path-5"></use>
                </g>
            </g>
        </g>
    </g>
</svg>