<?xml version="1.0" encoding="UTF-8"?>
<svg width="140px" height="140px" viewBox="0 0 140 140" version="1.1" xmlns="http://www.w3.org/2000/svg" xmlns:xlink="http://www.w3.org/1999/xlink">
    <title>pictogram/finance-and-data/analytics</title>
    <defs>
        <path d="M140,70 C140,108.65995 108.65995,140 70,140 C31.34005,140 0,108.65995 0,70 C0,31.34005 31.34005,0 70,0 C108.65995,0 140,31.34005 140,70" id="path-1"></path>
    </defs>
    <g id="pictogram/finance-and-data/analytics" stroke="none" stroke-width="1" fill="none" fill-rule="evenodd">
        <g>
            <mask id="mask-2" fill="white">
                <use xlink:href="#path-1"></use>
            </mask>
            <use id="Mask" fill="#DAD2BD" xlink:href="#path-1"></use>
            <g id="Balken" mask="url(#mask-2)" fill="#2167AE" fill-rule="nonzero">
                <g transform="translate(30.000000, 25.000000)" id="Rectangle">
                    <rect x="0" y="29" width="13" height="41" rx="6"></rect>
                    <rect x="34" y="16" width="13" height="54" rx="6"></rect>
                    <rect x="51" y="0" width="13" height="70" rx="6"></rect>
                    <rect x="17" y="7" width="13" height="63" rx="6"></rect>
                    <rect x="68" y="16" width="13" height="54" rx="6"></rect>
                </g>
            </g>
            <circle id="Oval" fill="#DAD2BD" mask="url(#mask-2)" cx="94" cy="93" r="32"></circle>
            <path d="M93,65.4 C100.344945,65.4 106.995303,68.3772175 111.809244,73.1911587 C116.622608,78.0045223 119.6,84.6541645 119.6,92 C119.6,99.8645748 116.187307,106.93122 110.76244,111.800701 L110.434544,112.090222 L126.056766,133.200564 C126.502627,133.803027 126.668435,134.533295 126.574769,135.227292 C126.480851,135.923153 126.126341,136.581465 125.536147,137.038828 C124.970698,137.477016 124.291244,137.652475 123.637163,137.586602 C123.038194,137.52628 122.459835,137.26316 122.009744,136.811119 L121.864612,136.65346 L105.992242,115.216508 C102.149883,117.371255 97.7182908,118.6 93,118.6 C85.6550546,118.6 79.0046968,115.622782 74.1907556,110.808841 C69.377392,105.995478 66.4,99.3458355 66.4,92 C66.4,84.6541645 69.377392,78.0045223 74.1907556,73.1911587 C79.0046968,68.3772175 85.6550546,65.4 93,65.4 Z M93,70.7417691 C87.1253138,70.7417691 81.8074833,73.121287 77.9581664,76.9680999 C74.1084365,80.8153256 71.7275413,86.1301672 71.7275413,92 C71.7275413,97.8698328 74.1084365,103.184674 77.9581664,107.0319 C81.8074833,110.878713 87.1253138,113.258231 93,113.258231 C98.8746862,113.258231 104.192517,110.878713 108.041834,107.0319 C111.891563,103.184674 114.272459,97.8698328 114.272459,92 C114.272459,86.1301672 111.891563,80.8153256 108.041834,76.9680999 C104.192517,73.121287 98.8746862,70.7417691 93,70.7417691 Z" id="Combined-Shape" stroke="#23366F" stroke-width="1.2" fill="#23366F" fill-rule="nonzero" mask="url(#mask-2)"></path>
        </g>
    </g>
</svg>