<?xml version="1.0" encoding="UTF-8"?>
<svg width="140px" height="140px" viewBox="0 0 140 140" version="1.1" xmlns="http://www.w3.org/2000/svg" xmlns:xlink="http://www.w3.org/1999/xlink">
    <title>pictogram/more/calendar</title>
    <g id="pictogram/more/calendar" stroke="none" stroke-width="1" fill="none" fill-rule="evenodd">
        <g>
            <path d="M140,70 C140,108.65995 108.65995,140 70,140 C31.34005,140 0,108.65995 0,70 C0,31.34005 31.34005,0 70,0 C108.65995,0 140,31.34005 140,70" id="Mask" fill="#91BFE3"></path>
            <rect id="Rectangle" fill="#DAD2BD" x="40" y="61" width="65" height="32"></rect>
            <g id="Icon/calender" transform="translate(28.000000, 32.000000)" fill="#23366F">
                <path d="M21,12 L21,21 C21,22.5976809 22.24892,23.9036609 23.8237272,23.9949073 L24,24 L33,24 C34.5976809,24 35.9036609,22.75108 35.9949073,21.1762728 L36,21 L36,12 L51,12 L51,21 C51,22.5976809 52.24892,23.9036609 53.8237272,23.9949073 L54,24 L63,24 C64.5976809,24 65.9036609,22.75108 65.9949073,21.1762728 L66,21 L66,12 L68.9388,12 C77.2569,12 84,18.7431 84,27.0612 L84,56.9388 C84,65.2566 77.2569,72 68.9388,72 L15.0612,72 C6.7431,72 0,65.2566 0,56.9388 L0,27.0612 C0,18.7431 6.7431,12 15.0612,12 L21,12 Z M68,48 L16,48 C15.4871642,48 15.0644928,48.3860402 15.0067277,48.8833789 L15,49 L15,56 C15,56.5128358 15.3860402,56.9355072 15.8833789,56.9932723 L16,57 L68,57 C68.5128358,57 68.9355072,56.6139598 68.9932723,56.1166211 L69,56 L69,49 C69,48.4477153 68.5522847,48 68,48 Z M68,33 L16,33 C15.4871642,33 15.0644928,33.3860402 15.0067277,33.8833789 L15,34 L15,41 C15,41.5128358 15.3860402,41.9355072 15.8833789,41.9932723 L16,42 L68,42 C68.5128358,42 68.9355072,41.6139598 68.9932723,41.1166211 L69,41 L69,34 C69,33.4477153 68.5522847,33 68,33 Z M30,0 C31.6568542,-3.04359188e-16 33,1.34314575 33,3 L33,18 C33,19.6568542 31.6568542,21 30,21 L27,21 C25.3431458,21 24,19.6568542 24,18 L24,3 C24,1.34314575 25.3431458,3.04359188e-16 27,0 L30,0 Z M60,0 C61.6568542,-3.04359188e-16 63,1.34314575 63,3 L63,18 C63,19.6568542 61.6568542,21 60,21 L57,21 C55.3431458,21 54,19.6568542 54,18 L54,3 C54,1.34314575 55.3431458,3.04359188e-16 57,0 L60,0 Z" id="Combined-Shape"></path>
            </g>
        </g>
    </g>
</svg>