<?xml version="1.0" encoding="UTF-8"?>
<svg width="140px" height="140px" viewBox="0 0 140 140" version="1.1" xmlns="http://www.w3.org/2000/svg" xmlns:xlink="http://www.w3.org/1999/xlink">
    <title>pictogram/finance-and-data/cash-flow-financial</title>
    <g id="pictogram/finance-and-data/cash-flow-financial" stroke="none" stroke-width="1" fill="none" fill-rule="evenodd">
        <g>
            <rect id="Rectangle" fill="#5495CF" x="0" y="0" width="140" height="140" rx="70"></rect>
            <g id="Group-26" transform="translate(29.000000, 40.000000)">
                <rect id="Rectangle" fill="#DAD2BD" x="0" y="0" width="56" height="10" rx="5"></rect>
                <rect id="Rectangle-Copy" fill="#DAD2BD" x="6" y="12" width="56" height="10" rx="5"></rect>
                <rect id="Rectangle-Copy-2" fill="#DAD2BD" x="0" y="24" width="56" height="10" rx="5"></rect>
                <rect id="Rectangle-Copy-3" fill="#DAD2BD" x="0" y="36" width="56" height="10" rx="5"></rect>
                <rect id="Rectangle-Copy-4" fill="#DAD2BD" x="8" y="48" width="56" height="10" rx="5"></rect>
                <circle id="Oval" stroke="#5495CF" stroke-width="4" fill="#23366F" cx="62" cy="33" r="30"></circle>
                <path d="M64.056,51.828 L64.056,48.616 C66.2266667,48.4106667 68.148,47.8826667 69.82,47.032 C71.492,46.1813333 72.7973333,45.052 73.736,43.644 C74.6746667,42.236 75.144,40.608 75.144,38.76 C75.144,36.7653333 74.704,35.1373333 73.824,33.876 C72.944,32.6146667 71.712,31.632 70.128,30.928 C68.544,30.224 66.52,29.608 64.056,29.08 L64.056,29.08 L64.056,22.216 C65.024,22.5093333 65.7866667,22.9786667 66.344,23.624 C66.9013333,24.2693333 67.2533333,25.0906667 67.4,26.088 L67.4,26.088 L74.308,26.088 C74.1026667,23.448 73.1126667,21.2626667 71.338,19.532 C69.5633333,17.8013333 67.136,16.76 64.056,16.408 L64.056,16.408 L64.056,13.548 L59.788,13.548 L59.788,16.452 C56.708,16.7746667 54.266,17.7573333 52.462,19.4 C50.658,21.0426667 49.756,23.1986667 49.756,25.868 C49.756,27.6573333 50.1666667,29.1386667 50.988,30.312 C51.8093333,31.4853333 52.9313333,32.424 54.354,33.128 C55.7766667,33.832 57.588,34.448 59.788,34.976 L59.788,34.976 L59.788,42.676 C58.996,42.4706667 58.3213333,42.1553333 57.764,41.73 C57.2066667,41.3046667 56.7593333,40.7693333 56.422,40.124 C56.0846667,39.4786667 55.8573333,38.7453333 55.74,37.924 L55.74,37.924 L48.656,37.924 L48.656,37.924 L48.656,38.012 C48.7733333,39.948 49.294,41.664 50.218,43.16 C51.142,44.656 52.4106667,45.866 54.024,46.79 C55.6373333,47.714 57.5586667,48.308 59.788,48.572 L59.788,48.572 L59.788,51.828 L64.056,51.828 Z M59.788,28.068 C58.7026667,27.7453333 57.918,27.3786667 57.434,26.968 C56.95,26.5573333 56.708,26 56.708,25.296 C56.708,24.5626667 56.9793333,23.9173333 57.522,23.36 C58.0646667,22.8026667 58.82,22.4066667 59.788,22.172 L59.788,22.172 L59.788,28.068 Z M64.056,42.852 L64.056,35.856 C65.0533333,36.12 65.838,36.384 66.41,36.648 C66.982,36.912 67.4146667,37.242 67.708,37.638 C68.0013333,38.034 68.148,38.5253333 68.148,39.112 C68.148,40.1093333 67.774,40.9306667 67.026,41.576 C66.278,42.2213333 65.288,42.6466667 64.056,42.852 L64.056,42.852 Z" id="$" fill="#1FB1E6" fill-rule="nonzero"></path>
            </g>
        </g>
    </g>
</svg>