<?xml version="1.0" encoding="UTF-8"?>
<svg width="140px" height="140px" viewBox="0 0 140 140" version="1.1" xmlns="http://www.w3.org/2000/svg" xmlns:xlink="http://www.w3.org/1999/xlink">
    <title>pictogram/earth-and-nature/catastrophe</title>
    <defs>
        <path d="M140,70 C140,108.65995 108.65995,140 70,140 C31.34005,140 0,108.65995 0,70 C0,31.34005 31.34005,0 70,0 C108.65995,0 140,31.34005 140,70" id="path-1"></path>
    </defs>
    <g id="pictogram/earth-and-nature/catastrophe" stroke="none" stroke-width="1" fill="none" fill-rule="evenodd">
        <g id="catastrophe">
            <mask id="mask-2" fill="white">
                <use xlink:href="#path-1"></use>
            </mask>
            <use id="Mask" fill="#2167AE" xlink:href="#path-1"></use>
            <path d="M107.202886,100.894834 L95.980368,90.3026389 L97.3006642,79.4489076 C97.5647235,77.7489256 96.2444272,76.1797114 94.6600717,76.0489436 L89.6429459,75.3951043 C87.9265608,75.1335686 86.3422053,76.4412471 86.2101756,78.0104613 L85.8140868,80.6258182 L77.1001314,72.6489795 C75.2517166,70.9489975 71.8189464,70.4259261 69.5744427,71.7336046 L33.3983251,91.7410852 C31.1538214,93.0487637 30.3616437,95.7948885 31.5499103,98.0179419 L32.3420881,99.3256203 C33.5303547,101.548674 36.4350065,102.333281 38.6795101,101.15637 L67.8580576,85.071925 C70.1025612,83.8950144 73.4033019,84.2873179 75.3837463,85.9872999 L99.5451679,108.740905 C101.393583,110.440887 104.430264,110.440887 106.146649,108.610137 L107.202886,107.433227 C109.183331,105.602477 109.051301,102.725584 107.202886,100.894834 Z" id="Path-Copy-2" fill="#DAD2BD" fill-rule="nonzero" mask="url(#mask-2)"></path>
            <path d="M95.980368,111.190981 L88.3226497,103.687237 L80.6649313,107.305113 L84.4937905,111.190981 L69.838502,112.39694 L77.7602795,108.645068 L73.9314204,104.7592 L84.3617609,99.8013691 L74.9876574,90.6896794 C73.1392426,88.9477387 69.7064723,88.4117569 67.4619687,89.7517113 L42.1122804,104.223218 C39.8677768,105.563173 37.8873324,107.573104 37.7553027,108.779063 L37.4912435,110.92299 L37.2271842,112.530936 L34.5865917,133.83621 C34.3225325,136.114132 35.1147102,138.258059 36.5670361,139.732009 L42.7724286,139.732009 L45.5450507,131.826278 L40.131836,131.826278 L49.6379691,120.436666 L46.7333173,128.744383 L52.146532,128.744383 L48.3176729,139.732009 L56.2394504,139.732009 L58.4839541,121.642625 C58.7480133,119.900685 60.2003392,118.694726 61.9167244,118.962716 L73.2712722,120.436666 C74.9876574,120.704657 76.175924,122.178607 75.9118648,123.920548 L73.9314204,140 L96.2444272,140 L98.6209605,120.570662 L98.8850198,118.962716 L99.149079,116.818789 C99.2811086,115.34484 97.8287828,112.932922 95.980368,111.190981 Z" id="Path-Copy-3" fill="#DAD2BD" fill-rule="nonzero" mask="url(#mask-2)"></path>
            <g id="twister" mask="url(#mask-2)" fill-rule="nonzero">
                <g transform="translate(-7.000000, 15.000000)">
                    <path d="M78.2755143,28.1952141 C77.2579122,28.4861312 76.6764252,29.7952584 77.1125404,30.9589271 C77.8393991,33.8680987 74.2051058,38.8136904 66.6457759,43.4683649 C66.5004042,43.1774478 66.5004042,42.8865306 66.3550324,42.5956135 C64.3198282,34.8863087 70.861556,21.0677436 73.4782472,16.4130691 C73.6236189,16.1221519 73.7689906,15.8312348 73.7689906,15.394859 C74.641221,13.3584389 74.7865928,11.3220188 74.3504776,9.28559869 C71.5884147,-1.33287764 50.9456291,-1.91471196 33.0649063,2.88542118 C15.1841835,7.68555431 -2.11505236,18.3040306 0.21089532,28.7770484 L0.21089532,28.7770484 C0.93775397,33.1408058 2.68221473,38.5227732 4.57204722,42.1592377 C8.78782738,50.3049182 15.7656704,53.3595484 22.45277,56.1232614 C26.0870632,57.7233058 29.7213565,59.1778916 32.6287911,61.5052288 C35.2454822,63.5416489 38.1529168,66.8871963 38.7344037,71.5418708 C24.6333459,73.2873738 15.3295552,70.2327436 14.3119531,66.4508205 C14.0212097,65.2871519 14.4573248,63.6871075 15.6202987,61.9416046 C16.2017856,60.9233945 16.0564139,59.4688087 15.1841835,58.5960572 C14.3119531,57.7233058 13.1489793,57.7233058 12.4221206,58.7415158 C10.3869164,61.796146 9.66005776,64.7053176 10.5322881,67.6144892 C12.7128641,75.6147111 24.7787177,77.9420483 38.2982886,76.4874625 C38.0075451,77.7965898 37.7168016,79.2511756 37.4260582,80.5603028 C36.5538278,83.9058501 35.8269691,87.396856 36.1177126,91.4696963 C36.6991995,99.3244596 43.6770426,104.270051 48.7650531,107.906516 C49.6372835,108.48835 50.3641421,109.070184 51.0910008,109.652019 C51.527116,109.942936 52.1086029,110.088394 52.5447181,109.942936 C52.6900898,109.942936 52.9808333,109.797477 53.126205,109.652019 C53.7076919,109.215643 53.9984354,108.197433 53.8530637,107.324681 C53.4169485,105.43372 53.4169485,103.3973 53.4169485,101.797255 C53.5623202,95.2516193 55.5975244,88.8514418 59.3771894,83.4694744 C61.7031371,80.123927 64.7559434,77.0692969 68.6809801,74.0146667 L69.4078387,73.4328324 C71.2976712,71.9782466 73.3328755,70.3782022 74.7865928,68.1963235 C78.1301425,63.2507318 77.5486556,56.7050957 73.3328755,51.759504 C72.4606451,50.7412939 71.5884147,49.8685424 70.7161843,48.995791 C70.1346974,48.4139566 69.6985822,47.9775809 69.1170953,47.3957466 C73.1875037,44.9229507 76.3856818,42.0137791 78.5662577,39.1046075 C80.601462,36.1954359 81.4736923,33.1408058 80.7468337,30.0861756 C80.4560902,28.7770484 79.2931164,28.0497555 78.2755143,28.1952141 Z" id="Twister_1_" fill="#2167AE"></path>
                    <path d="M71.603269,64.076779 C70.4598483,65.8071161 68.7447173,67.1048689 67.0295863,68.5468165 L66.3149483,69.1235955 C62.1700483,72.2958801 59.0256414,75.6123596 56.5958725,79.2172285 C52.3080449,85.2734082 50.0212035,92.4831461 49.8782759,99.9812734 C49.8782759,100.558052 49.8782759,101.279026 49.8782759,102 C45.5904483,98.9719101 40.873838,95.0786517 40.4450552,90.4644195 C40.1592,87.4363296 40.873838,84.4082397 41.5884759,81.3801498 C42.0172587,79.3614232 42.588969,77.1985019 42.8748242,75.0355805 C46.0192311,74.6029963 49.0207104,73.8820225 52.1651173,73.1610487 C53.1656104,72.8726592 53.7373207,71.5749064 53.308538,70.4213483 C53.0226828,69.1235955 51.8792621,68.4026217 50.878769,68.5468165 C48.0202173,69.2677903 45.4475207,69.8445693 42.8748242,70.2771536 C42.1601862,65.0861423 39.4445621,60.4719101 35.0138069,57.011236 C31.7264724,54.4157303 27.8674276,52.6853933 24.1513104,51.0992509 C18.0054241,48.5037453 12.2883207,46.0524345 8.85805862,39.5636704 C8.14342069,38.2659176 7.57171035,36.6797753 7,35.093633 C14.8610172,39.2752809 29.1537759,38.6985019 42.1601862,35.093633 C50.5929138,32.7865169 58.8827138,29.1816479 64.8856725,25 C62.1700483,32.4981273 61.4554104,38.5543071 62.7417587,43.1685393 C62.8846863,43.7453184 63.1705414,44.3220974 63.313469,44.8988764 C58.8827138,47.2059925 53.5943931,49.3689139 47.3055793,50.9550562 C46.3050862,51.2434457 45.7333759,52.5411985 46.1621587,53.6947566 C46.4480138,54.9925094 47.5914345,55.7134831 48.5919276,55.5692884 C54.5948863,53.9831461 60.7407725,51.5318352 65.8861656,48.7921348 C66.7437311,49.9456929 67.7442242,50.9550562 68.7447173,51.8202247 C69.6022828,52.6853933 70.3169207,53.406367 71.0315587,54.2715356 C73.3184001,57.2996255 73.7471828,61.0486891 71.603269,64.076779 Z" id="Twister_1_-path" fill="#1FB1E6"></path>
                    <path d="M32.9833608,7.73331064 C53.3815877,2.38163319 67.6028867,5.76164 68.8957321,10.4091494 C70.1885775,15.0566587 59.4148661,24.9150119 39.0166392,30.2666894 C18.6184123,35.6183668 4.39711326,32.23836 3.1042679,27.5908506 C1.81142253,22.9433413 12.5851339,13.0849881 32.9833608,7.73331064 Z" id="Twister_1_-path" fill="#1FB1E6"></path>
                </g>
            </g>
            <g id="regen-04" mask="url(#mask-2)" fill-rule="nonzero">
                <g transform="translate(68.000000, 15.000000)">
                    <path d="M71,36.2929114 C71,27.625777 64.0384716,20.5996763 55.4509916,20.5996763 L55.409813,20.5996763 C56.4213946,10.7525012 49.6421552,1.82018267 39.9587225,0.241335912 C30.2752897,-1.33751085 21.0541547,4.98600769 18.942118,14.6537578 C18.7938753,14.6537578 18.6483779,14.6537578 18.5028805,14.6537578 C8.28509375,14.6537577 0.0015159921,23.0129305 0,33.3254935 C0,43.1448483 7.72508987,51.9362739 17.0506514,51.9362739 L17.0506514,52 L55.5141319,51.9251911 L55.5141319,51.9861465 C64.077572,51.95257 71.0015765,44.9358479 71,36.2929114 Z" id="Path" fill="#23366F"></path>
                    <polygon id="Path-Copy" fill="#1FB1E6" points="32 52.8742101 44.9160768 52.8257654 44.4099379 69 56 43.2947832 42.3940488 43.2947832 43.638596 26"></polygon>
                </g>
            </g>
        </g>
    </g>
</svg>