<?xml version="1.0" encoding="UTF-8"?>
<svg width="140px" height="140px" viewBox="0 0 140 140" version="1.1" xmlns="http://www.w3.org/2000/svg" xmlns:xlink="http://www.w3.org/1999/xlink">
    <title>pictogram/finance-and-data/chart</title>
    <defs>
        <filter id="filter-1">
            <feColorMatrix in="SourceGraphic" type="matrix" values="0 0 0 0 0.854902 0 0 0 0 0.823529 0 0 0 0 0.741176 0 0 0 1.000000 0"></feColorMatrix>
        </filter>
    </defs>
    <g id="pictogram/finance-and-data/chart" stroke="none" stroke-width="1" fill="none" fill-rule="evenodd">
        <g>
            <path d="M140,70 C140,108.65995 108.65995,140 70,140 C31.34005,140 0,108.65995 0,70 C0,31.34005 31.34005,0 70,0 C108.65995,0 140,31.34005 140,70" id="Mask" fill="#1FB1E6"></path>
            <g filter="url(#filter-1)" id="Kurve-Copy">
                <g transform="translate(25.000000, 19.009259)">
                    <polyline id="Path" stroke="#DDE4E3" stroke-width="4" stroke-linecap="round" points="6 55 23.1672575 39.2873932 40.2066817 31.0235043 57.110753 35.0245726 76 6"></polyline>
                    <circle id="Oval" fill="#DDE4E3" fill-rule="nonzero" cx="6" cy="56" r="6"></circle>
                    <circle id="Oval" fill="#DDE4E3" fill-rule="nonzero" cx="23" cy="39" r="6"></circle>
                    <circle id="Oval" fill="#DDE4E3" fill-rule="nonzero" cx="40" cy="31" r="6"></circle>
                    <circle id="Oval" fill="#DDE4E3" fill-rule="nonzero" cx="58" cy="35" r="6"></circle>
                    <circle id="Oval" fill="#DDE4E3" fill-rule="nonzero" cx="76" cy="6" r="6"></circle>
                </g>
            </g>
            <g id="Balken-Copy" transform="translate(31.000000, 54.000000)" fill="#23366F" fill-rule="nonzero">
                <rect id="Rectangle" x="0" y="32" width="12" height="17" rx="6"></rect>
                <rect id="Rectangle" x="32" y="8" width="12" height="41" rx="6"></rect>
                <rect id="Rectangle" x="48" y="14" width="12" height="35" rx="6"></rect>
                <rect id="Rectangle" x="16" y="17" width="12" height="32" rx="6"></rect>
                <rect id="Rectangle" x="64" y="0" width="12" height="49" rx="6"></rect>
            </g>
        </g>
    </g>
</svg>