<?xml version="1.0" encoding="UTF-8"?>
<svg width="140px" height="140px" viewBox="0 0 140 140" version="1.1" xmlns="http://www.w3.org/2000/svg" xmlns:xlink="http://www.w3.org/1999/xlink">
    <title>pictogram/finance-and-data/chart-3</title>
    <g id="pictogram/finance-and-data/chart-3" stroke="none" stroke-width="1" fill="none" fill-rule="evenodd">
        <g>
            <path d="M70,140 C31.34005,140 0,108.65995 0,70 C0,31.34005 31.34005,0 70,0 C108.65995,0 140,31.34005 140,70 C140,108.65995 108.65995,140 70,140 Z" id="Mask" fill="#5495CF"></path>
            <g id="Kurve" transform="translate(37.000000, 20.000000)" stroke="#DAD2BD" stroke-linecap="round" stroke-linejoin="round" stroke-width="4">
                <polyline id="Stroke-5-Copy" points="0 38.072028 22 14.25 40.5 37.3608392 69 6"></polyline>
                <polyline id="Stroke-38-Copy" points="59.5 5.25 70 5.25 70 15.75"></polyline>
            </g>
            <g id="Balken-Copy" transform="translate(33.000000, 55.000000)" fill="#23366F" fill-rule="nonzero">
                <rect id="Rectangle" x="0" y="16" width="20" height="41" rx="10"></rect>
                <rect id="Rectangle" x="27" y="22" width="20" height="35" rx="10"></rect>
                <rect id="Rectangle" x="54" y="0" width="20" height="57" rx="10"></rect>
            </g>
        </g>
    </g>
</svg>