<?xml version="1.0" encoding="UTF-8"?>
<svg width="140px" height="140px" viewBox="0 0 140 140" version="1.1" xmlns="http://www.w3.org/2000/svg" xmlns:xlink="http://www.w3.org/1999/xlink">
    <title>pictogram/more/check</title>
    <g id="pictogram/more/check" stroke="none" stroke-width="1" fill="none" fill-rule="evenodd">
        <g id="Check">
            <path d="M70,140 C31.34005,140 0,108.65995 0,70 C0,31.34005 31.34005,0 70,0 C108.65995,0 140,31.34005 140,70 C140,108.65995 108.65995,140 70,140 Z" id="Mask" fill="#2167AE"></path>
            <g id="Icon/hook-Copy" transform="translate(23.500000, 35.500000)" fill="#1FB1E6">
                <path d="M32.4861039,41.1289015 L17.1771808,24.3609037 C16.4324296,23.5451712 15.1674077,23.4876295 14.3516752,24.2323807 C14.3331749,24.2492712 14.3149935,24.2665078 14.2971408,24.2840814 L0.0240210766,38.3340089 L0.0240210766,38.3340089 C0.0185899525,38.3340089 0.0141871565,38.3384117 0.0141871565,38.3438428 C0.0141871565,38.3464791 0.015245637,38.349005 0.0171250711,38.3508536 L30.7900296,68.6199526 C31.5685292,69.3857068 32.8173351,69.3854738 33.5955489,68.6194291 L91.5683373,11.5531749 C92.3555163,10.7783052 92.365495,9.51201459 91.5906253,8.72483561 C91.5885467,8.72272396 91.5864633,8.72061694 91.5843753,8.71851455 L84.203277,1.28652598 C83.478266,0.556516249 82.317688,0.495666043 81.5203119,1.14585556 L32.4861039,41.1289015 L32.4861039,41.1289015 Z" id="Path"></path>
            </g>
        </g>
    </g>
</svg>