<?xml version="1.0" encoding="UTF-8"?>
<svg width="140px" height="140px" viewBox="0 0 140 140" version="1.1" xmlns="http://www.w3.org/2000/svg" xmlns:xlink="http://www.w3.org/1999/xlink">
    <title>pictogram/more/checklist_scenarios</title>
    <g id="pictogram/more/checklist_scenarios" stroke="none" stroke-width="1" fill="none" fill-rule="evenodd">
        <g>
            <g id="claims">
                <path d="M140,70 C140,108.65995 108.65995,140 70,140 C31.34005,140 0,108.65995 0,70 C0,31.34005 31.34005,0 70,0 C108.65995,0 140,31.34005 140,70" id="Mask" fill="#91BFE3"></path>
                <g id="brett" transform="translate(36.000000, 17.000000)">
                    <path d="M63.693683,8.41023637 L45.1298526,8.41023637 L45.1298526,8.41023637 L44.1695811,4.59239368 L39.8125432,4.59239368 L39.8125432,0 L28.2612137,0 L28.2612137,4.59239368 L23.9032078,4.59239368 L22.9439044,8.409273 L2,8.409273 C0.8954305,8.409273 -1.3527075e-16,9.3047035 0,10.409273 L0,94.001933 C1.3527075e-16,95.1065025 0.8954305,96.001933 2,96.001933 L63.8267116,96.001933 C64.9312811,96.001933 65.8267116,95.1065025 65.8267116,94.001933 C65.8267116,94.0008721 65.8267107,93.9998111 65.826709,93.9987502 L65.6936804,10.4070536 C65.6919246,9.30372822 64.7970097,8.41023637 63.693683,8.41023637 Z" id="Path" fill="#23366F"></path>
                    <polygon id="Path" fill="#91BFE3" points="25.7163009 7.22238969 30.584451 7.22238969 30.584451 2.62999602 37.4883379 2.62999602 37.4883379 7.22238969 42.356488 7.22238969 44.0824597 14.0921945 23.9912972 14.0921945"></polygon>
                    <path d="M13.375,83.1804124 L51.6043814,83.1804124 C52.1566662,83.1804124 52.6043814,82.7326971 52.6043814,82.1804124 L52.6043814,81.4375 C52.6043814,80.8852153 52.1566662,80.4375 51.6043814,80.4375 L13.375,80.4375 C12.8227153,80.4375 12.375,80.8852153 12.375,81.4375 L12.375,82.1804124 C12.375,82.7326971 12.8227153,83.1804124 13.375,83.1804124 Z" id="Fill-13" fill="#DAD2BD"></path>
                    <path d="M13,44.7429124 L29,44.7429124 C29.5522847,44.7429124 30,44.2951971 30,43.7429124 L30,43 C30,42.4477153 29.5522847,42 29,42 L13,42 C12.4477153,42 12,42.4477153 12,43 L12,43.7429124 C12,44.2951971 12.4477153,44.7429124 13,44.7429124 Z" id="Fill-13-Copy-3" fill="#DAD2BD"></path>
                    <path d="M13,61.7429124 L29,61.7429124 C29.5522847,61.7429124 30,61.2951971 30,60.7429124 L30,60 C30,59.4477153 29.5522847,59 29,59 L13,59 C12.4477153,59 12,59.4477153 12,60 L12,60.7429124 C12,61.2951971 12.4477153,61.7429124 13,61.7429124 Z" id="Fill-13-Copy-5" fill="#DAD2BD"></path>
                    <path d="M13,27.7429124 L29,27.7429124 C29.5522847,27.7429124 30,27.2951971 30,26.7429124 L30,26 C30,25.4477153 29.5522847,25 29,25 L13,25 C12.4477153,25 12,25.4477153 12,26 L12,26.7429124 C12,27.2951971 12.4477153,27.7429124 13,27.7429124 Z" id="Fill-13-Copy-4" fill="#DAD2BD"></path>
                </g>
            </g>
            <path d="M81.9383201,42.6382246 L80.2941128,40.8085559 C79.5558139,39.9869791 78.2912847,39.9194691 77.4697079,40.657768 C77.4432388,40.6815542 77.4174092,40.7060426 77.3922467,40.731207 L76.0043909,42.1191731 L76.0043909,42.1191731 C76.0033869,42.1191731 76.002573,42.119987 76.002573,42.120991 C76.002573,42.1214734 76.0027647,42.121936 76.0031059,42.1222769 L80.4700654,46.5862581 C81.2516275,47.3664684 82.517637,47.3662322 83.2989079,46.5857302 L92.0686192,37.8153219 C92.5847144,37.2991857 92.5894401,36.4638762 92.0792179,35.9419335 C91.5588914,35.4096545 90.717282,35.3654652 90.1440748,35.8403275 L81.9383201,42.6382246 L81.9383201,42.6382246 Z" id="Path" fill="#5495CF"></path>
            <path d="M81.9383201,58.6382246 L80.2941128,56.8085559 C79.5558139,55.9869791 78.2912847,55.9194691 77.4697079,56.657768 C77.4432388,56.6815542 77.4174092,56.7060426 77.3922467,56.731207 L76.0043909,58.1191731 L76.0043909,58.1191731 C76.0033869,58.1191731 76.002573,58.119987 76.002573,58.120991 C76.002573,58.1214734 76.0027647,58.121936 76.0031059,58.1222769 L80.4700654,62.5862581 C81.2516275,63.3664684 82.517637,63.3662322 83.2989079,62.5857302 L92.0686192,53.8153219 C92.5847144,53.2991857 92.5894401,52.4638762 92.0792179,51.9419335 C91.5588914,51.4096545 90.717282,51.3654652 90.1440748,51.8403275 L81.9383201,58.6382246 L81.9383201,58.6382246 Z" id="Path-Copy-8" fill="#5495CF"></path>
            <path d="M81.9383201,74.6382246 L80.2941128,72.8085559 C79.5558139,71.9869791 78.2912847,71.9194691 77.4697079,72.657768 C77.4432388,72.6815542 77.4174092,72.7060426 77.3922467,72.731207 L76.0043909,74.1191731 L76.0043909,74.1191731 C76.0033869,74.1191731 76.002573,74.119987 76.002573,74.120991 C76.002573,74.1214734 76.0027647,74.121936 76.0031059,74.1222769 L80.4700654,78.5862581 C81.2516275,79.3664684 82.517637,79.3662322 83.2989079,78.5857302 L92.0686192,69.8153219 C92.5847144,69.2991857 92.5894401,68.4638762 92.0792179,67.9419335 C91.5588914,67.4096545 90.717282,67.3654652 90.1440748,67.8403275 L81.9383201,74.6382246 L81.9383201,74.6382246 Z" id="Path-Copy-9" fill="#5495CF"></path>
        </g>
    </g>
</svg>