<?xml version="1.0" encoding="UTF-8"?>
<svg width="140px" height="140px" viewBox="0 0 140 140" version="1.1" xmlns="http://www.w3.org/2000/svg" xmlns:xlink="http://www.w3.org/1999/xlink">
    <title>pictogram/products-and-services/claims</title>
    <defs>
        <filter id="filter-1">
            <feColorMatrix in="SourceGraphic" type="matrix" values="0 0 0 0 0.854902 0 0 0 0 0.823529 0 0 0 0 0.741176 0 0 0 1.000000 0"></feColorMatrix>
        </filter>
    </defs>
    <g id="pictogram/products-and-services/claims" stroke="none" stroke-width="1" fill="none" fill-rule="evenodd">
        <g>
            <path d="M140,70 C140,108.65995 108.65995,140 70,140 C31.34005,140 0,108.65995 0,70 C0,31.34005 31.34005,0 70,0 C108.65995,0 140,31.34005 140,70" id="Mask" fill="#5495CF"></path>
            <g id="claims" transform="translate(37.000000, 17.000000)">
                <g id="brett">
                    <path d="M63.693683,8.41023637 L45.1298526,8.41023637 L45.1298526,8.41023637 L44.1695811,4.59239368 L39.8125432,4.59239368 L39.8125432,0 L28.2612137,0 L28.2612137,4.59239368 L23.9032078,4.59239368 L22.9439044,8.409273 L2,8.409273 C0.8954305,8.409273 -1.3527075e-16,9.3047035 0,10.409273 L0,94.001933 C1.3527075e-16,95.1065025 0.8954305,96.001933 2,96.001933 L63.8267116,96.001933 C64.9312811,96.001933 65.8267116,95.1065025 65.8267116,94.001933 C65.8267116,94.0008721 65.8267107,93.9998111 65.826709,93.9987502 L65.6936804,10.4070536 C65.6919246,9.30372822 64.7970097,8.41023637 63.693683,8.41023637 Z" id="Path" fill="#23366F"></path>
                    <polygon id="Path" fill="#91BFE3" points="25.7163009 7.22238969 30.584451 7.22238969 30.584451 2.62999602 37.4883379 2.62999602 37.4883379 7.22238969 42.356488 7.22238969 44.0824597 14.0921945 23.9912972 14.0921945"></polygon>
                    <path d="M14,82.7429124 L52.2293814,82.7429124 C52.7816662,82.7429124 53.2293814,82.2951971 53.2293814,81.7429124 L53.2293814,81 C53.2293814,80.4477153 52.7816662,80 52.2293814,80 L14,80 C13.4477153,80 13,80.4477153 13,81 L13,81.7429124 C13,82.2951971 13.4477153,82.7429124 14,82.7429124 Z" id="Fill-13" fill="#DAD2BD"></path>
                    <path d="M30.7017634,55 L35.820124,55 C36.8720645,55 37.7442034,54.1851149 37.8155222,53.1355948 L39.5143667,28.1355948 C39.5892536,27.0335668 38.7565913,26.0794888 37.6545633,26.0046018 C37.6094301,26.0015348 37.5642058,26 37.5189685,26 L29,26 C27.8954305,26 27,26.8954305 27,28 C27,28.0453148 27.0015401,28.0906166 27.0046176,28.1358268 L28.706381,53.1358268 C28.7778157,54.1852492 29.6499125,55 30.7017634,55 Z M32.1809496,66.2293814 L34.3377695,66.2293814 C36.1892757,66.2293814 37.690218,64.7284391 37.690218,62.876933 C37.690218,61.0254268 36.1892757,59.5244845 34.3377695,59.5244845 L32.1809496,59.5244845 C30.3294434,59.5244845 28.8285011,61.0254268 28.8285011,62.876933 C28.8285011,64.7284391 30.3294434,66.2293814 32.1809496,66.2293814 Z" id="Fill-9" fill="#1FB1E6"></path>
                </g>
                <g filter="url(#filter-1)" id="Stift">
                    <g transform="translate(53.354188, 21.708363)">
                        <g id="Group-2" transform="translate(0.000000, -0.000000)" fill="#D8D8D8" stroke="#979797">
                            <g id="Group" transform="translate(15.155626, 29.173081) rotate(25.000000) translate(-15.155626, -29.173081) translate(12.655626, -1.326919)">
                                <rect id="Rectangle" x="0.5" y="0.5" width="4" height="55" rx="1"></rect>
                                <rect id="Rectangle-Copy-3" x="1.5" y="54.8814433" width="2" height="4" rx="1"></rect>
                                <rect id="Rectangle-Copy-2" x="2.5" y="45.5" width="1" height="15" rx="0.5"></rect>
                            </g>
                            <rect id="Rectangle-Copy" transform="translate(20.655626, 7.673081) rotate(25.000000) translate(-20.655626, -7.673081) " x="20.1556265" y="0.173080558" width="1" height="15" rx="0.5"></rect>
                        </g>
                    </g>
                </g>
            </g>
        </g>
    </g>
</svg>