<?xml version="1.0" encoding="UTF-8"?>
<svg width="140px" height="140px" viewBox="0 0 140 140" version="1.1" xmlns="http://www.w3.org/2000/svg" xmlns:xlink="http://www.w3.org/1999/xlink">
    <title>pictogram/more/clear-visualization-of-your-program</title>
    <g id="pictogram/more/clear-visualization-of-your-program" stroke="none" stroke-width="1" fill="none" fill-rule="evenodd">
        <g>
            <path d="M140,70 C140,108.65995 108.6603,140 70,140 C31.34005,140 0,108.65995 0,70 C0,31.34005 31.34005,0 70,0 C108.6603,0 140,31.34005 140,70" id="Fill-48-Copy" fill="#91BFE3"></path>
            <path d="M69.52491,101.5 C52.12781,101.5 38.02491,87.39675 38.02491,70 C38.02491,52.60325 52.12781,38.5 69.52491,38.5 C86.92201,38.5 101.02491,52.60325 101.02491,70 C101.02491,87.39675 86.92201,101.5 69.52491,101.5 M69.52491,31.5 C42.19586,31.5 18.52816,47.1632 7.00021,70 C18.52816,92.8368 42.19586,108.5 69.52491,108.5 C96.85396,108.5 120.52166,92.8368 132.04996,70 C120.52166,47.1632 96.85396,31.5 69.52491,31.5" id="Fill-49-Copy" fill="#23366F"></path>
            <path d="M94.02491,70 C94.02491,83.531 83.05591,94.5 69.52491,94.5 C55.99391,94.5 45.02491,83.531 45.02491,70 C45.02491,56.469 55.99391,45.5 69.52491,45.5 C83.05591,45.5 94.02491,56.469 94.02491,70" id="Fill-50-Copy" fill="#2167AE"></path>
        </g>
    </g>
</svg>