<?xml version="1.0" encoding="UTF-8"?>
<svg width="140px" height="140px" viewBox="0 0 140 140" version="1.1" xmlns="http://www.w3.org/2000/svg" xmlns:xlink="http://www.w3.org/1999/xlink">
    <title>pictogram/earth-and-nature/climate-change</title>
    <g id="pictogram/earth-and-nature/climate-change" stroke="none" stroke-width="1" fill="none" fill-rule="evenodd">
        <g transform="translate(0.000000, 0.274693)">
            <path d="M70,139.650873 C31.34005,139.650873 0,108.388978 0,69.8254364 C0,31.2618953 31.34005,0 70,0 C108.65995,0 140,31.2618953 140,69.8254364 C140,108.388978 108.65995,139.650873 70,139.650873 Z" id="Mask" fill="#91BFE3"></path>
            <g id="Plus-Copy-2" transform="translate(90.000000, 19.725307)">
                <ellipse id="Oval" fill="#5495CF" cx="9.5" cy="10" rx="9.5" ry="10"></ellipse>
                <rect id="Rectangle" fill="#23366F" x="3" y="9" width="12" height="2" rx="1"></rect>
                <path d="M4,9 L14,9 C14.5522847,9 15,9.44771525 15,10 C15,10.5522847 14.5522847,11 14,11 L4,11 C3.44771525,11 3,10.5522847 3,10 C3,9.44771525 3.44771525,9 4,9 Z" id="Rectangle" fill="#23366F" transform="translate(9.000000, 10.000000) rotate(90.000000) translate(-9.000000, -10.000000) "></path>
            </g>
            <g id="leaf" transform="translate(34.949702, 78.488916) rotate(-50.000000) translate(-34.949702, -78.488916) translate(18.949702, 47.456629)">
                <path d="M30.6690741,1.70530257e-13 L29.9072855,0.229508197 C29.8486864,0.229508197 24.2231703,2.06557377 18.1288613,4.99180328 C9.80778551,8.95081967 4.59246336,13.0819672 2.6000931,17.1557377 C-1.61904392,25.7622951 -0.622858793,35.3442623 5.00265724,39.8770492 L15.8434954,42 C21.3518132,40.5081967 26.4499371,35.9754098 29.4384925,29.8360656 C34.1850216,20.2540984 30.9034706,1.60655738 30.7862724,0.803278689 L30.6690741,1.70530257e-13 Z" id="Fill-1" fill="#2167AE"></path>
                <path d="M10.6171145,39.9300218 C11.5879714,30.6675634 17.6558271,22.2904869 17.7165056,22.2223806 L16.6849702,21.0645733 C16.3815774,21.3369986 9.64625759,27.6708856 6.97640111,36.7971315 C3.51772338,48.7838424 8.25065079,61.0429786 8.49336502,61.5878291 L8.67540069,62.0645733 L12.4374712,62.0645733 L13.7117209,62.0645733 L13.0442568,60.8386597 C13.0442568,60.7705534 9.2215077,53.4150717 10.6171145,39.9300218 L10.6171145,39.9300218 Z" id="Fill-4" fill="#1FB1E6"></path>
            </g>
            <g id="Thermometer" transform="translate(46.694444, 19.725307)">
                <path d="M23.4467593,0 C29.7686298,-1.16130878e-15 34.8935185,5.12488869 34.8935185,11.4467593 L34.893335,54.6891011 C42.5489209,58.6829021 47.7777778,66.713763 47.7777778,75.9700375 C47.7777778,89.2083236 37.0823579,99.9400749 23.8888889,99.9400749 C10.6954199,99.9400749 0,89.2083236 0,75.9700375 C0,67.0748165 4.82889536,59.3112756 11.9998365,55.1747121 L12,11.4467593 C12,5.12488869 17.1248887,1.16130878e-15 23.4467593,0 Z" id="Combined-Shape" fill="#23366F"></path>
                <path d="M23.5,23 C25.1568542,23 26.5,24.3431458 26.5,26 L26.5004849,65.3572945 C31.5206158,66.6271158 35.2323232,71.1344346 35.2323232,76.5 C35.2323232,82.8512746 30.0315905,88 23.6161616,88 C17.2007327,88 12,82.8512746 12,76.5 C12,71.2171139 15.5981995,66.7662283 20.5007099,65.418293 L20.5,26 C20.5,24.3431458 21.8431458,23 23.5,23 Z" id="Combined-Shape" fill="#DAD2BD"></path>
                <path d="M15.9398148,13 L23.6111111,13 C24.4395382,13 25.1111111,13.6715729 25.1111111,14.5 C25.1111111,15.3284271 24.4395382,16 23.6111111,16 L15.9398148,16 L15.9398148,16 L15.9398148,13 Z" id="Rectangle" fill="#5495CF"></path>
                <path d="M15.9398148,27 L23.6111111,27 C24.4395382,27 25.1111111,27.6715729 25.1111111,28.5 C25.1111111,29.3284271 24.4395382,30 23.6111111,30 L15.9398148,30 L15.9398148,30 L15.9398148,27 Z" id="Rectangle-Copy-5" fill="#5495CF"></path>
                <path d="M15.9398148,41 L23.6111111,41 C24.4395382,41 25.1111111,41.6715729 25.1111111,42.5 C25.1111111,43.3284271 24.4395382,44 23.6111111,44 L15.9398148,44 L15.9398148,44 L15.9398148,41 Z" id="Rectangle-Copy-7" fill="#5495CF"></path>
                <path d="M15.9398148,20 L18.3621962,20 L19.6111111,20 C20.4395382,20 21.1111111,20.6715729 21.1111111,21.5 C21.1111111,22.3284271 20.4395382,23 19.6111111,23 L15.9398148,23 L15.9398148,23 L15.9398148,20 Z" id="Rectangle-Copy-4" fill="#5495CF"></path>
                <path d="M15.9398148,34 L18.3621962,34 L19.6111111,34 C20.4395382,34 21.1111111,34.6715729 21.1111111,35.5 C21.1111111,36.3284271 20.4395382,37 19.6111111,37 L15.9398148,37 L15.9398148,37 L15.9398148,34 Z" id="Rectangle-Copy-6" fill="#5495CF"></path>
            </g>
        </g>
    </g>
</svg>