<?xml version="1.0" encoding="UTF-8"?>
<svg width="140px" height="140px" viewBox="0 0 140 140" version="1.1" xmlns="http://www.w3.org/2000/svg" xmlns:xlink="http://www.w3.org/1999/xlink">
    <title>pictogram/contact/contact-mail</title>
    <defs>
        <polygon id="path-1" points="0 0 140 0 140 139.999895 0 139.999895"></polygon>
    </defs>
    <g id="pictogram/contact/contact-mail" stroke="none" stroke-width="1" fill="none" fill-rule="evenodd">
        <g transform="translate(0.000000, 0.000105)">
            <g id="Group-3">
                <mask id="mask-2" fill="white">
                    <use xlink:href="#path-1"></use>
                </mask>
                <g id="Clip-2"></g>
                <path d="M140,70 C140,108.65995 108.65995,140 70,140 C31.34005,140 0,108.65995 0,70 C0,31.34005 31.34005,0 70,0 C108.65995,0 140,31.34005 140,70" id="Fill-1" fill="#5495CF" mask="url(#mask-2)"></path>
            </g>
            <g id="Group-12" transform="translate(31.599743, 21.028492)">
                <path d="M53.4938321,56.7861133 L76.1195755,76.5052376 C76.7081591,77.0177629 77.6289171,76.602013 77.6289171,75.8229186 L77.6289171,36.3850194 C77.6289171,35.6062744 76.7081591,35.1905244 76.1195755,35.7030498 L53.4938321,55.422174 C53.0792279,55.7830729 53.0792279,56.4252144 53.4938321,56.7861133" id="Fill-4" fill="#23366F"></path>
                <path d="M24.135085,55.4220692 L1.50934165,35.7032943 C0.920758036,35.1904196 0,35.6061696 0,36.385264 L0,75.8231631 C0,76.6019082 0.920758036,77.0176581 1.50934165,76.5054821 L24.135085,56.7860085 C24.5496892,56.4251096 24.5496892,55.7829681 24.135085,55.4220692" id="Fill-6" fill="#23366F"></path>
                <path d="M27.7365994,52.6011884 L38.2023737,43.1248849 C38.549631,42.8108015 39.0792861,42.8108015 39.4265434,43.1248849 L49.8923177,52.6011884 C50.2346643,52.9110794 50.7555503,52.9159705 51.1035091,52.6123683 L73.8607894,32.7796989 C74.2697813,32.422643 74.2757443,31.7909826 73.8734169,31.4269394 L39.4265434,0.235562516 C39.0792861,-0.0785208387 38.549631,-0.0785208387 38.2023737,0.235562516 L3.75550019,31.4269394 C3.35317277,31.7909826 3.35913577,32.422643 3.76812773,32.7796989 L26.525408,52.6123683 C26.8733668,52.9159705 27.3942528,52.9110794 27.7365994,52.6011884" id="Fill-8" fill="#DAD2BD"></path>
                <path d="M38.2023386,48.1003286 L4.67446932,78.4595068 C4.05887681,79.0167515 4.45453969,80.0365616 5.28620342,80.0365616 L72.3426435,80.0365616 C73.1743073,80.0365616 73.5703209,79.0167515 72.9547284,78.4595068 L39.4265083,48.1003286 C39.079251,47.7862452 38.5495959,47.7862452 38.2023386,48.1003286" id="Fill-10" fill="#23366F"></path>
            </g>
        </g>
    </g>
</svg>