<?xml version="1.0" encoding="UTF-8"?>
<svg width="140px" height="140px" viewBox="0 0 140 140" version="1.1" xmlns="http://www.w3.org/2000/svg" xmlns:xlink="http://www.w3.org/1999/xlink">
    <title>pictogram/contact/contact-chat</title>
    <g id="pictogram/contact/contact-chat" stroke="none" stroke-width="1" fill="none" fill-rule="evenodd">
        <g transform="translate(0.000000, -0.000070)">
            <path d="M140,70 C140,108.6603 108.65995,140 70,140 C31.34005,140 0,108.6603 0,70 C0,31.34005 31.34005,0 70,0 C108.65995,0 140,31.34005 140,70" id="Fill-1" fill="#91BFE3"></path>
            <g id="Group-12" transform="translate(20.999965, 35.000175)">
                <path d="M80.4286,70 L17.5714,70 C7.86695,70 0,62.1327 0,52.4286 L0,17.5714 C0,7.86695 7.86695,0 17.5714,0 L80.4286,0 C90.13305,0 98,7.86695 98,17.5714 L98,52.4286 C98,62.1327 90.13305,70 80.4286,70" id="Fill-4" fill="#23366F"></path>
                <polygon id="Fill-6" fill="#23366F" points="66.500035 84 80.500035 70 66.500035 70"></polygon>
                <path d="M78.750035,31.499825 L19.250035,31.499825 C16.350635,31.499825 14.000035,29.149575 14.000035,26.249825 C14.000035,23.350425 16.350635,20.999825 19.250035,20.999825 L78.750035,20.999825 C81.649435,20.999825 84.000035,23.350425 84.000035,26.249825 C84.000035,29.149575 81.649435,31.499825 78.750035,31.499825" id="Fill-8" fill="#DAD2BD"></path>
                <path d="M78.750035,48.999825 L19.250035,48.999825 C16.350635,48.999825 14.000035,46.649575 14.000035,43.749825 C14.000035,40.850425 16.350635,38.499825 19.250035,38.499825 L78.750035,38.499825 C81.649435,38.499825 84.000035,40.850425 84.000035,43.749825 C84.000035,46.649575 81.649435,48.999825 78.750035,48.999825" id="Fill-10" fill="#DAD2BD"></path>
            </g>
        </g>
    </g>
</svg>