<?xml version="1.0" encoding="UTF-8"?>
<svg width="140px" height="140px" viewBox="0 0 140 140" version="1.1" xmlns="http://www.w3.org/2000/svg" xmlns:xlink="http://www.w3.org/1999/xlink">
    <title>pictogram/contact/contact-call</title>
    <g id="pictogram/contact/contact-call" stroke="none" stroke-width="1" fill="none" fill-rule="evenodd">
        <g transform="translate(0.000000, 0.000105)">
            <path d="M140,70 C140,108.65995 108.65995,140 70,140 C31.34005,140 0,108.65995 0,70 C0,31.34005 31.34005,0 70,0 C108.65995,0 140,31.34005 140,70" id="Fill-1" fill="#91BFE3"></path>
            <g id="Hörer" transform="translate(29.040425, 44.162715)">
                <path d="M8.9061,34.724165 C8.9068,34.724865 24.68025,18.948965 24.68025,18.948965 L21.18025,1.440915 L0,1.440915 C0,38.204565 29.8032,68.007765 66.56685,68.007765 L66.56685,46.827165 L49.10185,43.345365 L33.28325,59.101665" id="Stroke-4" stroke="#23366F" stroke-width="14" stroke-linejoin="round"></path>
                <polygon id="Fill-6" fill="#23366F" points="0.7392 0 20.96045 0 27.3175 22.0283 5.58495 33.0428"></polygon>
                <polygon id="Fill-8" fill="#23366F" points="67.509575 68.00766 67.509575 47.78676 45.481275 41.42936 34.466775 63.16191"></polygon>
            </g>
            <g id="Group-2" transform="translate(70.000000, 28.999895)" fill="#DAD2BD" fill-rule="nonzero" stroke="#DAD2BD" stroke-width="4">
                <path d="M19.3406593,38.2417582 C19.4285714,39.3846154 20.3956044,40.3516484 21.5384615,40.3516484 C22.1538462,40.3516484 22.6813187,40.0879121 23.1208791,39.6483516 C23.4725275,39.2087912 23.7362637,38.6813187 23.6483516,38.0659341 C22.9450549,26.6373626 13.7142857,17.4065934 2.1978022,16.6153846 L2.10989011,16.6153846 C0.967032967,16.6153846 -1.0125234e-13,17.5824176 -1.0125234e-13,18.7252747 C-1.0125234e-13,19.8681319 0.967032967,20.8351648 2.10989011,20.9230769 C11.2527473,21.6263736 18.7252747,29.010989 19.3406593,38.2417582 Z" id="Path-Copy"></path>
                <path d="M2.10989011,1.42108547e-14 C0.967032967,1.42108547e-14 -6.03961325e-14,0.967032967 -6.03961325e-14,2.10989011 C-6.03961325e-14,3.25274725 0.967032967,4.21978022 2.10989011,4.30769231 C20.3956044,5.01098901 35.3406593,19.8681319 35.956044,38.1538462 C36.043956,39.3846154 36.9230769,40.2637363 38.1538462,40.2637363 C38.7692308,40.2637363 39.2967033,40 39.7362637,39.6483516 C40.1758242,39.2087912 40.3516484,38.6813187 40.3516484,38.1538462 C39.6483516,17.4945055 22.8571429,0.703296703 2.10989011,1.42108547e-14 Z" id="Path-Copy-2"></path>
            </g>
        </g>
    </g>
</svg>