<?xml version="1.0" encoding="UTF-8"?>
<svg width="140px" height="140px" viewBox="0 0 140 140" version="1.1" xmlns="http://www.w3.org/2000/svg" xmlns:xlink="http://www.w3.org/1999/xlink">
    <title>pictogram/transportation-and-travel/corporate-accident-and-business-travel</title>
    <g id="pictogram/transportation-and-travel/corporate-accident-and-business-travel" stroke="none" stroke-width="1" fill="none" fill-rule="evenodd">
        <g>
            <path d="M70,140 C31.34005,140 0,108.65995 0,70 C0,31.34005 31.34005,0 70,0 C108.65995,0 140,31.34005 140,70 C140,108.65995 108.65995,140 70,140 Z" id="Mask" fill="#5495CF"></path>
            <circle id="Oval" stroke="#DAD2BD" stroke-width="6.8" cx="70" cy="70" r="46.6"></circle>
            <g id="globe" transform="translate(22.000000, 22.000000)">
                <path d="M48,0 C21.2932331,0 0,21.2932331 0,48 C0,74.7067669 21.6541353,96 48,96 C74.3458647,96 96,74.3458647 96,48 C96,21.6541353 74.7067669,0 48,0 Z M51,71 C56.3571429,71.3653846 61.3571429,72.4615385 66,74.6538462 C62.7857143,80.5 58.1428571,85.9807692 51,90 L51,71 Z M51,25 L51,6 C57.7857143,9.22641509 62.7857143,14.9622642 66,21.4150943 C61.3571429,23.5660377 56,24.6415094 51,25 Z M60,7 C66.0444444,8.80555556 71.3777778,11.6944444 76,15.6666667 C73.8666667,17.4722222 71.7333333,18.9166667 69.6,20 C67.4666667,14.9444444 63.9111111,10.6111111 60,7 Z M46,6 L46,25 C40.4186047,24.6481481 34.8372093,23.5925926 30,21.4814815 C33.3488372,14.7962963 38.5581395,9.16666667 46,6 Z M26.1818182,20 C24,18.5555556 22.1818182,17.1111111 20,15.6666667 C24.7272727,11.6944444 29.8181818,8.80555556 36,7 C32,10.6111111 28.7272727,14.9444444 26.1818182,20 L26.1818182,20 Z M46,90 C38.5581395,86.0566038 33.3488372,80.6792453 30,74.9433962 C34.8372093,72.4339623 40.4186047,71 46,71 L46,90 Z M39,91 C31.5925926,89.6 24.5555556,86.1 19,81.55 C21.2222222,79.8 23.4444444,78.4 25.6666667,77 C29,82.6 33.4444444,87.15 39,91 Z M70.0909091,76 C72.6363636,77.4 74.8181818,78.8 77,80.55 C71.5454545,85.1 64.6363636,88.6 57,90 C62.4545455,86.5 66.8181818,81.95 70.0909091,76 Z M72,72.1265823 C74.962963,65.5189873 76.4444444,57.8101266 76.4444444,49 L92,49 C91.6296296,60.0126582 87.1851852,70.2911392 80.1481481,78 C77.5555556,75.4303797 74.962963,73.5949367 72,72.1265823 Z M76.4444444,45 C76.0740741,38.2328767 74.5925926,31.109589 72,24.3424658 C74.962963,22.9178082 77.5555556,21.1369863 79.7777778,19 C86.4444444,25.7671233 91.2592593,35.0273973 92,45 L76.4444444,45 L76.4444444,45 Z M16.2222222,19 C18.4444444,21.1369863 21.037037,22.9178082 24,24.3424658 C21.037037,30.7534247 19.9259259,37.8767123 19.5555556,45 L4,45 C4.74074074,35.0273973 9.55555556,25.7671233 16.2222222,19 Z M19.5555556,49 C19.5555556,57.8101266 21.4074074,65.5189873 24,72.1265823 C21.037037,73.5949367 18.4444444,75.7974684 15.8518519,78 C8.44444444,70.2911392 4,60.0126582 4,49 L19.5555556,49 Z" id="Shape" fill="#DAD2BD" fill-rule="nonzero"></path>
                <g id="Group" transform="translate(26.000000, 30.000000)">
                    <rect id="Rectangle" fill="#23366F" x="0" y="16" width="44" height="21" rx="3.38461538"></rect>
                    <path d="M3.38461538,8 L40.6153846,8 C42.4846561,8 44,9.51534392 44,11.3846154 L44,18.5708169 C44,19.8214046 43.3104025,20.9700813 42.206648,21.5580401 L30.1133814,28 L30.1133814,28 L15.8973357,28 L1.95671902,21.5132294 C0.763232411,20.9578828 -1.61514847e-15,19.760926 0,18.4445598 L0,11.3846154 C-2.28919731e-16,9.51534392 1.51534392,8 3.38461538,8 Z" id="Rectangle" fill="#2167AE"></path>
                    <rect id="Rectangle" fill="#5495CF" x="18" y="23" width="8" height="9" rx="3.38461538"></rect>
                    <path d="M27.2873377,0 C30.6010462,-6.08718376e-16 33.2873377,2.6862915 33.2873377,6 L33.2873377,8.61538462 C33.2873377,10.4846561 31.7719937,12 29.9027223,12 L27.9573377,12 L27.9580694,6.08255159 C27.9580694,5.19710722 27.2780535,4.47048905 26.4117805,4.39645568 L26.2657617,4.3902439 L17.3089136,4.3902439 C16.3742779,4.3902439 15.616606,5.14791586 15.616606,6.08255159 L15.616606,6.08255159 L15.6163377,12 L13.671953,12 C11.8026816,12 10.2873377,10.4846561 10.2873377,8.61538462 L10.2873377,6 C10.2873377,2.6862915 12.9736292,6.08718376e-16 16.2873377,0 L27.2873377,0 Z" id="Combined-Shape" fill="#2167AE"></path>
                </g>
            </g>
        </g>
    </g>
</svg>