<?xml version="1.0" encoding="UTF-8"?>
<svg width="140px" height="140px" viewBox="0 0 140 140" version="1.1" xmlns="http://www.w3.org/2000/svg" xmlns:xlink="http://www.w3.org/1999/xlink">
    <title>pictogram/more/covid-19</title>
    <g id="pictogram/more/covid-19" stroke="none" stroke-width="1" fill="none" fill-rule="evenodd">
        <g>
            <g id="notification-copy"></g>
            <path d="M140,70 C140,108.65995 108.65995,140 70,140 C31.34005,140 0,108.65995 0,70 C0,31.34005 31.34005,0 70,0 C108.65995,0 140,31.34005 140,70" id="Mask" fill="#DAD2BD"></path>
            <g id="Group-9" transform="translate(70.000000, 67.000000) rotate(8.000000) translate(-70.000000, -67.000000) translate(64.000000, 8.000000)" fill="#1FB1E6">
                <g id="virus" transform="translate(0.000000, 90.000000)">
                    <rect id="Rectangle" x="4.57142857" y="0" width="3.42857143" height="21.7142857"></rect>
                    <circle id="Oval" cx="6" cy="22" r="6"></circle>
                </g>
                <g id="virus" transform="translate(6.000000, 14.000000) scale(1, -1) translate(-6.000000, -14.000000) ">
                    <rect id="Rectangle" x="4.57142857" y="0" width="3.42857143" height="21.7142857"></rect>
                    <circle id="Oval" cx="6" cy="22" r="6"></circle>
                </g>
            </g>
            <g id="Group-6" transform="translate(70.880471, 71.829155) rotate(-22.000000) translate(-70.880471, -71.829155) translate(64.380471, 11.829155)" fill="#1FB1E6">
                <g id="virus" transform="translate(0.376109, 92.006153)">
                    <rect id="Rectangle" x="4.57142857" y="0" width="3.42857143" height="21.7142857"></rect>
                    <circle id="Oval" cx="6" cy="22" r="6"></circle>
                </g>
                <g id="virus" transform="translate(6.732051, 14.464102) scale(1, -1) translate(-6.732051, -14.464102) translate(0.732051, 0.464102)">
                    <rect id="Rectangle" x="4.57142857" y="0" width="3.42857143" height="21.7142857"></rect>
                    <circle id="Oval" cx="6" cy="22" r="6"></circle>
                </g>
            </g>
            <g id="Group-6" transform="translate(67.670332, 72.892523) rotate(-52.000000) translate(-67.670332, -72.892523) translate(58.170332, 13.892523)" fill="#1FB1E6">
                <g id="virus" transform="translate(6.753378, 89.977217)">
                    <rect id="Rectangle" x="4.57142857" y="0" width="3.42857143" height="21.7142857"></rect>
                    <circle id="Oval" cx="6" cy="22" r="6"></circle>
                </g>
                <g id="virus" transform="translate(6.558926, 14.561987) scale(1, -1) translate(-6.558926, -14.561987) translate(0.558926, 0.561987)">
                    <rect id="Rectangle" x="4.57142857" y="0" width="3.42857143" height="21.7142857"></rect>
                    <circle id="Oval" cx="6" cy="22" r="6"></circle>
                </g>
            </g>
            <g id="Group-6" transform="translate(71.082481, 72.970804) rotate(-82.000000) translate(-71.082481, -72.970804) translate(61.082481, 14.470804)" fill="#1FB1E6">
                <g id="virus" transform="translate(7.139173, 88.990268)">
                    <rect id="Rectangle" x="4.57142857" y="0" width="3.42857143" height="21.7142857"></rect>
                    <circle id="Oval" cx="6" cy="22" r="6"></circle>
                </g>
                <g id="virus" transform="translate(6.919218, 14.844771) scale(1, -1) translate(-6.919218, -14.844771) translate(0.919218, 0.844771)">
                    <rect id="Rectangle" x="4.57142857" y="0" width="3.42857143" height="21.7142857"></rect>
                    <circle id="Oval" cx="6" cy="22" r="6"></circle>
                </g>
            </g>
            <g id="Group-6" transform="translate(72.034952, 65.650674) rotate(-112.000000) translate(-72.034952, -65.650674) translate(62.534952, 4.150674)" fill="#1FB1E6">
                <g id="virus" transform="translate(10.084845, 107.504579) rotate(-9.000000) translate(-10.084845, -107.504579) translate(4.084845, 93.504579)">
                    <rect id="Rectangle" x="4.57142857" y="0" width="3.42857143" height="21.7142857"></rect>
                    <circle id="Oval" cx="6" cy="22" r="6"></circle>
                </g>
                <g id="virus" transform="translate(6.420106, 14.467178) scale(1, -1) translate(-6.420106, -14.467178) translate(0.420106, 0.467178)">
                    <rect id="Rectangle" x="4.57142857" y="0" width="3.42857143" height="21.7142857"></rect>
                    <circle id="Oval" cx="6" cy="22" r="6"></circle>
                </g>
            </g>
            <g id="Group-6" transform="translate(72.564872, 74.599366) rotate(-142.000000) translate(-72.564872, -74.599366) translate(65.064872, 14.599366)" fill="#1FB1E6">
                <g id="virus" transform="translate(2.330372, 91.844508)">
                    <rect id="Rectangle" x="4.57142857" y="0" width="3.42857143" height="21.7142857"></rect>
                    <circle id="Oval" cx="6" cy="22" r="6"></circle>
                </g>
                <g id="virus" transform="translate(6.212962, 14.714275) scale(1, -1) translate(-6.212962, -14.714275) translate(0.212962, 0.714275)">
                    <rect id="Rectangle" x="4.57142857" y="0" width="3.42857143" height="21.7142857"></rect>
                    <circle id="Oval" cx="6" cy="22" r="6"></circle>
                </g>
            </g>
            <circle id="Oval" fill="#23366F" cx="70" cy="70" r="43"></circle>
            <g id="Typo-Covid19" transform="translate(44.500000, 41.826820)" fill="#1FB1E6" fill-rule="nonzero">
                <path d="M15.2837333,50.3065134 L15.2837333,16.1390467 L9.79946666,16.1390467 C9.21706666,17.9833134 8.15742222,19.4878467 6.62053333,20.6526467 C5.08364444,21.8174467 3.31217778,22.4645579 1.30613333,22.5939801 L1.30613333,22.5939801 L1.30613333,28.1753134 C2.66506666,28.1429579 3.99973333,27.9083801 5.31013333,27.4715801 C6.62053333,27.0347801 7.82577778,26.4281134 8.92586666,25.6515801 L8.92586666,25.6515801 L8.92586666,50.3065134 L15.2837333,50.3065134 Z M34.3573333,51.0830467 C37.2046222,51.0830467 39.6717333,50.3712245 41.7586667,48.9475801 C43.8456,47.5239356 45.4391111,45.4289134 46.5392,42.6625134 C47.6392889,39.8961134 48.1893333,36.5554023 48.1893333,32.6403801 C48.1893333,28.6606467 47.5826667,25.3765579 46.3693333,22.7881134 C45.156,20.199669 43.5139556,18.3149579 41.4432,17.1339801 C39.3724444,15.9530023 37.0266667,15.3625134 34.4058667,15.3625134 C32.0439111,15.3625134 29.8922667,15.8640245 27.9509333,16.8670467 C26.0096,17.870069 24.4646222,19.2775356 23.316,21.0894467 C22.1673778,22.9013579 21.5930667,25.004469 21.5930667,27.3987801 C21.5930667,29.6960245 22.0784,31.6939801 23.0490667,33.3926467 C24.0197333,35.0913134 25.3624889,36.3936245 27.0773333,37.2995801 C28.7921778,38.2055356 30.7335111,38.6585134 32.9013333,38.6585134 C34.7779556,38.6585134 36.4685333,38.2864245 37.9730667,37.5422467 C39.4776,36.798069 40.7152,35.7465134 41.6858667,34.3875801 C41.4917333,38.4320245 40.7637333,41.3359356 39.5018667,43.0993134 C38.24,44.8626912 36.5089778,45.7443801 34.3088,45.7443801 C32.8528,45.7443801 31.6556444,45.315669 30.7173333,44.4582467 C29.7790222,43.6008245 29.1480889,42.4602912 28.8245333,41.0366467 L28.8245333,41.0366467 L22.3696,41.0366467 C22.9843556,44.2074912 24.3432889,46.6746023 26.4464,48.4379801 C28.5495111,50.2013579 31.1864889,51.0830467 34.3573333,51.0830467 Z M34.4058667,33.8051801 C33.1116444,33.8051801 31.9872889,33.5301579 31.0328,32.9801134 C30.0783111,32.430069 29.3503111,31.6616245 28.8488,30.6747801 C28.3472889,29.6879356 28.0965333,28.5474023 28.0965333,27.2531801 C28.0965333,26.023669 28.3472889,24.9074023 28.8488,23.9043801 C29.3503111,22.9013579 30.0864,22.1167356 31.0570667,21.5505134 C32.0277333,20.9842912 33.1601778,20.7011801 34.4544,20.7011801 C35.7162667,20.7011801 36.8244444,20.9923801 37.7789333,21.5747801 C38.7334222,22.1571801 39.4695111,22.9579801 39.9872,23.9771801 C40.5048889,24.9963801 40.7637333,26.1045579 40.7637333,27.3017134 C40.7637333,28.5635801 40.4968,29.6879356 39.9629333,30.6747801 C39.4290667,31.6616245 38.6768,32.430069 37.7061333,32.9801134 C36.7354667,33.5301579 35.6353778,33.8051801 34.4058667,33.8051801 Z" id="19"></path>
                <path d="M7.11646588,13.160564 C7.86526588,13.160564 8.53317699,13.014964 9.12019921,12.723764 C9.70722143,12.432564 10.1833103,12.0188751 10.5484659,11.4826973 C10.9136214,10.9465195 11.1470437,10.3178973 11.2487325,9.59683065 L11.2487325,9.59683065 L9.68179921,9.59683065 C9.58011032,10.0313195 9.41371032,10.4080307 9.18259921,10.726964 C8.9514881,11.0458973 8.65797699,11.2908751 8.30206588,11.4618973 C7.94615476,11.6329195 7.54171032,11.7184307 7.08873254,11.7184307 C6.42313254,11.7184307 5.8522881,11.5682084 5.37619921,11.267764 C4.90011032,10.9673195 4.53957699,10.539764 4.29459921,9.98509732 C4.04962143,9.43043065 3.92713254,8.78794176 3.92713254,8.05763065 C3.92713254,7.37354176 4.05193254,6.75185287 4.30153254,6.19256398 C4.55113254,5.6332751 4.91166588,5.19416398 5.38313254,4.87523065 C5.85459921,4.55629732 6.41851032,4.39683065 7.07486588,4.39683065 C7.77744365,4.39683065 8.34366588,4.5724751 8.77353254,4.92376398 C9.20339921,5.27505287 9.50615476,5.79274176 9.68179921,6.47683065 L9.68179921,6.47683065 L11.2903325,6.47683065 C11.1609103,5.75576398 10.9089992,5.13176398 10.5345992,4.60483065 C10.1601992,4.07789732 9.67717699,3.67114176 9.08553254,3.38456398 C8.4938881,3.09798621 7.8282881,2.95469732 7.08873254,2.95469732 C6.10882143,2.95469732 5.25833254,3.17425287 4.53726588,3.61336398 C3.81619921,4.0524751 3.26615476,4.65798621 2.88713254,5.42989732 C2.50811032,6.20180843 2.31859921,7.07771954 2.31859921,8.05763065 C2.31859921,9.03754176 2.51042143,9.91345287 2.89406588,10.685364 C3.27771032,11.4572751 3.83006588,12.0627862 4.55113254,12.5018973 C5.27219921,12.9410084 6.12731032,13.160564 7.11646588,13.160564 Z M17.3916659,13.160564 C18.3623326,13.160564 19.2081992,12.9433195 19.9292659,12.5088307 C20.6503326,12.0743418 21.2026881,11.4734529 21.5863326,10.706164 C21.969977,9.9388751 22.1617992,9.0652751 22.1617992,8.08536398 C22.1617992,7.09620843 21.9676659,6.21336398 21.5793992,5.43683065 C21.1911326,4.66029732 20.638777,4.0524751 19.9223326,3.61336398 C19.2058881,3.17425287 18.3623326,2.95469732 17.3916659,2.95469732 C16.4209992,2.95469732 15.5728214,3.17425287 14.8471326,3.61336398 C14.1214437,4.0524751 13.5644659,4.66029732 13.1761992,5.43683065 C12.7879326,6.21336398 12.5937992,7.09620843 12.5937992,8.08536398 C12.5937992,9.0652751 12.7879326,9.9388751 13.1761992,10.706164 C13.5644659,11.4734529 14.1214437,12.0743418 14.8471326,12.5088307 C15.5728214,12.9433195 16.4209992,13.160564 17.3916659,13.160564 Z M17.3777992,11.7184307 C16.7399326,11.7184307 16.1806437,11.5658973 15.6999326,11.2608307 C15.2192214,10.955764 14.8494437,10.5305195 14.5905992,9.98509732 C14.3317548,9.4396751 14.2023326,8.80643065 14.2023326,8.08536398 C14.2023326,7.36429732 14.3340659,6.72643065 14.5975326,6.17176398 C14.8609992,5.61709732 15.2330881,5.18260843 15.7137992,4.86829732 C16.1945103,4.55398621 16.749177,4.39683065 17.3777992,4.39683065 C18.0156659,4.39683065 18.5749548,4.55398621 19.0556659,4.86829732 C19.536377,5.18260843 19.9038437,5.61709732 20.1580659,6.17176398 C20.4122881,6.72643065 20.5393992,7.36429732 20.5393992,8.08536398 C20.5393992,8.80643065 20.4122881,9.4396751 20.1580659,9.98509732 C19.9038437,10.5305195 19.5386881,10.955764 19.0625992,11.2608307 C18.5865103,11.5658973 18.0249103,11.7184307 17.3777992,11.7184307 Z M28.4295326,12.9386973 L32.0209992,3.17656398 L30.3015326,3.17656398 L27.4588659,10.9834973 L24.6023326,3.17656398 L22.8967326,3.17656398 L26.4743326,12.9386973 L28.4295326,12.9386973 Z M35.2380659,12.9386973 L35.2380659,3.17656398 L33.6572659,3.17656398 L33.6572659,12.9386973 L35.2380659,12.9386973 Z M41.3255326,12.9386973 C42.3146881,12.9386973 43.1605548,12.7422529 43.8631326,12.349364 C44.5657104,11.9564751 45.099577,11.3971862 45.4647326,10.6714973 C45.8298881,9.94580843 46.0124659,9.07914176 46.0124659,8.07149732 C46.0124659,7.06385287 45.8298881,6.1948751 45.4647326,5.46456398 C45.099577,4.73425287 44.5657104,4.17034176 43.8631326,3.77283065 C43.1605548,3.37531954 42.3146881,3.17656398 41.3255326,3.17656398 L41.3255326,3.17656398 L37.7895326,3.17656398 L37.7895326,12.9386973 L41.3255326,12.9386973 Z M41.3116659,11.538164 L39.3703326,11.538164 L39.3703326,4.57709732 L41.3116659,4.57709732 C42.2823326,4.57709732 43.040377,4.87985287 43.5857992,5.48536398 C44.1312215,6.0908751 44.4039326,6.95291954 44.4039326,8.07149732 C44.4039326,9.1900751 44.1312215,10.0474973 43.5857992,10.643764 C43.040377,11.2400307 42.2823326,11.538164 41.3116659,11.538164 L41.3116659,11.538164 Z" id="COVID"></path>
            </g>
        </g>
    </g>
</svg>