<?xml version="1.0" encoding="UTF-8"?>
<svg width="140px" height="140px" viewBox="0 0 140 140" version="1.1" xmlns="http://www.w3.org/2000/svg" xmlns:xlink="http://www.w3.org/1999/xlink">
    <title>pictogram/products-and-services/customer-service-dialog-2</title>
    <defs>
        <path d="M70,140 C31.34005,140 0,108.65995 0,70 C0,31.34005 31.34005,0 70,0 C108.65995,0 140,31.34005 140,70 C140,108.65995 108.65995,140 70,140 Z" id="path-1"></path>
        <path d="M20.0429812,40.2702292 C8.99195011,40.2702292 0,31.1490027 0,19.9361306 C0,8.94110861 8.99195011,0 20.0429812,0 C31.096811,0 40.0901604,8.94110861 40.0901604,19.9361306 C40.0901604,31.1490027 31.096811,40.2702292 20.0429812,40.2702292 Z" id="path-3"></path>
        <path d="M25.9092197,51.074437 C11.6237404,51.074437 0,39.5060522 0,25.2848486 C0,11.3399426 11.6237404,0 25.9092197,0 C40.1983166,0 51.8238659,11.3399426 51.8238659,25.2848486 C51.8238659,39.5060522 40.1983166,51.074437 25.9092197,51.074437 Z" id="path-5"></path>
    </defs>
    <g id="pictogram/products-and-services/customer-service-dialog-2" stroke="none" stroke-width="1" fill="none" fill-rule="evenodd">
        <g>
            <g id="Man">
                <mask id="mask-2" fill="white">
                    <use xlink:href="#path-1"></use>
                </mask>
                <use id="Mask" fill="#91BFE3" xlink:href="#path-1"></use>
                <g mask="url(#mask-2)">
                    <g transform="translate(31.000000, 58.505896)">
                        <g id="head" stroke-width="1" fill="none" transform="translate(7.564698, 0.000000)">
                            <mask id="mask-4" fill="white">
                                <use xlink:href="#path-3"></use>
                            </mask>
                            <use id="Mask" fill="#DAD2BD" xlink:href="#path-3"></use>
                            <path d="M37.8862532,17.8816565 C34.5875979,12.8752261 24.5366174,8.85657825 24.5366174,8.85657825 C23.4625341,12.5227842 21.9278145,13.0872314 17.7850268,14.6381108 C12.6783558,16.5502093 7.19700459,13.7921152 -0.0144876296,20.4203185 C-0.677892018,21.0293273 -3.85091921,17.6703264 -3.54382836,17.5994329 L-3.54382836,-1.75151778 L14.3137248,-8.50589623 L30.2500021,-4.02389029 L43.4353018,12.7225013 L37.8862532,17.8816565 Z" id="Stroke-35" fill="#2167AE" mask="url(#mask-4)"></path>
                        </g>
                        <path d="M0,101.245323 L0.140787349,55.0425407 C0.211181024,48.1622004 5.78152494,42.6409485 12.5848247,42.7114951 L26.2355092,42.8560716 L40.8112662,43.0100393 C47.6124328,43.0812673 53.0697203,48.7197936 52.9993266,55.6008534 L52.8642276,138.309955" id="Fill-24" fill="#2167AE"></path>
                    </g>
                </g>
                <g id="Man-Copy" mask="url(#mask-2)">
                    <g transform="translate(113.106870, 94.182954) scale(-1, 1) translate(-113.106870, -94.182954) translate(79.106870, 26.365909)">
                        <g id="head" stroke-width="1" fill="none" transform="translate(9.729976, 0.000000)">
                            <mask id="mask-6" fill="white">
                                <use xlink:href="#path-5"></use>
                            </mask>
                            <use id="Mask" fill="#DAD2BD" xlink:href="#path-5"></use>
                            <path d="M51.5070439,21.7419179 C47.4461511,15.0466655 35.0726378,9.67240492 35.0726378,9.67240492 C33.7503605,14.5753342 31.8610052,15.3301866 26.7609218,17.404225 C20.4742256,19.9613329 13.7262699,16.2728493 4.84838042,25.1369481 C4.0316797,25.9513941 0.125444506,21.4592997 0.503496442,21.3644916 L0.503496442,-4.51412606 L22.4874879,-13.5469628 L42.1062443,-7.55303926 L58.3383402,14.8424219 L51.5070439,21.7419179 Z" id="Stroke-35" fill="#23366F" mask="url(#mask-6)"></path>
                        </g>
                        <path d="M0,108.6093 L0.180632826,71.292562 C0.270949238,62.5556219 7.41780558,55.5445084 16.1465676,55.6349567 L33.6606534,55.8176805 L52.3616246,56.013195 C61.0876497,56.1036433 68.0894524,63.2636767 67.999136,72.0015305 L67.8258015,135.634091" id="Fill-24" fill="#23366F"></path>
                        <path d="M37.4665766,59.1969241 L44,68.6340913 L44,68.6340913 L26,68.6340913 L32.5334234,59.1969241 C33.4765214,57.8346715 35.3453773,57.4948795 36.7076299,58.4379775 C37.004178,58.64328 37.261274,58.9003761 37.4665766,59.1969241 Z" id="Triangle" fill="#5495CF" transform="translate(35.000000, 62.134091) rotate(180.000000) translate(-35.000000, -62.134091) "></path>
                        <path d="M35.9868746,70.6649915 L44,119.634091 L44,119.634091 L26,119.634091 L34.0131254,70.6649915 C34.1023131,70.1199558 34.6164528,69.7504179 35.1614886,69.8396055 C35.5853081,69.9089578 35.9175223,70.241172 35.9868746,70.6649915 Z" id="Triangle" fill="#5495CF" transform="translate(35.000000, 92.134091) scale(1, -1) rotate(180.000000) translate(-35.000000, -92.134091) "></path>
                    </g>
                </g>
            </g>
            <g id="Sprechblase" transform="translate(51.500000, 41.500000) scale(-1, 1) translate(-51.500000, -41.500000) translate(24.000000, 20.000000)">
                <path d="M43.4949167,35 L0,35 L0,10.2628889 C0,4.59483217 5.15097917,0 11.5050833,0 L43.4949167,0 C49.84925,0 55,4.59483217 55,10.2628889 L55,24.7371111 C55,30.4051678 49.84925,35 43.4949167,35" id="Fill-4" fill="#23366F"></path>
                <polygon id="Fill-6" fill="#23366F" points="0 43 10 35 0 35"></polygon>
                <path d="M42.53125,27 L12.46875,27 C10.553075,27 9,25.4329333 9,23.5 C9,21.5670667 10.553075,20 12.46875,20 L42.53125,20 C44.446925,20 46,21.5670667 46,23.5 C46,25.4329333 44.446925,27 42.53125,27" id="Fill-8" fill="#DDE4E3"></path>
                <path d="M42.53125,14 L12.46875,14 C10.553075,14 9,12.4329333 9,10.5 C9,8.56706667 10.553075,7 12.46875,7 L42.53125,7 C44.446925,7 46,8.56706667 46,10.5 C46,12.4329333 44.446925,14 42.53125,14" id="Fill-10" fill="#DDE4E3"></path>
            </g>
        </g>
    </g>
</svg>