<?xml version="1.0" encoding="UTF-8"?>
<svg width="140px" height="140px" viewBox="0 0 140 140" version="1.1" xmlns="http://www.w3.org/2000/svg" xmlns:xlink="http://www.w3.org/1999/xlink">
    <title>pictogram/products-and-services/customer-service-dialog</title>
    <defs>
        <path d="M70,140 C31.34005,140 0,108.65995 0,70 C0,31.34005 31.34005,0 70,0 C108.65995,0 140,31.34005 140,70 C140,108.65995 108.65995,140 70,140 Z" id="path-1"></path>
        <path d="M25.9092197,51.074437 C11.6237404,51.074437 0,39.5060522 0,25.2848486 C0,11.3399426 11.6237404,0 25.9092197,0 C40.1983166,0 51.8238659,11.3399426 51.8238659,25.2848486 C51.8238659,39.5060522 40.1983166,51.074437 25.9092197,51.074437 Z" id="path-3"></path>
    </defs>
    <g id="pictogram/products-and-services/customer-service-dialog" stroke="none" stroke-width="1" fill="none" fill-rule="evenodd">
        <g id="customer-service-dialog">
            <g id="Man-Copy-2">
                <mask id="mask-2" fill="white">
                    <use xlink:href="#path-1"></use>
                </mask>
                <use id="Mask" fill="#5495CF" xlink:href="#path-1"></use>
                <g mask="url(#mask-2)">
                    <g transform="translate(9.893130, 29.365909)">
                        <g id="head" stroke-width="1" fill="none" transform="translate(9.729976, 0.000000)">
                            <mask id="mask-4" fill="white">
                                <use xlink:href="#path-3"></use>
                            </mask>
                            <use id="Mask" fill="#DAD2BD" xlink:href="#path-3"></use>
                            <path d="M51.5070439,21.7419179 C47.4461511,15.0466655 35.0726378,9.67240492 35.0726378,9.67240492 C33.7503605,14.5753342 31.8610052,15.3301866 26.7609218,17.404225 C20.4742256,19.9613329 13.7262699,16.2728493 4.84838042,25.1369481 C4.0316797,25.9513941 0.125444506,21.4592997 0.503496442,21.3644916 L0.503496442,-4.51412606 L22.4874879,-13.5469628 L42.1062443,-7.55303926 L58.3383402,14.8424219 L51.5070439,21.7419179 Z" id="Stroke-35" fill="#23366F" mask="url(#mask-4)"></path>
                        </g>
                        <path d="M0,108.6093 L0.180632826,71.292562 C0.270949238,62.5556219 7.41780558,55.5445084 16.1465676,55.6349567 L33.6606534,55.8176805 L52.3616246,56.013195 C61.0876497,56.1036433 68.0894524,63.2636767 67.999136,72.0015305 L67.8258015,135.634091" id="Fill-24" fill="#23366F"></path>
                        <path d="M37.4665766,59.1969241 L44,68.6340913 L44,68.6340913 L26,68.6340913 L32.5334234,59.1969241 C33.4765214,57.8346715 35.3453773,57.4948795 36.7076299,58.4379775 C37.004178,58.64328 37.261274,58.9003761 37.4665766,59.1969241 Z" id="Triangle" fill="#5495CF" transform="translate(35.000000, 62.134091) rotate(180.000000) translate(-35.000000, -62.134091) "></path>
                        <path d="M35.9868746,70.6649915 L44,119.634091 L44,119.634091 L26,119.634091 L34.0131254,70.6649915 C34.1023131,70.1199558 34.6164528,69.7504179 35.1614886,69.8396055 C35.5853081,69.9089578 35.9175223,70.241172 35.9868746,70.6649915 Z" id="Triangle" fill="#5495CF" transform="translate(35.000000, 92.134091) scale(1, -1) rotate(180.000000) translate(-35.000000, -92.134091) "></path>
                    </g>
                </g>
            </g>
            <g id="Sprechblase" transform="translate(79.000000, 34.000000)">
                <path d="M37.9592,38 L0,38 L0,11.1425651 C0,4.98867493 4.4954,0 10.0408,0 L37.9592,0 C43.5048,0 48,4.98867493 48,11.1425651 L48,26.8574349 C48,33.0113251 43.5048,38 37.9592,38" id="Fill-4" fill="#23366F"></path>
                <polygon id="Fill-6" fill="#23366F" points="0 46 8 38 0 38"></polygon>
                <path d="M37,29 L11,29 C9.3432,29 8,27.4329333 8,25.5 C8,23.5670667 9.3432,22 11,22 L37,22 C38.6568,22 40,23.5670667 40,25.5 C40,27.4329333 38.6568,29 37,29" id="Fill-8" fill="#DDE4E3"></path>
                <path d="M37,16 L11,16 C9.3432,16 8,14.4329333 8,12.5 C8,10.5670667 9.3432,9 11,9 L37,9 C38.6568,9 40,10.5670667 40,12.5 C40,14.4329333 38.6568,16 37,16" id="Fill-10" fill="#DDE4E3"></path>
            </g>
        </g>
    </g>
</svg>