<?xml version="1.0" encoding="UTF-8"?>
<svg width="140px" height="140px" viewBox="0 0 140 140" version="1.1" xmlns="http://www.w3.org/2000/svg" xmlns:xlink="http://www.w3.org/1999/xlink">
    <title>pictogram/digital-security/cyber-security</title>
    <defs>
        <path d="M70,140 C31.34005,140 0,108.65995 0,70 C0,31.34005 31.34005,0 70,0 C108.6603,0 140,31.34005 140,70 C140,108.65995 108.6603,140 70,140 Z" id="path-1"></path>
    </defs>
    <g id="pictogram/digital-security/cyber-security" stroke="none" stroke-width="1" fill="none" fill-rule="evenodd">
        <g>
            <g id="Combined-Shape-and-Combined-Shape-Copy-2-and-Combined-Shape-Copy-3-Mask" transform="translate(70.000000, 70.000000) rotate(90.000000) translate(-70.000000, -70.000000) ">
                <mask id="mask-2" fill="white">
                    <use xlink:href="#path-1"></use>
                </mask>
                <use id="Mask" fill="#91BFE3" xlink:href="#path-1"></use>
                <path d="M70,120 C73.3137085,120 76,122.686292 76,126 C76,128.22045 74.793836,130.159184 73.000963,131.19675 L73,145 L68,145 L68.0003218,131.658702 C65.669769,130.83512 64,128.612558 64,126 C64,122.686292 66.6862915,120 70,120 Z M47.5,101.5 C50.8137085,101.5 53.5,104.186292 53.5,107.5 C53.5,109.72045 52.293836,111.659184 50.500963,112.69675 L50.5,131.5 L16.5,131.5 L16.5,126.5 L45.5,126.5 L45.5003218,113.158702 C43.2369512,112.358862 41.5968171,110.239534 41.5041385,107.724938 L41.5,107.5 C41.5,104.186292 44.1862915,101.5 47.5,101.5 Z M93,103.5 C96.3137085,103.5 99,106.186292 99,109.5 L99,109.5 L98.9958615,109.724938 C98.9174904,111.851336 97.7325697,113.695087 95.9999606,114.69733 L95.9999606,114.69733 L96,120.5 L123,120.5 L123,125.5 L91,125.5 L90.9993141,115.158346 C88.6692877,114.33448 87,112.112181 87,109.5 C87,106.186292 89.6862915,103.5 93,103.5 Z M51,9.5 L51.000963,28.3032504 C52.793836,29.3408156 54,31.2795505 54,33.5 C54,36.8137085 51.3137085,39.5 48,39.5 C44.6862915,39.5 42,36.8137085 42,33.5 L42,33.5 L42.0041385,33.2750617 C42.0968171,30.7604661 43.7369512,28.6411384 46.0003218,27.8412977 L46.0003218,27.8412977 L46,14.5 L17,14.5 L17,9.5 L51,9.5 Z M123,13.5 L123,18.5 L96,18.5 L95.9999606,24.3026704 C97.7325697,25.3049131 98.9174904,27.1486639 98.9958615,29.2750617 L99,29.5 C99,32.8137085 96.3137085,35.5 93,35.5 C89.6862915,35.5 87,32.8137085 87,29.5 C87,26.8878187 88.6692877,24.6655203 90.9993141,23.8416539 L91,13.5 L123,13.5 Z M73.5,-3 L73.500963,10.8032504 C75.293836,11.8408156 76.5,13.7795505 76.5,16 C76.5,19.3137085 73.8137085,22 70.5,22 C67.1862915,22 64.5,19.3137085 64.5,16 C64.5,13.3874421 66.169769,11.1648796 68.5003218,10.3412977 L68.5003218,10.3412977 L68.5,-3 L73.5,-3 Z" id="Combined-Shape" fill="#2167AE" mask="url(#mask-2)"></path>
            </g>
            <g id="lock" transform="translate(38.000000, 32.000000)">
                <path d="M33,0 C46.8071187,0 58,11.1928813 58,25 C58,38.8071187 46.8071187,50 33,50 C19.1928813,50 8,38.8071187 8,25 C8,11.1928813 19.1928813,0 33,0 Z M33,7.53424658 C23.1647921,7.53424658 15.1917808,15.5072579 15.1917808,25.3424658 C15.1917808,35.1776736 23.1647921,43.1506849 33,43.1506849 C42.8352079,43.1506849 50.8082192,35.1776736 50.8082192,25.3424658 C50.8082192,15.5072579 42.8352079,7.53424658 33,7.53424658 Z" id="Combined-Shape" fill="#23366F"></path>
                <path d="M4.31578947,26 L60.6842105,26 C63.0677552,26 65,27.9322448 65,30.3157895 L65,43.3557064 C64.9999679,61.3846519 50.3846198,76 32.3556743,76 C32.3556743,76 32.3556743,76 32.3556743,76 C32.3556743,76 32.3556743,76 32.3556743,76 C14.4861221,76 -1.21181251e-05,61.5138657 0,43.6443135 L0,30.3157895 C-2.9190004e-16,27.9322448 1.93224476,26 4.31578947,26 Z" id="Rectangle" fill="#23366F"></path>
                <path d="M32.5,34 C36.6421356,34 40,37.4334969 40,41.66893 C40,44.302919 38.7013401,46.6267578 36.7230169,48.0075075 L38.4399467,56.9744744 C38.5296199,57.4426732 38.2227643,57.8949178 37.7545655,57.984591 C37.7010505,57.9948407 37.6466853,58 37.5921977,58 L28.0896205,58 C27.6129115,58 27.2264626,57.613551 27.2264626,57.1368421 C27.2264626,57.0823545 27.2316219,57.0279893 27.2418715,56.9744744 L28.8853471,48.3900459 C26.5691634,47.0848674 25,44.564275 25,41.66893 C25,37.4334969 28.3578644,34 32.5,34 Z" id="Combined-Shape-Copy" fill="#DAD2BD"></path>
            </g>
        </g>
    </g>
</svg>