<?xml version="1.0" encoding="UTF-8"?>
<svg width="140px" height="140px" viewBox="0 0 140 140" version="1.1" xmlns="http://www.w3.org/2000/svg" xmlns:xlink="http://www.w3.org/1999/xlink">
    <title>pictogram/more/developing-new-services-and-solutions</title>
    <defs>
        <path d="M70,140 C31.34005,140 0,108.65995 0,70 C0,31.34005 31.34005,0 70,0 C108.65995,0 140,31.34005 140,70 C140,108.65995 108.65995,140 70,140 Z" id="path-1"></path>
    </defs>
    <g id="pictogram/more/developing-new-services-and-solutions" stroke="none" stroke-width="1" fill="none" fill-rule="evenodd">
        <g>
            <g id="risk-room-copy">
                <mask id="mask-2" fill="white">
                    <use xlink:href="#path-1"></use>
                </mask>
                <use id="Fill-32" fill="#91BFE3" xlink:href="#path-1"></use>
            </g>
            <g id="icon" transform="translate(32.000000, 28.000000)">
                <path d="M69.688,60.375 C67.744,60.375 65.85,60.991 64.274,62.124 L54.901,54.447 C57.471,51.027 58.876,46.846 58.876,42.563 C58.876,41.071 58.697,39.559 58.34,38.056 L62.308,36.267 C64.07,38.568 66.769,39.918 69.688,39.918 C74.823,39.918 79.001,35.74 79.001,30.604 C79.001,25.47 74.823,21.292 69.688,21.292 C64.553,21.292 60.376,25.47 60.376,30.604 C60.376,30.986 60.401,31.369 60.449,31.751 L56.641,33.468 C56.149,32.519 55.58,31.609 54.941,30.751 C53.279,28.519 51.123,26.623 48.706,25.266 C48.297,25.037 47.881,24.823 47.457,24.623 C44.819,23.38 41.995,22.75 39.063,22.75 C37.589,22.75 36.114,22.918 34.678,23.25 C34.326,23.331 33.977,23.422 33.633,23.522 C32.953,23.719 32.272,23.956 31.611,24.227 C31.58,24.24 31.548,24.252 31.517,24.266 L27.07,15.794 C28.755,14.06 29.709,11.739 29.709,9.314 C29.709,4.179 25.532,0 20.397,0 C15.262,0 11.084,4.179 11.084,9.314 C11.084,14.449 15.262,18.626 20.397,18.626 C21.231,18.626 22.057,18.512 22.865,18.287 L27.26,26.659 C23.54,29.433 20.874,33.482 19.8,37.989 L18.598,37.781 C18.24,32.971 14.212,29.167 9.313,29.167 C4.178,29.167 0,33.345 0,38.48 C0,43.614 4.178,47.792 9.313,47.792 C12.854,47.792 16.113,45.726 17.666,42.573 L19.252,42.848 C19.317,47.335 20.915,51.65 23.784,55.128 L16.463,61.909 C14.943,60.902 13.194,60.375 11.355,60.375 C6.22,60.375 2.042,64.553 2.042,69.688 C2.042,74.823 6.22,79.001 11.355,79.001 C16.49,79.001 20.667,74.823 20.667,69.688 C20.667,68.262 20.334,66.853 19.696,65.569 L27.324,58.503 C30.717,61.006 34.852,62.375 39.063,62.375 C43.582,62.375 47.96,60.813 51.486,57.962 L61.185,65.904 C60.654,67.093 60.376,68.386 60.376,69.688 C60.376,74.823 64.553,79.001 69.688,79.001 C74.823,79.001 79.001,74.823 79.001,69.688 C79.001,64.553 74.823,60.375 69.688,60.375" id="Fill-1" fill="#23366F"></path>
                <circle id="Oval" fill="#91BFE3" cx="39" cy="42.5" r="14.5"></circle>
                <circle id="Oval" fill="#DAD2BD" cx="69.5005" cy="30.501" r="4.5"></circle>
                <circle id="Oval" fill="#DAD2BD" cx="69.5005" cy="69.501" r="4.5"></circle>
                <circle id="Oval" fill="#DAD2BD" cx="11.5005" cy="69.501" r="4.5"></circle>
                <circle id="Oval" fill="#DAD2BD" cx="9.5005" cy="38.501" r="4.5"></circle>
                <circle id="Oval" fill="#DAD2BD" cx="20.5005" cy="9.501" r="4.5"></circle>
            </g>
        </g>
    </g>
</svg>