<?xml version="1.0" encoding="UTF-8"?>
<svg width="140px" height="140px" viewBox="0 0 140 140" version="1.1" xmlns="http://www.w3.org/2000/svg" xmlns:xlink="http://www.w3.org/1999/xlink">
    <title>pictogram/digital-security/digital-society</title>
    <defs>
        <path d="M70,140 C31.34005,140 0,108.65995 0,70 C0,31.34005 31.34005,0 70,0 C108.6603,0 140,31.34005 140,70 C140,108.65995 108.6603,140 70,140 Z" id="path-1"></path>
        <path d="M69.2045455,140 C30.9839131,140 -1.42108547e-14,108.65995 -1.42108547e-14,70 C-1.42108547e-14,31.34005 30.9839131,0 69.2045455,0 C107.425178,0 138.409091,31.34005 138.409091,70 C138.409091,108.65995 107.425178,140 69.2045455,140 Z" id="path-3"></path>
        <path d="M25.9092197,51.074437 C11.6237404,51.074437 0,39.5060522 0,25.2848486 C0,11.3399426 11.6237404,0 25.9092197,0 C40.1983166,0 51.8238659,11.3399426 51.8238659,25.2848486 C51.8238659,39.5060522 40.1983166,51.074437 25.9092197,51.074437 Z" id="path-5"></path>
    </defs>
    <g id="pictogram/digital-security/digital-society" stroke="none" stroke-width="1" fill="none" fill-rule="evenodd">
        <g>
            <g id="Combined-Shape-and-Combined-Shape-Copy-2-and-Combined-Shape-Copy-3-Mask" transform="translate(70.000000, 70.000000) rotate(90.000000) translate(-70.000000, -70.000000) ">
                <mask id="mask-2" fill="white">
                    <use xlink:href="#path-1"></use>
                </mask>
                <use id="Mask" fill="#91BFE3" xlink:href="#path-1"></use>
                <path d="M70,120 C73.3137085,120 76,122.462434 76,125.5 C76,127.535608 74.7936033,129.312929 73.0004441,130.263962 L73,145 L68,145 L68.0004967,130.6872 C65.6698525,129.932296 64,127.894905 64,125.5 C64,122.462434 66.6862915,120 70,120 Z M47.5,101.5 C50.8137085,101.5 53.5,104.186292 53.5,107.5 C53.5,109.72045 52.293836,111.659184 50.500963,112.69675 L50.5,131.5 L16.5,131.5 L16.5,126.5 L45.5,126.5 L45.5003218,113.158702 C43.2369512,112.358862 41.5968171,110.239534 41.5041385,107.724938 L41.5,107.5 C41.5,104.186292 44.1862915,101.5 47.5,101.5 Z M93,106 C96.3137085,106 99,108.686292 99,112 L99,112 L98.9958615,112.224938 C98.9174904,114.351336 97.7325697,116.195087 95.9999606,117.19733 L95.9999606,117.19733 L96,123 L123,123 L123,128 L91,128 L90.9993141,117.658346 C88.6692877,116.83448 87,114.612181 87,112 C87,108.686292 89.6862915,106 93,106 Z M51,7.5 L51.000963,26.3032504 C52.793836,27.3408156 54,29.2795505 54,31.5 C54,34.8137085 51.3137085,37.5 48,37.5 C44.6862915,37.5 42,34.8137085 42,31.5 L42,31.5 L42.0041385,31.2750617 C42.0968171,28.7604661 43.7369512,26.6411384 46.0003218,25.8412977 L46.0003218,25.8412977 L46,12.5 L17,12.5 L17,7.5 L51,7.5 Z M123,11 L123,16 L96,16 L95.9999606,21.8026704 C97.7325697,22.8049131 98.9174904,24.6486639 98.9958615,26.7750617 L99,27 C99,30.3137085 96.3137085,33 93,33 C89.6862915,33 87,30.3137085 87,27 C87,24.3878187 88.6692877,22.1655203 90.9993141,21.3416539 L91,11 L123,11 Z M73.5,-3 L73.5004441,11.7360376 C75.2936033,12.6870714 76.5,14.4643916 76.5,16.5 C76.5,19.5375661 73.8137085,22 70.5,22 C67.1862915,22 64.5,19.5375661 64.5,16.5 C64.5,14.1050953 66.1698525,12.0677044 68.5004967,11.3127996 L68.5004967,11.3127996 L68.5,-3 L73.5,-3 Z" id="Combined-Shape" fill="#2167AE" mask="url(#mask-2)"></path>
            </g>
            <g id="Man" transform="translate(0.795455, 0.000000)">
                <mask id="mask-4" fill="white">
                    <use xlink:href="#path-3"></use>
                </mask>
                <g id="Mask"></g>
                <g mask="url(#mask-4)">
                    <g transform="translate(35.097675, 28.365909)">
                        <g id="head" stroke-width="1" fill="none" transform="translate(9.729976, 0.000000)">
                            <mask id="mask-6" fill="white">
                                <use xlink:href="#path-5"></use>
                            </mask>
                            <use id="Mask" fill="#DAD2BD" xlink:href="#path-5"></use>
                            <path d="M51.5070439,21.7419179 C47.4461511,15.0466655 35.0726378,9.67240492 35.0726378,9.67240492 C33.7503605,14.5753342 31.8610052,15.3301866 26.7609218,17.404225 C20.4742256,19.9613329 13.7262699,16.2728493 4.84838042,25.1369481 C4.0316797,25.9513941 0.125444506,21.4592997 0.503496442,21.3644916 L0.503496442,-4.51412606 L22.4874879,-13.5469628 L42.1062443,-7.55303926 L58.3383402,14.8424219 L51.5070439,21.7419179 Z" id="Stroke-35" fill="#23366F" mask="url(#mask-6)"></path>
                        </g>
                        <path d="M0,108.6093 L0.180632826,71.292562 C0.270949238,62.5556219 7.41780558,55.5445084 16.1465676,55.6349567 L33.6606534,55.8176805 L52.3616246,56.013195 C61.0876497,56.1036433 68.0894524,63.2636767 67.999136,72.0015305 L67.8258015,135.634091" id="Fill-24" fill="#23366F"></path>
                        <path d="M37.4665766,59.1969241 L44,68.6340913 L44,68.6340913 L26,68.6340913 L32.5334234,59.1969241 C33.4765214,57.8346715 35.3453773,57.4948795 36.7076299,58.4379775 C37.004178,58.64328 37.261274,58.9003761 37.4665766,59.1969241 Z" id="Triangle" fill="#5495CF" transform="translate(35.000000, 62.134091) rotate(180.000000) translate(-35.000000, -62.134091) "></path>
                        <path d="M35.9868746,70.6649915 L44,119.634091 L44,119.634091 L26,119.634091 L34.0131254,70.6649915 C34.1023131,70.1199558 34.6164528,69.7504179 35.1614886,69.8396055 C35.5853081,69.9089578 35.9175223,70.241172 35.9868746,70.6649915 Z" id="Triangle" fill="#5495CF" transform="translate(35.000000, 92.134091) scale(1, -1) rotate(180.000000) translate(-35.000000, -92.134091) "></path>
                    </g>
                </g>
            </g>
        </g>
    </g>
</svg>