<?xml version="1.0" encoding="UTF-8"?>
<svg width="140px" height="140px" viewBox="0 0 140 140" version="1.1" xmlns="http://www.w3.org/2000/svg" xmlns:xlink="http://www.w3.org/1999/xlink">
    <title>pictogram/more/engagement</title>
    <defs>
        <path d="M70,140 C31.34005,140 0,108.65995 0,70 C0,31.34005 31.34005,0 70,0 C108.65995,0 140,31.34005 140,70 C140,108.65995 108.65995,140 70,140 Z" id="path-1"></path>
    </defs>
    <g id="pictogram/more/engagement" stroke="none" stroke-width="1" fill="none" fill-rule="evenodd">
        <g>
            <g id="Man">
                <mask id="mask-2" fill="white">
                    <use xlink:href="#path-1"></use>
                </mask>
                <use id="Mask" fill="#91BFE3" xlink:href="#path-1"></use>
                <path d="M120,69.5 C120,80.2697391 111.269551,89 100.5,89 C89.7304489,89 81,80.2697391 81,69.5 C81,58.7302609 89.7304489,50 100.5,50 C111.269551,50 120,58.7302609 120,69.5" id="Fill-1" fill="#2167AE" mask="url(#mask-2)"></path>
                <path d="M132,145 L71,145 L71,121.743762 C71,105.316698 84.4267778,92 100.989294,92 L102.010706,92 C118.573222,92 132,105.316698 132,121.743762 L132,145 Z" id="Fill-3" fill="#2167AE" mask="url(#mask-2)"></path>
            </g>
            <g id="Group-2" transform="translate(21.000000, 23.000000)">
                <g id="Sprechblase" transform="translate(27.500000, 27.000000) scale(-1, 1) translate(-27.500000, -27.000000) ">
                    <path d="M43.4949167,46 L0,46 L0,13.4883683 C0,6.03892228 5.15097917,0 11.5050833,0 L43.4949167,0 C49.84925,0 55,6.03892228 55,13.4883683 L55,32.5116317 C55,39.9610777 49.84925,46 43.4949167,46" id="Fill-4" fill="#23366F"></path>
                    <ellipse id="Oval-Copy-5" fill="#DAD2BD" cx="26.3834423" cy="22.8928571" rx="16.3834423" ry="16.7142857"></ellipse>
                    <polygon id="Fill-6" fill="#23366F" points="0 54 10 46 0 46"></polygon>
                </g>
                <path d="M22.6613943,28.2642857 L22.6613943,18.4082857 L20.8833943,18.4082857 C20.7153943,18.9309524 20.4073943,19.3649524 19.9593943,19.7102857 C19.5113943,20.055619 18.9933943,20.2469524 18.4053943,20.2842857 L18.4053943,20.2842857 L18.4053943,22.0902857 C18.7973943,22.0809524 19.1823943,22.0179524 19.5603943,21.9012857 C19.9383943,21.784619 20.2907277,21.6189524 20.6173943,21.4042857 L20.6173943,21.4042857 L20.6173943,28.2642857 L22.6613943,28.2642857 Z M25.4333943,28.3762857 C25.760061,28.3762857 26.0423943,28.2549524 26.2803943,28.0122857 C26.5183943,27.769619 26.6373943,27.4709524 26.6373943,27.1162857 C26.6373943,26.789619 26.5183943,26.5072857 26.2803943,26.2692857 C26.0423943,26.0312857 25.760061,25.9122857 25.4333943,25.9122857 C25.0787277,25.9122857 24.780061,26.0312857 24.5373943,26.2692857 C24.2947277,26.5072857 24.1733943,26.789619 24.1733943,27.1162857 C24.1733943,27.4709524 24.2947277,27.769619 24.5373943,28.0122857 C24.780061,28.2549524 25.0787277,28.3762857 25.4333943,28.3762857 Z M31.3553943,28.4882857 C32.0927277,28.4882857 32.7413943,28.3412857 33.3013943,28.0472857 C33.8613943,27.7532857 34.293061,27.3449524 34.5963943,26.8222857 C34.8997277,26.299619 35.0513943,25.7069524 35.0513943,25.0442857 C35.0513943,24.3909524 34.9207277,23.8169524 34.6593943,23.3222857 C34.398061,22.827619 34.0317277,22.4449524 33.5603943,22.1742857 C33.089061,21.903619 32.5453943,21.7682857 31.9293943,21.7682857 C31.5467277,21.7682857 31.2037277,21.805619 30.9003943,21.8802857 C30.597061,21.9549524 30.324061,22.0669524 30.0813943,22.2162857 L30.0813943,22.2162857 L30.3613943,20.2142857 L34.6313943,20.2142857 L34.6313943,18.4082857 L28.5553943,18.4082857 L27.8413943,24.1482857 L29.8293943,24.1482857 C29.9693943,23.9522857 30.170061,23.772619 30.4313943,23.6092857 C30.6927277,23.4459524 31.0007277,23.3642857 31.3553943,23.3642857 C31.8313943,23.3642857 32.2163943,23.5089524 32.5103943,23.7982857 C32.8043943,24.087619 32.9513943,24.4842857 32.9513943,24.9882857 C32.9513943,25.501619 32.8043943,25.9052857 32.5103943,26.1992857 C32.2163943,26.4932857 31.8313943,26.6402857 31.3553943,26.6402857 C30.9353943,26.6402857 30.5807277,26.530619 30.2913943,26.3112857 C30.002061,26.0919524 29.8247277,25.795619 29.7593943,25.4222857 L29.7593943,25.4222857 L27.5753943,25.4222857 C27.6127277,25.9542857 27.7877277,26.453619 28.1003943,26.9202857 C28.413061,27.3869524 28.847061,27.7649524 29.4023943,28.0542857 C29.9577277,28.343619 30.6087277,28.4882857 31.3553943,28.4882857 Z M38.4393943,22.7342857 C38.8593943,22.7342857 39.2373943,22.6339524 39.5733943,22.4332857 C39.9093943,22.232619 40.1777277,21.9619524 40.3783943,21.6212857 C40.579061,21.280619 40.6793943,20.9049524 40.6793943,20.4942857 C40.6793943,20.083619 40.579061,19.7102857 40.3783943,19.3742857 C40.1777277,19.0382857 39.9093943,18.7699524 39.5733943,18.5692857 C39.2373943,18.368619 38.8593943,18.2682857 38.4393943,18.2682857 C38.0193943,18.2682857 37.6413943,18.368619 37.3053943,18.5692857 C36.9693943,18.7699524 36.701061,19.0382857 36.5003943,19.3742857 C36.2997277,19.7102857 36.1993943,20.083619 36.1993943,20.4942857 C36.1993943,20.9049524 36.2997277,21.280619 36.5003943,21.6212857 C36.701061,21.9619524 36.9693943,22.232619 37.3053943,22.4332857 C37.6413943,22.6339524 38.0193943,22.7342857 38.4393943,22.7342857 Z M38.4393943,21.5722857 C38.1407277,21.5722857 37.8887277,21.4672857 37.6833943,21.2572857 C37.478061,21.0472857 37.3753943,20.7929524 37.3753943,20.4942857 C37.3753943,20.195619 37.478061,19.943619 37.6833943,19.7382857 C37.8887277,19.5329524 38.1407277,19.4302857 38.4393943,19.4302857 C38.738061,19.4302857 38.9923943,19.5329524 39.2023943,19.7382857 C39.4123943,19.943619 39.5173943,20.195619 39.5173943,20.4942857 C39.5173943,20.7929524 39.4123943,21.0472857 39.2023943,21.2572857 C38.9923943,21.4672857 38.738061,21.5722857 38.4393943,21.5722857 Z" id="1.5°" fill="#23366F" fill-rule="nonzero"></path>
            </g>
        </g>
    </g>
</svg>