<?xml version="1.0" encoding="UTF-8"?>
<svg width="140px" height="140px" viewBox="0 0 140 140" version="1.1" xmlns="http://www.w3.org/2000/svg" xmlns:xlink="http://www.w3.org/1999/xlink">
    <title>pictogram/finance-and-data/financial-reports</title>
    <g id="pictogram/finance-and-data/financial-reports" stroke="none" stroke-width="1" fill="none" fill-rule="evenodd">
        <g>
            <path d="M140,70 C140,108.65995 108.65995,140 70,140 C31.34005,140 0,108.65995 0,70 C0,31.34005 31.34005,0 70,0 C108.65995,0 140,31.34005 140,70" id="Fill-32" fill="#91BFE3"></path>
            <path d="M113.75,94.97271 L26.25,94.97271 C25.28365,94.97271 24.5,94.18906 24.5,93.22271 L24.5,37.22271 C24.5,36.25601 25.28365,35.47271 26.25,35.47271 L113.75,35.47271 C114.71635,35.47271 115.5,36.25601 115.5,37.22271 L115.5,93.22271 C115.5,94.18906 114.71635,94.97271 113.75,94.97271" id="Fill-33" fill="#2167AE"></path>
            <path d="M113.75,105 L26.25,105 C25.28365,105 24.5,104.2167 24.5,103.25 L24.5,100.22285 C24.5,99.25615 25.28365,98.47285 26.25,98.47285 L113.75,98.47285 C114.71635,98.47285 115.5,99.25615 115.5,100.22285 L115.5,103.25 C115.5,104.2167 114.71635,105 113.75,105" id="Fill-34" fill="#23366F"></path>
            <path d="M35.756735,116.681915 L41.432335,100.127965 C41.745935,99.213765 42.741335,98.726565 43.655185,99.040165 C44.569735,99.353415 45.056585,100.348815 44.743335,101.263015 L39.067385,117.816965 C38.754135,118.731165 37.758735,119.218365 36.844535,118.905115 C35.930335,118.591515 35.443135,117.596115 35.756735,116.681915" id="Fill-35" fill="#23366F"></path>
            <path d="M104.243265,116.681915 L98.567665,100.127965 C98.254065,99.213765 97.258665,98.726565 96.344815,99.040165 C95.430265,99.353415 94.943415,100.348815 95.256665,101.263015 L100.932615,117.816965 C101.245865,118.731165 102.241265,119.218365 103.155465,118.905115 C104.069665,118.591515 104.556865,117.596115 104.243265,116.681915" id="Fill-36" fill="#23366F"></path>
            <polyline id="Stroke-37" stroke="#DAD2BD" stroke-width="3.5" stroke-linecap="round" stroke-linejoin="round" points="101.5 50.75 77 75.25 59.5 57.75 36.75 80.5"></polyline>
            <polyline id="Stroke-38" stroke="#DAD2BD" stroke-width="3.5" stroke-linecap="round" stroke-linejoin="round" points="91 50.75 101.5 50.75 101.5 61.25"></polyline>
        </g>
    </g>
</svg>