<?xml version="1.0" encoding="UTF-8"?>
<svg width="140px" height="140px" viewBox="0 0 140 140" version="1.1" xmlns="http://www.w3.org/2000/svg" xmlns:xlink="http://www.w3.org/1999/xlink">
    <title>pictogram/finance-and-data/financial-results</title>
    <g id="pictogram/finance-and-data/financial-results" stroke="none" stroke-width="1" fill="none" fill-rule="evenodd">
        <g>
            <rect id="Rectangle" fill="#5495CF" x="0" y="0" width="140" height="140" rx="70"></rect>
            <g id="Group-26" transform="translate(25.000000, 28.700000)">
                <rect id="Rectangle" fill="#DAD2BD" x="0" y="21.3" width="39" height="10" rx="5"></rect>
                <rect id="Rectangle-Copy" fill="#DAD2BD" x="4" y="33.3" width="39" height="10" rx="5"></rect>
                <rect id="Rectangle-Copy-2" fill="#DAD2BD" x="0" y="45.3" width="52" height="10" rx="5"></rect>
                <rect id="Rectangle-Copy-3" fill="#DAD2BD" x="0" y="57.3" width="56" height="10" rx="5"></rect>
                <rect id="Rectangle-Copy-4" fill="#DAD2BD" x="9" y="69.3" width="52" height="10" rx="5"></rect>
                <path d="M57.1698775,-2.81410643 C57.7495852,-2.16373976 58.2066667,-1.69529666 58.4847269,-1.41918988 C60.5077016,0.589572819 72.7776151,12.001952 91.1316976,11.129928 L91.1316976,11.129928 L91.2,38.8796586 C91.2,56.9472056 65.8068351,78.4666524 59.7124755,83.371147 L59.3273808,83.6795624 C58.7371471,84.1498925 58.4092395,84.3997807 58.4092395,84.3997807 C58.4092395,84.3997807 58.4073834,84.4011951 58.4036906,84.4040004 L58.3596476,84.4373316 C58.2281,84.5366143 57.8376409,84.8293423 57.2217425,85.274556 C56.602086,84.8360084 56.2089897,84.5477986 56.0765374,84.4500566 L56.0321893,84.4172437 L56.0321893,84.4172437 C56.0266015,84.4130898 22.4621185,59.4110069 22.4621244,38.8844825 L22.4621244,38.8844825 L22.3950206,11.0633881 C39.8783095,12.154746 55.7744512,-1.51896447 55.7744512,-1.51896447 C55.7744512,-1.51896447 56.2999755,-1.97101555 57.1698775,-2.81410643 Z" id="Stroke-23" stroke="#5495CF" stroke-width="4" fill="#23366F" stroke-linecap="square"></path>
                <path d="M59.852,54.128 L59.852,50.916 C62.0226667,50.7106667 63.944,50.1826667 65.616,49.332 C67.288,48.4813333 68.5933333,47.352 69.532,45.944 C70.4706667,44.536 70.94,42.908 70.94,41.06 C70.94,39.0653333 70.5,37.4373333 69.62,36.176 C68.74,34.9146667 67.508,33.932 65.924,33.228 C64.34,32.524 62.316,31.908 59.852,31.38 L59.852,31.38 L59.852,24.516 C60.82,24.8093333 61.5826667,25.2786667 62.14,25.924 C62.6973333,26.5693333 63.0493333,27.3906667 63.196,28.388 L63.196,28.388 L70.104,28.388 C69.8986667,25.748 68.9086667,23.5626667 67.134,21.832 C65.3593333,20.1013333 62.932,19.06 59.852,18.708 L59.852,18.708 L59.852,15.848 L55.584,15.848 L55.584,18.752 C52.504,19.0746667 50.062,20.0573333 48.258,21.7 C46.454,23.3426667 45.552,25.4986667 45.552,28.168 C45.552,29.9573333 45.9626667,31.4386667 46.784,32.612 C47.6053333,33.7853333 48.7273333,34.724 50.15,35.428 C51.5726667,36.132 53.384,36.748 55.584,37.276 L55.584,37.276 L55.584,44.976 C54.792,44.7706667 54.1173333,44.4553333 53.56,44.03 C53.0026667,43.6046667 52.5553333,43.0693333 52.218,42.424 C51.8806667,41.7786667 51.6533333,41.0453333 51.536,40.224 L51.536,40.224 L44.452,40.224 L44.452,40.224 L44.452,40.312 C44.5693333,42.248 45.09,43.964 46.014,45.46 C46.938,46.956 48.2066667,48.166 49.82,49.09 C51.4333333,50.014 53.3546667,50.608 55.584,50.872 L55.584,50.872 L55.584,54.128 L59.852,54.128 Z M55.584,30.368 C54.4986667,30.0453333 53.714,29.6786667 53.23,29.268 C52.746,28.8573333 52.504,28.3 52.504,27.596 C52.504,26.8626667 52.7753333,26.2173333 53.318,25.66 C53.8606667,25.1026667 54.616,24.7066667 55.584,24.472 L55.584,24.472 L55.584,30.368 Z M59.852,45.152 L59.852,38.156 C60.8493333,38.42 61.634,38.684 62.206,38.948 C62.778,39.212 63.2106667,39.542 63.504,39.938 C63.7973333,40.334 63.944,40.8253333 63.944,41.412 C63.944,42.4093333 63.57,43.2306667 62.822,43.876 C62.074,44.5213333 61.084,44.9466667 59.852,45.152 L59.852,45.152 Z" id="$" fill="#1FB1E6" fill-rule="nonzero"></path>
            </g>
        </g>
    </g>
</svg>