<?xml version="1.0" encoding="UTF-8"?>
<svg width="140px" height="140px" viewBox="0 0 140 140" version="1.1" xmlns="http://www.w3.org/2000/svg" xmlns:xlink="http://www.w3.org/1999/xlink">
    <title>pictogram/industry-and-company-and-business/gearwheel</title>
    <defs>
        <polygon id="path-1" points="0 0 14.8 0 14.8 22.199926 0 22.199926"></polygon>
    </defs>
    <g id="pictogram/industry-and-company-and-business/gearwheel" stroke="none" stroke-width="1" fill="none" fill-rule="evenodd">
        <g>
            <path d="M140,70 C140,108.65995 108.65995,140 70,140 C31.34005,140 0,108.65995 0,70 C0,31.34005 31.34005,0 70,0 C108.65995,0 140,31.34005 140,70" id="bg" fill="#5495CF"></path>
            <g id="gearwheel" transform="translate(16.000000, 50.000074)">
                <path d="M64.1333333,37 C64.1333333,51.9852467 51.9852467,64.1333333 37,64.1333333 C22.0147533,64.1333333 9.86666667,51.9852467 9.86666667,37 C9.86666667,22.0145067 22.0147533,9.86666667 37,9.86666667 C51.9852467,9.86666667 64.1333333,22.0145067 64.1333333,37" id="Fill-1" fill="#23366F"></path>
                <path d="M46.8666667,37 C46.8666667,42.4491133 42.4491133,46.8666667 37,46.8666667 C31.5508867,46.8666667 27.1333333,42.4491133 27.1333333,37 C27.1333333,31.55064 31.5508867,27.1333333 37,27.1333333 C42.4491133,27.1333333 46.8666667,31.55064 46.8666667,37" id="Fill-3" fill="#5495CF"></path>
                <path d="M37,22.2 L37,22.2 C32.9132267,22.2 29.6,18.8867733 29.6,14.8 L29.6,7.4 C29.6,3.31298 32.9132267,0 37,0 C41.0867733,0 44.4,3.31298 44.4,7.4 L44.4,14.8 C44.4,18.8867733 41.0867733,22.2 37,22.2" id="Fill-5" fill="#23366F"></path>
                <path d="M47.465154,26.5347473 L47.465154,26.5347473 C44.5752073,23.6448007 44.5752073,18.9593673 47.465154,16.0694207 L52.697694,10.8368807 C55.5876407,7.94718067 60.273074,7.94718067 63.1630207,10.8368807 C66.0527207,13.7268273 66.0527207,18.4122607 63.1630207,21.3022073 L57.9304807,26.5347473 C55.040534,29.424694 50.3551007,29.424694 47.465154,26.5347473" id="Fill-7" fill="#23366F"></path>
                <path d="M51.8,37 L51.8,37 C51.8,32.91298 55.1132267,29.6 59.2,29.6 L66.6,29.6 C70.6867733,29.6 74,32.91298 74,37 C74,41.0867733 70.6867733,44.4 66.6,44.4 L59.2,44.4 C55.1132267,44.4 51.8,41.0867733 51.8,37" id="Fill-9" fill="#23366F"></path>
                <path d="M47.465154,47.4650307 L47.465154,47.4650307 C50.3551007,44.575084 55.040534,44.575084 57.9304807,47.4650307 L63.1630207,52.6978173 C66.0527207,55.587764 66.0527207,60.2729507 63.1630207,63.1628973 C60.273074,66.0525973 55.5876407,66.0525973 52.697694,63.1628973 L47.465154,57.9303573 C44.5752073,55.0404107 44.5752073,50.3549773 47.465154,47.4650307" id="Fill-11" fill="#23366F"></path>
                <g id="Group-15" transform="translate(29.600000, 51.800000)">
                    <mask id="mask-2" fill="white">
                        <use xlink:href="#path-1"></use>
                    </mask>
                    <g id="Clip-14"></g>
                    <path d="M7.4,0 L7.4,0 C11.4867733,0 14.8,3.31298 14.8,7.4 L14.8,14.8 C14.8,18.8867733 11.4867733,22.2 7.4,22.2 C3.31322667,22.2 0,18.8867733 0,14.8 L0,7.4 C0,3.31298 3.31322667,0 7.4,0" id="Fill-13" fill="#23366F" mask="url(#mask-2)"></path>
                </g>
                <path d="M26.534846,47.4650307 L26.534846,47.4650307 C29.4247927,50.3549773 29.4247927,55.0404107 26.534846,57.9303573 L21.302306,63.1628973 C18.4123593,66.0525973 13.726926,66.0525973 10.8369793,63.1628973 C7.94727933,60.2729507 7.94727933,55.587764 10.8369793,52.6978173 L16.0695193,47.4650307 C18.959466,44.575084 23.6448993,44.575084 26.534846,47.4650307" id="Fill-16" fill="#23366F"></path>
                <path d="M22.2,37 L22.2,37 C22.2,41.0867733 18.8867733,44.4 14.8,44.4 L7.4,44.4 C3.31322667,44.4 0,41.0867733 0,37 C0,32.91298 3.31322667,29.6 7.4,29.6 L14.8,29.6 C18.8867733,29.6 22.2,32.91298 22.2,37" id="Fill-18" fill="#23366F"></path>
                <path d="M26.534846,26.5347473 L26.534846,26.5347473 C23.6448993,29.424694 18.959466,29.424694 16.0695193,26.5347473 L10.8369793,21.3022073 C7.94727933,18.4122607 7.94727933,13.7268273 10.8369793,10.8368807 C13.726926,7.94718067 18.4123593,7.94718067 21.302306,10.8368807 L26.534846,16.0694207 C29.4247927,18.9593673 29.4247927,23.6448007 26.534846,26.5347473" id="Fill-20" fill="#23366F"></path>
            </g>
            <g id="gearwheel-2" transform="translate(94.999981, 45.000046) rotate(22.000000) translate(-94.999981, -45.000046) translate(69.999981, 20.000046)">
                <path d="M43.3333333,25 C43.3333333,35.1251667 35.1251667,43.3333333 25,43.3333333 C14.8748333,43.3333333 6.66666667,35.1251667 6.66666667,25 C6.66666667,14.8746667 14.8748333,6.66666667 25,6.66666667 C35.1251667,6.66666667 43.3333333,14.8746667 43.3333333,25" id="Fill-1" fill="#DAD2BD"></path>
                <path d="M31.6666667,25 C31.6666667,28.6818333 28.6818333,31.6666667 25,31.6666667 C21.3181667,31.6666667 18.3333333,28.6818333 18.3333333,25 C18.3333333,21.318 21.3181667,18.3333333 25,18.3333333 C28.6818333,18.3333333 31.6666667,21.318 31.6666667,25" id="Fill-3" fill="#5495CF"></path>
                <path d="M25,15 L25,15 C22.2386667,15 20,12.7613333 20,10 L20,5 C20,2.2385 22.2386667,2.27373675e-13 25,2.27373675e-13 C27.7613333,2.27373675e-13 30,2.2385 30,5 L30,10 C30,12.7613333 27.7613333,15 25,15" id="Fill-5" fill="#DAD2BD"></path>
                <path d="M32.07105,17.9288833 L32.07105,17.9288833 C30.1183833,15.9762167 30.1183833,12.8103833 32.07105,10.8577167 L35.60655,7.32221667 C37.5592167,5.36971667 40.72505,5.36971667 42.6777167,7.32221667 C44.6302167,9.27488333 44.6302167,12.4407167 42.6777167,14.3933833 L39.1422167,17.9288833 C37.18955,19.88155 34.0237167,19.88155 32.07105,17.9288833" id="Fill-7" fill="#DAD2BD"></path>
                <path d="M35,25 L35,25 C35,22.2385 37.2386667,20 40,20 L45,20 C47.7613333,20 50,22.2385 50,25 C50,27.7613333 47.7613333,30 45,30 L40,30 C37.2386667,30 35,27.7613333 35,25" id="Fill-9" fill="#DAD2BD"></path>
                <path d="M32.07105,32.0709667 L32.07105,32.0709667 C34.0237167,30.1183 37.18955,30.1183 39.1422167,32.0709667 L42.6777167,35.6066333 C44.6302167,37.5593 44.6302167,40.7249667 42.6777167,42.6776333 C40.72505,44.6301333 37.5592167,44.6301333 35.60655,42.6776333 L32.07105,39.1421333 C30.1183833,37.1894667 30.1183833,34.0236333 32.07105,32.0709667" id="Fill-11" fill="#DAD2BD"></path>
                <path d="M25,35 L25,35 C27.7613333,35 30,37.2385 30,40 L30,45 C30,47.7613333 27.7613333,50 25,50 C22.2386667,50 20,47.7613333 20,45 L20,40 C20,37.2385 22.2386667,35 25,35" id="Fill-13" fill="#DAD2BD"></path>
                <path d="M17.92895,32.0709667 L17.92895,32.0709667 C19.8816167,34.0236333 19.8816167,37.1894667 17.92895,39.1421333 L14.39345,42.6776333 C12.4407833,44.6301333 9.27495,44.6301333 7.32228333,42.6776333 C5.36978333,40.7249667 5.36978333,37.5593 7.32228333,35.6066333 L10.8577833,32.0709667 C12.81045,30.1183 15.9762833,30.1183 17.92895,32.0709667" id="Fill-16" fill="#DAD2BD"></path>
                <path d="M15,25 L15,25 C15,27.7613333 12.7613333,30 10,30 L5,30 C2.23866667,30 0,27.7613333 0,25 C0,22.2385 2.23866667,20 5,20 L10,20 C12.7613333,20 15,22.2385 15,25" id="Fill-18" fill="#DAD2BD"></path>
                <path d="M17.92895,17.9288833 L17.92895,17.9288833 C15.9762833,19.88155 12.81045,19.88155 10.8577833,17.9288833 L7.32228333,14.3933833 C5.36978333,12.4407167 5.36978333,9.27488333 7.32228333,7.32221667 C9.27495,5.36971667 12.4407833,5.36971667 14.39345,7.32221667 L17.92895,10.8577167 C19.8816167,12.8103833 19.8816167,15.9762167 17.92895,17.9288833" id="Fill-20" fill="#DAD2BD"></path>
            </g>
        </g>
    </g>
</svg>