<?xml version="1.0" encoding="UTF-8"?>
<svg width="140px" height="140px" viewBox="0 0 140 140" version="1.1" xmlns="http://www.w3.org/2000/svg" xmlns:xlink="http://www.w3.org/1999/xlink">
    <title>pictogram/more/gift</title>
    <g id="pictogram/more/gift" stroke="none" stroke-width="1" fill="none" fill-rule="evenodd">
        <g>
            <path d="M140,70 C140,108.65995 108.65995,140 70,140 C31.34005,140 0,108.65995 0,70 C0,31.34005 31.34005,0 70,0 C108.65995,0 140,31.34005 140,70" id="Mask" fill="#91BFE3"></path>
            <path d="M42.975522,34.989131 C47.3916995,34.7870787 56.8147848,35.1329076 62.643523,40.9760081 C68.4999958,46.8469115 68.9700311,56.4716612 68.8313081,60.9770083 C68.4964473,60.988287 68.1327533,60.9962837 67.7439566,60.9989814 C62.5570173,60.9793755 54.388783,60.2627697 49.1625807,55.0240032 C43.2915176,49.1385718 42.8335136,39.4809426 42.975522,34.989131 Z" id="Combined-Shape" stroke="#DAD2BD" stroke-width="6"></path>
            <path d="M71.475522,34.989131 C75.8916995,34.7870787 85.3147848,35.1329076 91.143523,40.9760081 C96.9999958,46.8469115 97.4700311,56.4716612 97.331308,60.9770083 C96.9964472,60.988287 96.6327532,60.9962837 96.2439566,60.9989814 C91.0570173,60.9793755 82.888783,60.2627697 77.6625807,55.0240032 C71.7915176,49.1385718 71.3335136,39.4809426 71.475522,34.989131 Z" id="Combined-Shape" stroke="#DAD2BD" stroke-width="6" transform="translate(84.402901, 47.999910) scale(-1, 1) translate(-84.402901, -47.999910) "></path>
            <path d="M28,87.9473684 L66.062,87.947 L66.0625,109 L30,109 C28.8954305,109 28,108.104569 28,107 L28,87.9473684 Z M112,87.9473684 L112,107 C112,108.104569 111.104569,109 110,109 L73.9375,109 L73.937,87.947 L112,87.9473684 Z M110,59 C111.104569,59 112,59.8954305 112,61 L112,80.0526316 L73.937,80.052 L73.9375,59 L110,59 Z M66.062,80.052 L28,80.0526316 L28,61 C28,59.8954305 28.8954305,59 30,59 L66.0625,59 L66.062,80.052 Z" id="Combined-Shape" fill="#23366F"></path>
            <rect id="Rectangle" fill="#91BFE3" x="66" y="59" width="8" height="50"></rect>
        </g>
    </g>
</svg>