<?xml version="1.0" encoding="UTF-8"?>
<svg width="140px" height="140px" viewBox="0 0 140 140" version="1.1" xmlns="http://www.w3.org/2000/svg" xmlns:xlink="http://www.w3.org/1999/xlink">
    <title>pictogram/digital-security/global-data-2</title>
    <g id="pictogram/digital-security/global-data-2" stroke="none" stroke-width="1" fill="none" fill-rule="evenodd">
        <g>
            <path d="M70,140 C31.34005,140 0,108.65995 0,70 C0,31.34005 31.34005,0 70,0 C108.65995,0 140,31.34005 140,70 C140,108.65995 108.65995,140 70,140 Z" id="Mask" fill="#91BFE3"></path>
            <path d="M70,22 C43.2932331,22 22,43.2932331 22,70 C22,96.7067669 43.6541353,118 70,118 C96.3458647,118 118,96.3458647 118,70 C118,43.6541353 96.7067669,22 70,22 Z M73,93 C78.3571429,93.3653846 83.3571429,94.4615385 88,96.6538462 C84.7857143,102.5 80.1428571,107.980769 73,112 L73,93 Z M73,47 L73,28 C79.7857143,31.2264151 84.7857143,36.9622642 88,43.4150943 C83.3571429,45.5660377 78,46.6415094 73,47 Z M82,29 C88.0444444,30.8055556 93.3777778,33.6944444 98,37.6666667 C95.8666667,39.4722222 93.7333333,40.9166667 91.6,42 C89.4666667,36.9444444 85.9111111,32.6111111 82,29 Z M68,28 L68,47 C62.4186047,46.6481481 56.8372093,45.5925926 52,43.4814815 C55.3488372,36.7962963 60.5581395,31.1666667 68,28 Z M48.1818182,42 C46,40.5555556 44.1818182,39.1111111 42,37.6666667 C46.7272727,33.6944444 51.8181818,30.8055556 58,29 C54,32.6111111 50.7272727,36.9444444 48.1818182,42 L48.1818182,42 Z M68,93 L68,112 C60.5581395,108.056604 55.3488372,102.679245 52,96.9433962 C56.8372093,94.4339623 62.4186047,93 68,93 L68,93 Z M61,113 C53.5925926,111.6 46.5555556,108.1 41,103.55 C43.2222222,101.8 45.4444444,100.4 47.6666667,99 C51,104.6 55.4444444,109.15 61,113 Z M92.0909091,98 C94.6363636,99.4 96.8181818,100.8 99,102.55 C93.5454545,107.1 86.6363636,110.6 79,112 C84.4545455,108.5 88.8181818,103.95 92.0909091,98 Z M94,94.1265823 C96.962963,87.5189873 98.4444444,79.8101266 98.4444444,71 L114,71 C113.62963,82.0126582 109.185185,92.2911392 102.148148,100 C99.5555556,97.4303797 96.962963,95.5949367 94,94.1265823 Z M98.4444444,67 C98.0740741,60.2328767 96.5925926,53.109589 94,46.3424658 C96.962963,44.9178082 99.5555556,43.1369863 101.777778,41 C108.444444,47.7671233 113.259259,57.0273973 114,67 L98.4444444,67 L98.4444444,67 Z M38.2222222,41 C40.4444444,43.1369863 43.037037,44.9178082 46,46.3424658 C43.037037,52.7534247 41.9259259,59.8767123 41.5555556,67 L26,67 C26.7407407,57.0273973 31.5555556,47.7671233 38.2222222,41 Z M41.5555556,71 C41.5555556,79.8101266 43.4074074,87.5189873 46,94.1265823 C43.037037,95.5949367 40.4444444,97.7974684 37.8518519,100 C30.4444444,92.2911392 26,82.0126582 26,71 L41.5555556,71 Z" id="Shape" fill="#23366F" fill-rule="nonzero"></path>
            <g id="Schloss" transform="translate(54.999961, 54.000039)">
                <path d="M29.6562792,32.2916667 L1.34385,32.2916667 C0.601658333,32.2916667 2.84217094e-14,31.6900083 2.84217094e-14,30.9478167 L2.84217094e-14,12.9687208 C2.84217094e-14,12.2265292 0.601658333,11.625 1.34385,11.625 L29.6562792,11.625 C30.3984708,11.625 31,12.2265292 31,12.9687208 L31,30.9478167 C31,31.6900083 30.3984708,32.2916667 29.6562792,32.2916667" id="Fill-4" fill="#DAD2BD"></path>
                <path d="M6.45837208,10.3333333 L6.45837208,9.04166667 C6.45837208,4.04808333 10.5064554,0 15.5000388,0 C20.4936221,0 24.5417054,4.04808333 24.5417054,9.04166667 L24.5417054,10.3333333" id="Stroke-6" stroke="#DAD2BD" stroke-width="5.16666667"></path>
                <path d="M18.0833721,20.6666667 C18.0833721,19.2398917 16.9268138,18.0833333 15.5000388,18.0833333 C14.0733929,18.0833333 12.9167054,19.2398917 12.9167054,20.6666667 C12.9167054,21.6222417 13.4369888,22.4547208 14.2083721,22.9016375 L14.2083721,25.8333333 L16.7917054,25.8333333 L16.7917054,22.9016375 C17.5630888,22.4547208 18.0833721,21.6222417 18.0833721,20.6666667" id="Fill-8" fill="#23366F"></path>
            </g>
            <circle id="Oval" stroke="#23366F" stroke-width="3" fill="#91BFE3" cx="44" cy="82" r="6.5"></circle>
            <circle id="Oval-Copy" stroke="#23366F" stroke-width="3" fill="#91BFE3" cx="91" cy="46" r="6.5"></circle>
            <circle id="Oval" stroke="#23366F" stroke-width="6.8" cx="70" cy="70" r="46.6"></circle>
            <circle id="Oval-Copy-4" stroke="#23366F" stroke-width="3" fill="#91BFE3" cx="36" cy="38" r="6.5"></circle>
            <circle id="Oval-Copy-2" stroke="#23366F" stroke-width="3" fill="#91BFE3" cx="91" cy="98" r="6.5"></circle>
            <circle id="Oval-Copy-3" stroke="#23366F" stroke-width="3" fill="#91BFE3" cx="118" cy="70" r="6.5"></circle>
        </g>
    </g>
</svg>