<?xml version="1.0" encoding="UTF-8"?>
<svg width="140px" height="140px" viewBox="0 0 140 140" version="1.1" xmlns="http://www.w3.org/2000/svg" xmlns:xlink="http://www.w3.org/1999/xlink">
    <title>pictogram/earth-and-nature/global-warming</title>
    <g id="pictogram/earth-and-nature/global-warming" stroke="none" stroke-width="1" fill="none" fill-rule="evenodd">
        <g>
            <path d="M140,70 C140,108.65995 108.65995,140 70,140 C31.34005,140 0,108.65995 0,70 C0,31.34005 31.34005,0 70,0 C108.65995,0 140,31.34005 140,70" id="Mask" fill="#91BFE3"></path>
            <g id="globe" transform="translate(20.000000, 20.000000)">
                <circle id="Oval" stroke="#23366F" stroke-width="6.8" cx="50" cy="50" r="46.6"></circle>
                <path d="M50,2 C23.2932331,2 2,23.2932331 2,50 C2,76.7067669 23.6541353,98 50,98 C76.3458647,98 98,76.3458647 98,50 C98,23.6541353 76.7067669,2 50,2 Z M53,73 C58.3571429,73.3653846 63.3571429,74.4615385 68,76.6538462 C64.7857143,82.5 60.1428571,87.9807692 53,92 L53,73 Z M53,67.9473684 L53,51 L74,51 C74,57.6315789 72.9137931,65 70.0172414,72 C64.5862069,69.4210526 58.7931034,67.9473684 53,67.9473684 Z M53,47 L53,32.0192308 C59.1551724,31.6538462 64.9482759,30.1923077 70.3793103,28 C72.5517241,34.2115385 74,40.7884615 74,47 L53,47 Z M53,27 L53,8 C59.7857143,11.2264151 64.7857143,16.9622642 68,23.4150943 C63.3571429,25.5660377 58,26.6415094 53,27 Z M62,9 C68.0444444,10.8055556 73.3777778,13.6944444 78,17.6666667 C75.8666667,19.4722222 73.7333333,20.9166667 71.6,22 C69.4666667,16.9444444 65.9111111,12.6111111 62,9 Z M48,8 L48,27 C42.4186047,26.6481481 36.8372093,25.5925926 32,23.4814815 C35.3488372,16.7962963 40.5581395,11.1666667 48,8 Z M28.1818182,22 C26,20.5555556 24.1818182,19.1111111 22,17.6666667 C26.7272727,13.6944444 31.8181818,10.8055556 38,9 C34,12.6111111 30.7272727,16.9444444 28.1818182,22 L28.1818182,22 Z M48,32.0192308 L48,47 L27,47 C27.3559322,40.7884615 28.4237288,33.8461538 30.9152542,28 C35.8983051,30.1923077 41.9491525,31.6538462 48,32.0192308 L48,32.0192308 Z M48,51 L48,67.6551724 C41.9491525,68.0172414 36.2542373,69.4655172 30.9152542,72 C28.0677966,65.1206897 27,57.8793103 27,51.362069 L48,51.362069 L48,51 Z M48,73 L48,92 C40.5581395,88.0566038 35.3488372,82.6792453 32,76.9433962 C36.8372093,74.4339623 42.4186047,73 48,73 L48,73 Z M41,93 C33.5925926,91.6 26.5555556,88.1 21,83.55 C23.2222222,81.8 25.4444444,80.4 27.6666667,79 C31,84.6 35.4444444,89.15 41,93 Z M72.0909091,78 C74.6363636,79.4 76.8181818,80.8 79,82.55 C73.5454545,87.1 66.6363636,90.6 59,92 C64.4545455,88.5 68.8181818,83.95 72.0909091,78 Z M74,74.1265823 C76.962963,67.5189873 78.4444444,59.8101266 78.4444444,51 L94,51 C93.6296296,62.0126582 89.1851852,72.2911392 82.1481481,80 C79.5555556,77.4303797 76.962963,75.5949367 74,74.1265823 Z M78.4444444,47 C78.0740741,40.2328767 76.5925926,33.109589 74,26.3424658 C76.962963,24.9178082 79.5555556,23.1369863 81.7777778,21 C88.4444444,27.7671233 93.2592593,37.0273973 94,47 L78.4444444,47 L78.4444444,47 Z M18.2222222,21 C20.4444444,23.1369863 23.037037,24.9178082 26,26.3424658 C23.037037,32.7534247 21.9259259,39.8767123 21.5555556,47 L6,47 C6.74074074,37.0273973 11.5555556,27.7671233 18.2222222,21 Z M6,51 L21.5555556,51 C21.5555556,59.8101266 23.4074074,67.5189873 26,74.1265823 C23.037037,75.5949367 20.4444444,77.7974684 17.8518519,80 C10.4444444,72.2911392 6,62.0126582 6,51 L6,51 Z" id="Shape" fill="#23366F" fill-rule="nonzero"></path>
            </g>
            <g id="Thermometer" transform="translate(77.552721, 42.000000)">
                <path d="M19.4097222,-3.19744231e-13 C24.4414151,-3.20668538e-13 28.5204082,4.07899304 28.5204082,9.11068594 L28.5204082,42.5594203 C28.5204082,43.0251247 28.4854664,43.482668 28.4180614,43.9295716 C34.1573423,47.212169 38.0272109,53.409443 38.0272109,60.5136437 C38.0272109,71.0502387 29.5145298,79.5918367 19.0136054,79.5918367 C8.51268112,79.5918367 0,71.0502387 0,60.5136437 C0,53.1081216 4.20510793,46.6880914 10.3501096,43.526462 C10.316238,43.2089137 10.2990363,42.8861758 10.2990363,42.5594203 L10.2990363,9.11068594 C10.2990363,4.07899304 14.3780293,-3.18819924e-13 19.4097222,-3.19744231e-13 Z" id="Combined-Shape" fill="#23366F"></path>
                <path d="M18.9344182,13.4476185 C20.2531389,13.4476185 21.3221733,14.5166529 21.3221733,15.8353736 L21.3221733,51.6517001 C21.3221733,51.8165402 21.3054697,51.977479 21.2736626,52.1329161 L21.3968064,52.1699725 C25.1210745,53.3520103 27.816945,56.8082038 27.816945,60.8877551 C27.816945,65.9428512 23.6775863,70.0408163 18.5714286,70.0408163 C13.4652709,70.0408163 9.32591218,65.9428512 9.32591218,60.8877551 C9.32591218,56.5143438 12.4241508,52.8573286 16.5662399,51.9505538 C16.5529789,51.8529476 16.5466631,51.7530614 16.5466631,51.6517001 L16.5466631,15.8353736 C16.5466631,14.5166529 17.6156975,13.4476185 18.9344182,13.4476185 Z" id="Combined-Shape" fill="#DAD2BD"></path>
                <path d="M12.6867914,16.3469388 L18.4929138,16.3469388 C19.1522742,16.3469388 19.6867914,16.881456 19.6867914,17.5408163 C19.6867914,18.2001767 19.1522742,18.7346939 18.4929138,18.7346939 L12.6867914,18.7346939 L12.6867914,18.7346939 L12.6867914,16.3469388 Z" id="Rectangle" fill="#23366F"></path>
                <path d="M12.6867914,27.4897959 L18.4929138,27.4897959 C19.1522742,27.4897959 19.6867914,28.0243131 19.6867914,28.6836735 C19.6867914,29.3430338 19.1522742,29.877551 18.4929138,29.877551 L12.6867914,29.877551 L12.6867914,29.877551 L12.6867914,27.4897959 Z" id="Rectangle-Copy-5" fill="#23366F"></path>
                <path d="M12.6867914,38.6326531 L18.4929138,38.6326531 C19.1522742,38.6326531 19.6867914,39.1671702 19.6867914,39.8265306 C19.6867914,40.485891 19.1522742,41.0204082 18.4929138,41.0204082 L12.6867914,41.0204082 L12.6867914,41.0204082 L12.6867914,38.6326531 Z" id="Rectangle-Copy-7" fill="#23366F"></path>
                <path d="M12.6867914,21.9183673 L15.9657893,21.9183673 L18.4929138,21.9183673 C19.1522742,21.9183673 19.6867914,22.4528845 19.6867914,23.1122449 C19.6867914,23.7716053 19.1522742,24.3061224 18.4929138,24.3061224 L12.6867914,24.3061224 L12.6867914,24.3061224 L12.6867914,21.9183673 Z" id="Rectangle-Copy-4" fill="#23366F"></path>
                <path d="M12.6867914,33.0612245 L15.9657893,33.0612245 L18.4929138,33.0612245 C19.1522742,33.0612245 19.6867914,33.5957417 19.6867914,34.255102 C19.6867914,34.9144624 19.1522742,35.4489796 18.4929138,35.4489796 L12.6867914,35.4489796 L12.6867914,35.4489796 L12.6867914,33.0612245 Z" id="Rectangle-Copy-6" fill="#23366F"></path>
            </g>
        </g>
    </g>
</svg>