<?xml version="1.0" encoding="UTF-8"?>
<svg width="140px" height="140px" viewBox="0 0 140 140" version="1.1" xmlns="http://www.w3.org/2000/svg" xmlns:xlink="http://www.w3.org/1999/xlink">
    <title>pictogram/finance-and-data/global-data</title>
    <g id="pictogram/finance-and-data/global-data" stroke="none" stroke-width="1" fill="none" fill-rule="evenodd">
        <g>
            <path d="M70,140 C31.34005,140 0,108.65995 0,70 C0,31.34005 31.34005,0 70,0 C108.65995,0 140,31.34005 140,70 C140,108.65995 108.65995,140 70,140 Z" id="Mask" fill="#5495CF"></path>
            <circle id="Oval" stroke="#23366F" stroke-width="6.8" fill="#23366F" cx="70" cy="70" r="46.6"></circle>
            <g id="Data" transform="translate(20.000000, 20.000000)">
                <path d="M50,0 C22.1804511,0 0,22.1804511 0,50 C0,77.8195489 22.556391,100 50,100 C77.443609,100 100,77.443609 100,50 C100,22.556391 77.8195489,0 50,0 Z M53.125,73.9583333 C58.7053571,74.3389423 63.9136905,75.4807692 68.75,77.7644231 C65.4017857,83.8541667 60.5654762,89.5633013 53.125,93.75 L53.125,73.9583333 Z M53.125,68.6951754 L53.125,51.0416667 L75,51.0416667 C75,57.9495614 73.8685345,65.625 70.8512931,72.9166667 C65.1939655,70.2302632 59.1594828,68.6951754 53.125,68.6951754 Z M53.125,46.875 L53.125,31.2700321 C59.5366379,30.8894231 65.5711207,29.3669872 71.2284483,27.0833333 C73.4913793,33.5536859 75,40.4046474 75,46.875 L53.125,46.875 Z M53.125,26.0416667 L53.125,6.25 C60.1934524,9.61084906 65.4017857,15.5856918 68.75,22.3073899 C63.9136905,24.547956 58.3333333,25.668239 53.125,26.0416667 Z M62.5,7.29166667 C68.7962963,9.1724537 74.3518519,12.181713 79.1666667,16.3194444 C76.9444444,18.2002315 74.7222222,19.7048611 72.5,20.8333333 C70.2777778,15.5671296 66.5740741,11.0532407 62.5,7.29166667 Z M47.9166667,6.25 L47.9166667,26.0416667 C42.1027132,25.6751543 36.2887597,24.5756173 31.25,22.3765432 C34.7383721,15.4128086 40.1647287,9.54861111 47.9166667,6.25 Z M27.2727273,20.8333333 C25,19.3287037 23.1060606,17.8240741 20.8333333,16.3194444 C25.7575758,12.181713 31.0606061,9.1724537 37.5,7.29166667 C33.3333333,11.0532407 29.9242424,15.5671296 27.2727273,20.8333333 L27.2727273,20.8333333 Z M47.9166667,31.2700321 L47.9166667,46.875 L26.0416667,46.875 C26.4124294,40.4046474 27.5247175,33.1730769 30.1200565,27.0833333 C35.3107345,29.3669872 41.6137006,30.8894231 47.9166667,31.2700321 L47.9166667,31.2700321 Z M47.9166667,51.0416667 L47.9166667,68.3908046 C41.6137006,68.7679598 35.6814972,70.2765805 30.1200565,72.9166667 C27.1539548,65.7507184 26.0416667,58.2076149 26.0416667,51.4188218 L47.9166667,51.4188218 L47.9166667,51.0416667 Z M47.9166667,73.9583333 L47.9166667,93.75 C40.1647287,89.6422956 34.7383721,84.0408805 31.25,78.0660377 C36.2887597,75.452044 42.1027132,73.9583333 47.9166667,73.9583333 L47.9166667,73.9583333 Z M40.625,94.7916667 C32.9089506,93.3333333 25.5787037,89.6875 19.7916667,84.9479167 C22.1064815,83.125 24.4212963,81.6666667 26.7361111,80.2083333 C30.2083333,86.0416667 34.837963,90.78125 40.625,94.7916667 Z M73.0113636,79.1666667 C75.6628788,80.625 77.9356061,82.0833333 80.2083333,83.90625 C74.5265152,88.6458333 67.3295455,92.2916667 59.375,93.75 C65.0568182,90.1041667 69.6022727,85.3645833 73.0113636,79.1666667 Z M75,75.1318565 C78.0864198,68.2489451 79.6296296,60.2188819 79.6296296,51.0416667 L95.8333333,51.0416667 C95.4475309,62.5131857 90.8179012,73.2199367 83.4876543,81.25 C80.787037,78.5733122 78.0864198,76.6613924 75,75.1318565 Z M79.6296296,46.875 C79.2438272,39.8259132 77.7006173,32.4058219 75,25.3567352 C78.0864198,23.8727169 80.787037,22.0176941 83.1018519,19.7916667 C90.0462963,26.8407534 95.0617284,36.4868721 95.8333333,46.875 L79.6296296,46.875 L79.6296296,46.875 Z M16.8981481,19.7916667 C19.212963,22.0176941 21.9135802,23.8727169 25,25.3567352 C21.9135802,32.0348174 20.7561728,39.4549087 20.3703704,46.875 L4.16666667,46.875 C4.9382716,36.4868721 9.9537037,26.8407534 16.8981481,19.7916667 Z M4.16666667,51.0416667 L20.3703704,51.0416667 C20.3703704,60.2188819 22.2993827,68.2489451 25,75.1318565 C21.9135802,76.6613924 19.212963,78.9556962 16.5123457,81.25 C8.7962963,73.2199367 4.16666667,62.5131857 4.16666667,51.0416667 L4.16666667,51.0416667 Z" id="Shape" fill="#2167AE" fill-rule="nonzero"></path>
                <polyline id="Stroke-5-Copy" stroke="#DAD2BD" stroke-width="5.83783784" stroke-linecap="round" stroke-linejoin="round" points="39.9189189 63.2147231 56.9877534 51.416065 66.1407306 60.728539 88.8108108 42"></polyline>
            </g>
            <g id="Balken-Copy" transform="translate(59.000000, 82.972973)" fill="#DDE4E3" fill-rule="nonzero">
                <rect id="Rectangle" x="0" y="11.6756757" width="14.5945946" height="29.9189189" rx="7.2972973"></rect>
                <rect id="Rectangle" x="19.7027027" y="16.0540541" width="14.5945946" height="25.5405405" rx="7.2972973"></rect>
                <rect id="Rectangle" x="39.4054054" y="0" width="14.5945946" height="41.5945946" rx="7.2972973"></rect>
            </g>
        </g>
    </g>
</svg>