<?xml version="1.0" encoding="UTF-8"?>
<svg width="140px" height="140px" viewBox="0 0 140 140" version="1.1" xmlns="http://www.w3.org/2000/svg" xmlns:xlink="http://www.w3.org/1999/xlink">
    <title>pictogram/more/guided-solution</title>
    <g id="pictogram/more/guided-solution" stroke="none" stroke-width="1" fill="none" fill-rule="evenodd">
        <g>
            <g id="Account-Customer">
                <path d="M140,70 C140,108.65995 108.65995,140 70,140 C31.34005,140 0,108.65995 0,70 C0,31.34005 31.34005,0 70,0 C108.65995,0 140,31.34005 140,70" id="Mask" fill="#91BFE3"></path>
                <g id="Group-14" transform="translate(19.000000, 32.000000)">
                    <polygon id="Fill-1" fill="#23366F" points="69.0610687 48.9090909 33.9389313 48.9090909 33.9389313 23.5454545 42.6005937 23.5454545 42.6005937 25.8087178 36.1643622 25.8087178 36.1643622 46.6458277 66.8365647 46.6458277 66.8365647 25.8087178 46.0773081 25.8087178 46.0773081 23.5454545 69.0610687 23.5454545"></polygon>
                    <g id="Group-13">
                        <path d="M42.9908948,25.3154499 L40.7578513,25.3154499 L40.7578513,18.9137693 C40.7578513,15.5251401 43.4970513,12.7677812 46.8642948,12.7677812 L56.9883557,12.7677812 C60.3546687,12.7677812 63.0938687,15.5251401 63.0938687,18.9137693 L63.0938687,24.378847 L60.8608252,24.378847 L60.8608252,18.9137693 C60.8608252,16.7642657 59.1237035,15.0156281 56.9883557,15.0156281 L46.8642948,15.0156281 C44.7280165,15.0156281 42.9908948,16.7642657 42.9908948,18.9137693 L42.9908948,25.3154499 Z" id="Fill-2" fill="#23366F"></path>
                        <path d="M51.9654035,41.9182343 L47.5942209,41.9182343 L49.0996643,35.6495513 C48.3422904,34.9339867 47.8956817,33.9243288 47.8956817,32.8594114 C47.8956817,30.7483085 49.6011687,29.0315154 51.6983687,29.0315154 C53.7955687,29.0315154 55.5010557,30.7483085 55.5010557,32.8594114 C55.5010557,33.9252654 55.0535165,34.9339867 54.297073,35.6504879 L55.1865687,39.3500693 L53.0167948,39.8783133 L51.758847,34.6464496 L52.4817948,34.225915 C52.9665513,33.9439975 53.2670817,33.4204365 53.2670817,32.8594114 C53.2670817,31.9883707 52.563673,31.2802989 51.6983687,31.2802989 C50.8330643,31.2802989 50.1287252,31.9883707 50.1287252,32.8594114 C50.1287252,33.4204365 50.4311165,33.9430609 50.9149426,34.225915 L51.63696,34.6464496 L50.4311165,39.6703874 L51.9654035,39.6703874 L51.9654035,41.9182343 Z" id="Fill-4" fill="#23366F"></path>
                        <path d="M95,60.0465467 L92.7575393,60.0465467 L8,60.0465467 L8,6.60305024 C8,2.96247488 10.9553763,0 14.5872283,0 L88.4118374,0 C92.0446237,0 95,2.96247488 95,6.60305024 L95,60.0465467 Z" id="Fill-6" fill="#23366F"></path>
                        <path d="M90,56 L88.0152934,56 L13,56 L13,7.6789918 C13,4.5262723 14.6156779,4 17.8300756,4 L85.1690974,4 C88.3843221,4 90,4.5262723 90,7.6789918 L90,56 Z" id="Fill-6"></path>
                        <circle id="Oval" fill="#DAD2BD" cx="22" cy="14" r="6"></circle>
                        <text id="1.-copy" font-family="ZurichSans-SemiBold, Zurich Sans" font-size="6" font-weight="500" fill="#23366F">
                            <tspan x="19" y="26">1.</tspan>
                        </text>
                        <circle id="Oval-Copy" fill="#DAD2BD" cx="22" cy="30" r="6"></circle>
                        <circle id="Oval-Copy-2" fill="#DAD2BD" cx="22" cy="46" r="6"></circle>
                        <path d="M22.504,16.5 L22.504,10.868 L21.6,10.868 C21.504,11.172 21.3293333,11.42 21.076,11.612 C20.8226667,11.804 20.5306667,11.9106667 20.2,11.932 L20.2,11.932 L20.2,12.852 C20.424,12.8466667 20.644,12.808 20.86,12.736 C21.076,12.664 21.2746667,12.564 21.456,12.436 L21.456,12.436 L21.456,16.5 L22.504,16.5 Z" id="1" fill="#23366F" fill-rule="nonzero"></path>
                        <path d="M23.924,32.5 L23.924,31.58 L21.452,31.58 L22.676,30.572 C22.948,30.348 23.1653333,30.1533333 23.328,29.988 C23.4906667,29.8226667 23.6293333,29.6173333 23.744,29.372 C23.8586667,29.1266667 23.916,28.844 23.916,28.524 C23.916,28.1773333 23.832,27.868 23.664,27.596 C23.496,27.324 23.2573333,27.1133333 22.948,26.964 C22.6386667,26.8146667 22.2813333,26.74 21.876,26.74 C21.4013333,26.74 21.008,26.8373333 20.696,27.032 C20.384,27.2266667 20.1546667,27.48 20.008,27.792 C19.8613333,28.104 19.788,28.4386667 19.788,28.796 L19.788,28.796 L20.868,28.796 C20.868,28.4813333 20.9493333,28.2146667 21.112,27.996 C21.2746667,27.7773333 21.5346667,27.668 21.892,27.668 C22.1853333,27.668 22.4186667,27.7493333 22.592,27.912 C22.7653333,28.0746667 22.852,28.2893333 22.852,28.556 C22.852,28.7266667 22.816,28.8813333 22.744,29.02 C22.672,29.1586667 22.5813333,29.2826667 22.472,29.392 C22.3626667,29.5013333 22.2173333,29.6333333 22.036,29.788 L22.036,29.788 L19.86,31.58 L19.86,32.5 L23.924,32.5 Z" id="2" fill="#23366F" fill-rule="nonzero"></path>
                        <path d="M21.86,49.12 C22.2866667,49.12 22.6586667,49.044 22.976,48.892 C23.2933333,48.74 23.536,48.5266667 23.704,48.252 C23.872,47.9773333 23.956,47.6666667 23.956,47.32 C23.956,47.0106667 23.8826667,46.744 23.736,46.52 C23.5893333,46.296 23.3613333,46.1173333 23.052,45.984 C23.2866667,45.8506667 23.4613333,45.6853333 23.576,45.488 C23.6906667,45.2906667 23.748,45.0666667 23.748,44.816 C23.748,44.528 23.676,44.264 23.532,44.024 C23.388,43.784 23.176,43.5933333 22.896,43.452 C22.616,43.3106667 22.2733333,43.24 21.868,43.24 C21.2493333,43.24 20.768,43.4053333 20.424,43.736 C20.08,44.0666667 19.8946667,44.5013333 19.868,45.04 L19.868,45.04 L20.892,45.04 C20.908,44.784 20.992,44.5706667 21.144,44.4 C21.296,44.2293333 21.5266667,44.144 21.836,44.144 C22.1133333,44.144 22.332,44.2093333 22.492,44.34 C22.652,44.4706667 22.732,44.656 22.732,44.896 C22.732,45.1146667 22.6533333,45.2933333 22.496,45.432 C22.3386667,45.5706667 22.116,45.64 21.828,45.64 L21.828,45.64 L21.452,45.64 L21.452,46.48 L21.836,46.48 C22.1666667,46.48 22.4253333,46.552 22.612,46.696 C22.7986667,46.84 22.892,47.0426667 22.892,47.304 C22.892,47.5813333 22.7986667,47.8026667 22.612,47.968 C22.4253333,48.1333333 22.1693333,48.216 21.844,48.216 C21.5026667,48.216 21.24,48.1213333 21.056,47.932 C20.872,47.7426667 20.772,47.504 20.756,47.216 L20.756,47.216 L19.74,47.216 C19.74,47.5733333 19.8226667,47.896 19.988,48.184 C20.1533333,48.472 20.396,48.7 20.716,48.868 C21.036,49.036 21.4173333,49.12 21.86,49.12 Z" id="3" fill="#23366F" fill-rule="nonzero"></path>
                        <path d="M0,61 L0,64.2359629 C0,66.6383493 1.94088696,68.5911663 4.32652174,68.5911663 L97.4853739,68.5911663 C99.8719391,68.5911663 101.812826,66.6383493 101.812826,64.2359629 L101.812826,61 L0,61 Z" id="Path" fill="#23366F"></path>
                        <polygon id="Fill-11" fill="#91BFE3" points="44.7813304 66.0098971 57.3422 66.0098971 57.3422 63.7620502 44.7813304 63.7620502"></polygon>
                    </g>
                </g>
            </g>
            <path d="M55.9383201,48.6382246 L54.2941128,46.8085559 C53.5558139,45.9869791 52.2912847,45.9194691 51.4697079,46.657768 C51.4432388,46.6815542 51.4174092,46.7060426 51.3922467,46.731207 L50.0043909,48.1191731 L50.0043909,48.1191731 C50.0033869,48.1191731 50.002573,48.119987 50.002573,48.120991 C50.002573,48.1214734 50.0027647,48.121936 50.0031059,48.1222769 L54.4700654,52.5862581 C55.2516275,53.3664684 56.517637,53.3662322 57.2989079,52.5857302 L66.0686192,43.8153219 C66.5847144,43.2991857 66.5894401,42.4638762 66.0792179,41.9419335 C65.5588914,41.4096545 64.717282,41.3654652 64.1440748,41.8403275 L55.9383201,48.6382246 L55.9383201,48.6382246 Z" id="Path" fill="#1FB1E6"></path>
            <path d="M55.9383201,61.6382246 L54.2941128,59.8085559 C53.5558139,58.9869791 52.2912847,58.9194691 51.4697079,59.657768 C51.4432388,59.6815542 51.4174092,59.7060426 51.3922467,59.731207 L50.0043909,61.1191731 L50.0043909,61.1191731 C50.0033869,61.1191731 50.002573,61.119987 50.002573,61.120991 C50.002573,61.1214734 50.0027647,61.121936 50.0031059,61.1222769 L54.4700654,65.5862581 C55.2516275,66.3664684 56.517637,66.3662322 57.2989079,65.5857302 L66.0686192,56.8153219 C66.5847144,56.2991857 66.5894401,55.4638762 66.0792179,54.9419335 C65.5588914,54.4096545 64.717282,54.3654652 64.1440748,54.8403275 L55.9383201,61.6382246 L55.9383201,61.6382246 Z" id="Path-Copy" fill="#1FB1E6"></path>
            <path d="M55.9383201,77.6382246 L54.2941128,75.8085559 C53.5558139,74.9869791 52.2912847,74.9194691 51.4697079,75.657768 C51.4432388,75.6815542 51.4174092,75.7060426 51.3922467,75.731207 L50.0043909,77.1191731 L50.0043909,77.1191731 C50.0033869,77.1191731 50.002573,77.119987 50.002573,77.120991 C50.002573,77.1214734 50.0027647,77.121936 50.0031059,77.1222769 L54.4700654,81.5862581 C55.2516275,82.3664684 56.517637,82.3662322 57.2989079,81.5857302 L66.0686192,72.8153219 C66.5847144,72.2991857 66.5894401,71.4638762 66.0792179,70.9419335 C65.5588914,70.4096545 64.717282,70.3654652 64.1440748,70.8403275 L55.9383201,77.6382246 L55.9383201,77.6382246 Z" id="Path-Copy-2" fill="#1FB1E6"></path>
            <g id="Group" transform="translate(77.000000, 42.000000)">
                <path d="M5.45631752,27 C4.7423338,24.8698225 3.79035552,22.8579882 2.60038266,20.964497 C1.9519663,19.9327335 0.459886593,17.4241822 0.101439668,14.2189349 C-0.526845392,8.60078385 1.55565936,1.37410632 12.2391628,0.0177514793 C18.6650162,-0.218934911 23.0679158,1.9112426 25.4478615,6.40828402 C27.8278072,10.9053254 27.4708153,15.8757396 24.3768859,21.3195266 L21.5209511,27 L5.45631752,27 Z" id="Combined-Shape" fill="#91BFE3"></path>
                <path d="M6,30 C6,30 11,30 21,30 L21,35.7538462 L16.6666667,38.8 C14.4444444,41.7333333 12.3333333,41.7333333 10.3333333,38.8 C10.3333333,38.8 8.88888889,37.7846154 6,35.7538462 C6,31.9179487 6,30 6,30 Z" id="Path-19" fill="#1FB1E6"></path>
            </g>
        </g>
    </g>
</svg>