<?xml version="1.0" encoding="UTF-8"?>
<svg width="140px" height="140px" viewBox="0 0 140 140" version="1.1" xmlns="http://www.w3.org/2000/svg" xmlns:xlink="http://www.w3.org/1999/xlink">
    <title>pictogram/knowledge/innovation</title>
    <g id="pictogram/knowledge/innovation" stroke="none" stroke-width="1" fill="none" fill-rule="evenodd">
        <g>
            <path d="M70,140 C31.34005,140 0,108.65995 0,70 C0,31.34005 31.34005,0 70,0 C108.65995,0 140,31.34005 140,70 C140,108.65995 108.65995,140 70,140 Z" id="Fill-39" fill="#91BFE3"></path>
            <path d="M84,59.5 C78.2012,59.5 73.5,54.79915 73.5,49 C73.5,43.2012 78.2012,38.5 84,38.5 C89.7988,38.5 94.5,43.2012 94.5,49 C94.5,54.79915 89.7988,59.5 84,59.5 Z" id="Fill-41" fill="#DAD2BD"></path>
            <path d="M97.6761,59.9023783 C104.5531,49.4133783 108.8431,37.0443783 108.5981,25.7213783 C108.5641,24.7773783 107.8281,24.0423783 106.8831,24.0063783 C106.5151,24 106.1451,23.9983783 105.7741,24.0013783 L105.3771,24.0013783 C94.3851,24.0703783 82.5601,28.2143783 72.4501,34.8533783 C67.8211,37.9143783 63.5651,41.5393783 59.9541,45.5993783 C48.6511,45.8093783 37.6271,50.4283783 29.5081,58.5473783 C29.0531,59.0023783 28.8781,59.7023783 29.0881,60.3323783 C29.2981,60.9623783 29.8231,61.4173783 30.4881,61.5223783 L43.9961,63.4463783 L42.3171,65.3373783 C41.6861,66.0023783 41.7211,67.0873783 42.3861,67.7163783 L64.6471,90.2223783 C65.2771,90.8873783 66.3611,90.9233783 67.0261,90.2933783 L68.9161,88.6123783 L70.8411,102.121378 C70.9461,102.786378 71.4011,103.310378 72.0301,103.520378 C72.6601,103.730378 73.3611,103.555378 73.8151,103.100378 C81.9341,94.9813783 86.5541,83.9583783 86.7641,72.6543783 C90.9001,68.9753783 94.5781,64.6333783 97.6761,59.9023783" id="Fill-1" fill="#2167AE"></path>
            <path d="M78.01136,42.35854 C81.44101,38.96389 87.00531,38.96389 90.39996,42.35854 C93.82926,45.75284 93.82926,51.31749 90.39996,54.74714 C87.00531,58.14144 81.44101,58.14144 78.01136,54.74714 C76.33171,53.03214 75.45671,50.79249 75.45671,48.55249 C75.45671,46.31284 76.33171,44.07319 78.01136,42.35854" id="Path" fill="#DAD2BD"></path>
            <path d="M24.573955,106.24278 C24.388105,106.85878 24.559955,107.52693 25.011105,107.98193 C25.347105,108.31793 25.791605,108.49643 26.250105,108.49643 C26.417755,108.49643 26.586105,108.47193 26.753755,108.42293 C28.668255,107.84893 45.585155,102.70813 49.329455,98.96348 C53.546605,94.74668 53.546605,87.88388 49.329455,83.66708 C45.109155,79.44993 38.250205,79.45343 34.033055,83.66708 C30.288405,87.41138 25.147605,104.32828 24.573955,106.24278 Z" id="Fill-44" fill="#23366F"></path>
        </g>
    </g>
</svg>