<?xml version="1.0" encoding="UTF-8"?>
<svg width="140px" height="140px" viewBox="0 0 140 140" version="1.1" xmlns="http://www.w3.org/2000/svg" xmlns:xlink="http://www.w3.org/1999/xlink">
    <title>pictogram/more/intuitive-functionality</title>
    <g id="pictogram/more/intuitive-functionality" stroke="none" stroke-width="1" fill="none" fill-rule="evenodd">
        <g>
            <path d="M140,70 C140,108.65995 108.65995,140 70,140 C31.34005,140 0,108.65995 0,70 C0,31.34005 31.34005,0 70,0 C108.65995,0 140,31.34005 140,70" id="Mask" fill="#DAD2BD"></path>
            <rect id="Rectangle" fill="#5495CF" x="40" y="31" width="56" height="10" rx="5"></rect>
            <rect id="Rectangle-Copy" fill="#5495CF" x="40" y="43" width="56" height="10" rx="5"></rect>
            <path d="M60.3769376,71.3521691 C60.3769376,71.3521691 61.8761573,65.8897428 65.9607581,65.8897428 C70.0453589,65.8897428 71.4070213,67.2584574 72.7686838,71.3657669 C72.7686838,71.3657669 75.0600169,66.6900698 78.214947,67.2584574 C80.8953818,67.7417617 82.7879534,68.2441029 83.6612103,72.73487 C83.6612103,72.73487 89.1074735,63.1515365 94.5537368,72.73487 C97.5179123,85.57829 99,92 99,92 C99,92 100,105.591015 95.9153992,109.697936 C95.9153992,109.697936 83.6612103,122.019087 72.7686838,117.912166 C72.7686838,117.912166 59.1532188,115.17396 46.8990299,96.007681 C46.8990299,96.007681 40.0911043,87.7938392 40.0911043,83.6869182 C40.0911043,83.6869182 38.6927342,76.1304323 46.8530487,80.2878593 C46.8530487,80.2878593 53.7069556,86.424736 55.0682316,89.1629423 L56.429894,91.9007601 L50.9836308,75.4726878 L44.1757051,53.5685914 C44.1757051,53.5685914 42.8140427,49.4616705 46.8990299,48.0925673 C46.8990299,48.0925673 50.9836308,46.7234642 52.3452932,49.4616705 L59.1532188,67.2584574 C59.1532188,67.2584574 59.6041439,68.6326112 60.3769376,71.3521691 Z" id="Stroke-1" fill="#23366F"></path>
        </g>
    </g>
</svg>