<?xml version="1.0" encoding="UTF-8"?>
<svg width="140px" height="140px" viewBox="0 0 140 140" version="1.1" xmlns="http://www.w3.org/2000/svg" xmlns:xlink="http://www.w3.org/1999/xlink">
    <title>pictogram/finance-and-data/investor</title>
    <defs>
        <path d="M140,70 C140,108.65995 108.65995,140 70,140 C31.34005,140 0,108.65995 0,70 C0,31.34005 31.34005,0 70,0 C108.65995,0 140,31.34005 140,70" id="path-1"></path>
        <path d="M28.3534857,55.9854406 C12.7203197,55.9854406 0,43.3047111 0,27.716084 C0,12.4303217 12.7203197,0 28.3534857,0 C43.9906107,0 56.7129098,12.4303217 56.7129098,27.716084 C56.7129098,43.3047111 43.9906107,55.9854406 28.3534857,55.9854406 Z" id="path-3"></path>
    </defs>
    <g id="pictogram/finance-and-data/investor" stroke="none" stroke-width="1" fill="none" fill-rule="evenodd">
        <g>
            <mask id="mask-2" fill="white">
                <use xlink:href="#path-1"></use>
            </mask>
            <use id="Mask" fill="#5495CF" xlink:href="#path-1"></use>
            <g id="Man" mask="url(#mask-2)">
                <g transform="translate(33.000000, 24.000000)">
                    <g id="head" stroke-width="1" fill="none" fill-rule="evenodd" transform="translate(8.000000, 0.000000)">
                        <mask id="mask-4" fill="white">
                            <use xlink:href="#path-3"></use>
                        </mask>
                        <use id="Mask" fill="#DAD2BD" xlink:href="#path-3"></use>
                        <path d="M54.376258,23.7679926 C49.4633672,16.5173003 34.4938217,10.6971896 34.4938217,10.6971896 C32.8941232,16.0068672 30.6083707,16.8243424 24.4382612,19.0704436 C16.832581,21.8396898 8.66886649,17.8452086 -2.07165384,27.4446754 C-3.05970293,28.3266881 -7.7854881,23.4619283 -7.32811876,23.359255 L-7.32811876,-4.66625984 L19.2682369,-14.4484631 L43.0031181,-7.9572821 L62.6407986,16.2961126 L54.376258,23.7679926 Z" id="Stroke-35" fill="#23366F" mask="url(#mask-4)"></path>
                    </g>
                    <path d="M2.84217094e-14,116.723142 L0.195971311,77.9633432 C0.293956967,68.4983248 8.04769057,60.9029518 17.5176578,61.0009375 L36.518957,61.1988883 L56.8079262,61.4106957 C66.2749242,61.5086813 73.8712869,69.2653842 73.7733012,78.7313924 L73.585248,126" id="Fill-24" fill="#23366F" fill-rule="evenodd"></path>
                    <path d="M40.027,107.399429 L40.027,104.187429 C42.1683333,104.011429 44.0676667,103.505429 45.725,102.669429 C47.3823333,101.833429 48.673,100.711429 49.597,99.3034286 C50.521,97.8954286 50.983,96.2820952 50.983,94.4634286 C50.983,92.4980952 50.5503333,90.8994286 49.685,89.6674286 C48.8196667,88.4354286 47.6023333,87.4674286 46.033,86.7634286 C44.4636667,86.0594286 42.4616667,85.4434286 40.027,84.9154286 L40.027,84.9154286 L40.027,77.1714286 C41.171,77.4354286 42.095,77.9414286 42.799,78.6894286 C43.503,79.4374286 43.9283333,80.2514286 44.075,81.1314286 L44.075,81.1314286 L50.191,81.1314286 C49.9856667,78.7847619 48.9956667,76.7534286 47.221,75.0374286 C45.4463333,73.3214286 43.0483333,72.3020952 40.027,71.9794286 L40.027,71.9794286 L40.027,69.1194286 L36.067,69.1194286 L36.067,72.0234286 C33.0456667,72.3167619 30.633,73.2700952 28.829,74.8834286 C27.025,76.4967619 26.123,78.6087619 26.123,81.2194286 C26.123,82.9794286 26.519,84.4314286 27.311,85.5754286 C28.103,86.7194286 29.2176667,87.6360952 30.655,88.3254286 C32.0923333,89.0147619 33.8963333,89.6234286 36.067,90.1514286 L36.067,90.1514286 L36.067,98.9074286 C35.1576667,98.7020952 34.3656667,98.3647619 33.691,97.8954286 C33.0163333,97.4260952 32.481,96.8174286 32.085,96.0694286 C31.689,95.3214286 31.4323333,94.4634286 31.315,93.4954286 L31.315,93.4954286 L25.023,93.4954286 L25.023,93.4954286 L25.023,93.5834286 C25.1696667,95.5487619 25.6976667,97.2867619 26.607,98.7974286 C27.5163333,100.308095 28.7776667,101.518095 30.391,102.427429 C32.0043333,103.336762 33.8963333,103.908762 36.067,104.143429 L36.067,104.143429 L36.067,107.399429 L40.027,107.399429 Z M36.067,84.0354286 C34.747,83.6540952 33.7863333,83.2140952 33.185,82.7154286 C32.5836667,82.2167619 32.283,81.5567619 32.283,80.7354286 C32.283,79.8260952 32.6203333,79.0487619 33.295,78.4034286 C33.9696667,77.7580952 34.8936667,77.3327619 36.067,77.1274286 L36.067,77.1274286 L36.067,84.0354286 Z M40.027,99.0394286 L40.027,90.9874286 C41.171,91.2514286 42.0803333,91.5447619 42.755,91.8674286 C43.4296667,92.1900952 43.9356667,92.5787619 44.273,93.0334286 C44.6103333,93.4880952 44.779,94.0674286 44.779,94.7714286 C44.779,95.9447619 44.3463333,96.8980952 43.481,97.6314286 C42.6156667,98.3647619 41.4643333,98.8340952 40.027,99.0394286 L40.027,99.0394286 Z" id="$" fill="#1FB1E6" fill-rule="nonzero"></path>
                </g>
            </g>
        </g>
    </g>
</svg>