<?xml version="1.0" encoding="UTF-8"?>
<svg width="140px" height="140px" viewBox="0 0 140 140" version="1.1" xmlns="http://www.w3.org/2000/svg" xmlns:xlink="http://www.w3.org/1999/xlink">
    <title>pictogram/contact/location</title>
    <defs>
        <polygon id="path-1" points="0 0 140 0 140 139.99993 0 139.99993"></polygon>
    </defs>
    <g id="pictogram/contact/location" stroke="none" stroke-width="1" fill="none" fill-rule="evenodd">
        <g>
            <g id="Group-3">
                <mask id="mask-2" fill="white">
                    <use xlink:href="#path-1"></use>
                </mask>
                <g id="Clip-2"></g>
                <path d="M140,69.99993 C140,108.66023 108.65995,139.99993 70,139.99993 C31.34005,139.99993 0,108.66023 0,69.99993 C0,31.33998 31.34005,-7e-05 70,-7e-05 C108.65995,-7e-05 140,31.33998 140,69.99993" id="Fill-1" fill="#DDE4E3" mask="url(#mask-2)"></path>
            </g>
            <g id="Group-8" transform="translate(34.999877, 27.999878)">
                <path d="M59.7487625,10.2514125 C46.0805625,-3.4171375 23.9196125,-3.4171375 10.2514125,10.2514125 C-3.4171375,23.9196125 -3.4171375,46.0805625 10.2514125,59.7487625 L35.0002625,84.4976125 L59.7487625,59.7487625 C73.4173125,46.0805625 73.4173125,23.9196125 59.7487625,10.2514125" id="Fill-4" fill="#23366F"></path>
                <path d="M47.3745475,47.3744775 C40.5404475,54.2085775 29.4597975,54.2085775 22.6256975,47.3744775 C15.7915975,40.5403775 15.7915975,29.4597275 22.6256975,22.6259775 C29.4597975,15.7915275 40.5404475,15.7915275 47.3745475,22.6259775 C54.2086475,29.4597275 54.2086475,40.5403775 47.3745475,47.3744775" id="Fill-6" fill="#1FB1E6"></path>
            </g>
        </g>
    </g>
</svg>