<?xml version="1.0" encoding="UTF-8"?>
<svg width="140px" height="140px" viewBox="0 0 140 140" version="1.1" xmlns="http://www.w3.org/2000/svg" xmlns:xlink="http://www.w3.org/1999/xlink">
    <title>pictogram/digital-security/medical</title>
    <g id="pictogram/digital-security/medical" stroke="none" stroke-width="1" fill="none" fill-rule="evenodd">
        <g>
            <path d="M140,70 C140,108.65995 108.65995,140 70,140 C31.34005,140 0,108.65995 0,70 C0,31.34005 31.34005,0 70,0 C108.65995,0 140,31.34005 140,70" id="Mask" fill="#5495CF"></path>
            <circle id="Oval" fill="#23366F" cx="70" cy="70" r="49"></circle>
            <path d="M74.8369565,46.999895 C75.941526,46.999895 76.8369565,47.8953255 76.8369565,48.999895 L76.836,62.162895 L90,62.1629385 C91.1045695,62.1629385 92,63.058369 92,64.1629385 L92,74.8368515 C92,75.941421 91.1045695,76.8368515 90,76.8368515 L76.836,76.835895 L76.8369565,89.999895 C76.8369565,91.1044645 75.941526,91.999895 74.8369565,91.999895 L64.1630435,91.999895 C63.058474,91.999895 62.1630435,91.1044645 62.1630435,89.999895 L62.163,76.835895 L49,76.8368515 C47.8954305,76.8368515 47,75.941421 47,74.8368515 L47,64.1629385 C47,63.058369 47.8954305,62.1629385 49,62.1629385 L62.163,62.162895 L62.1630435,48.999895 C62.1630435,47.8953255 63.058474,46.999895 64.1630435,46.999895 L74.8369565,46.999895 Z" id="Combined-Shape" stroke="#DAD2BD" stroke-width="6" fill="#DAD2BD"></path>
        </g>
    </g>
</svg>