<?xml version="1.0" encoding="UTF-8"?>
<svg width="140px" height="140px" viewBox="0 0 140 140" version="1.1" xmlns="http://www.w3.org/2000/svg" xmlns:xlink="http://www.w3.org/1999/xlink">
    <title>pictogram/earth-and-nature/natural-resource</title>
    <g id="pictogram/earth-and-nature/natural-resource" stroke="none" stroke-width="1" fill="none" fill-rule="evenodd">
        <g>
            <path d="M140,70 C140,108.65995 108.65995,140 70,140 C31.34005,140 0,108.65995 0,70 C0,31.34005 31.34005,0 70,0 C108.65995,0 140,31.34005 140,70" id="Mask" fill="#91BFE3"></path>
            <g id="globe" transform="translate(20.000000, 20.000000)">
                <path d="M50,2 C23.2932331,2 2,23.2932331 2,50 C2,76.7067669 23.6541353,98 50,98 C76.3458647,98 98,76.3458647 98,50 C98,23.6541353 76.7067669,2 50,2 Z M53,73 C58.3571429,73.3653846 63.3571429,74.4615385 68,76.6538462 C64.7857143,82.5 60.1428571,87.9807692 53,92 L53,73 Z M53,67.9473684 L53,51 L74,51 C74,57.6315789 72.9137931,65 70.0172414,72 C64.5862069,69.4210526 58.7931034,67.9473684 53,67.9473684 Z M53,47 L53,32.0192308 C59.1551724,31.6538462 64.9482759,30.1923077 70.3793103,28 C72.5517241,34.2115385 74,40.7884615 74,47 L53,47 Z M53,27 L53,8 C59.7857143,11.2264151 64.7857143,16.9622642 68,23.4150943 C63.3571429,25.5660377 58,26.6415094 53,27 Z M62,9 C68.0444444,10.8055556 73.3777778,13.6944444 78,17.6666667 C75.8666667,19.4722222 73.7333333,20.9166667 71.6,22 C69.4666667,16.9444444 65.9111111,12.6111111 62,9 Z M48,8 L48,27 C42.4186047,26.6481481 36.8372093,25.5925926 32,23.4814815 C35.3488372,16.7962963 40.5581395,11.1666667 48,8 Z M28.1818182,22 C26,20.5555556 24.1818182,19.1111111 22,17.6666667 C26.7272727,13.6944444 31.8181818,10.8055556 38,9 C34,12.6111111 30.7272727,16.9444444 28.1818182,22 L28.1818182,22 Z M48,32.0192308 L48,47 L27,47 C27.3559322,40.7884615 28.4237288,33.8461538 30.9152542,28 C35.8983051,30.1923077 41.9491525,31.6538462 48,32.0192308 L48,32.0192308 Z M48,51 L48,67.6551724 C41.9491525,68.0172414 36.2542373,69.4655172 30.9152542,72 C28.0677966,65.1206897 27,57.8793103 27,51.362069 L48,51.362069 L48,51 Z M48,73 L48,92 C40.5581395,88.0566038 35.3488372,82.6792453 32,76.9433962 C36.8372093,74.4339623 42.4186047,73 48,73 L48,73 Z M41,93 C33.5925926,91.6 26.5555556,88.1 21,83.55 C23.2222222,81.8 25.4444444,80.4 27.6666667,79 C31,84.6 35.4444444,89.15 41,93 Z M72.0909091,78 C74.6363636,79.4 76.8181818,80.8 79,82.55 C73.5454545,87.1 66.6363636,90.6 59,92 C64.4545455,88.5 68.8181818,83.95 72.0909091,78 Z M74,74.1265823 C76.962963,67.5189873 78.4444444,59.8101266 78.4444444,51 L94,51 C93.6296296,62.0126582 89.1851852,72.2911392 82.1481481,80 C79.5555556,77.4303797 76.962963,75.5949367 74,74.1265823 Z M78.4444444,47 C78.0740741,40.2328767 76.5925926,33.109589 74,26.3424658 C76.962963,24.9178082 79.5555556,23.1369863 81.7777778,21 C88.4444444,27.7671233 93.2592593,37.0273973 94,47 L78.4444444,47 L78.4444444,47 Z M18.2222222,21 C20.4444444,23.1369863 23.037037,24.9178082 26,26.3424658 C23.037037,32.7534247 21.9259259,39.8767123 21.5555556,47 L6,47 C6.74074074,37.0273973 11.5555556,27.7671233 18.2222222,21 Z M6,51 L21.5555556,51 C21.5555556,59.8101266 23.4074074,67.5189873 26,74.1265823 C23.037037,75.5949367 20.4444444,77.7974684 17.8518519,80 C10.4444444,72.2911392 6,62.0126582 6,51 L6,51 Z" id="Shape" fill="#23366F" fill-rule="nonzero"></path>
                <circle id="Oval" stroke="#23366F" stroke-width="6.8" cx="50" cy="50" r="46.6"></circle>
            </g>
            <g id="leaf-copy-2" transform="translate(80.711685, 82.895062) rotate(20.000000) translate(-80.711685, -82.895062) translate(68.211685, 57.895062)" stroke="#23366F">
                <path d="M25.5079695,-2.43934338 L25.9063314,0.369046041 C26.2253942,2.41212822 28.3968891,17.0880582 24.6877269,24.7899033 C22.0130077,30.4330412 17.3541498,34.4798747 12.4310711,35.6734018 L12.4310711,35.6734018 L3.09869149,33.7936352 C0.32391781,31.7007964 -1.37132189,28.3049941 -1.77869471,24.3423515 C-2.14441711,20.7848554 -1.46987338,16.7739209 0.337997424,12.9807058 C2.014098,9.4556902 6.29767056,5.77297421 13.3328931,2.33012193 C17.9485279,0.0505683389 22.2306173,-1.42542287 22.7478049,-1.58827364 L22.7478049,-1.58827364 L25.5079695,-2.43934338 Z" id="Fill-1" stroke-width="3.75" fill="#1FB1E6"></path>
                <path d="M14.2645387,15.986858 L16.6392716,18.5222648 C16.1213162,18.9233406 15.8315212,19.175686 15.8210865,19.1868267 C15.7728571,19.2383193 10.9729296,25.5819259 10.2022407,32.5760011 C9.28721914,40.9861086 11.1473615,46.2808764 11.8593542,47.9613001 L11.9348415,48.1360695 C11.9933087,48.268799 12.0402399,48.3691934 12.0723408,48.4368336 L12.0723408,48.4368336 L13.5892829,51.125 L6.75571152,51.125 C6.58605415,50.7854734 6.47934491,50.5522179 6.43491491,50.4505691 C6.06717257,49.6092326 1.97985195,39.5128429 4.97461837,29.640224 C7.29361504,22.0999848 13.1462474,16.869615 13.4097348,16.6445632 L13.4331278,16.6249157 C13.4943383,16.5740536 13.6416772,16.4546672 13.8676177,16.2825671 L14.1194799,16.0934814 L14.1194799,16.0934814 L14.2645387,15.986858 Z" id="Fill-4" stroke-width="2.25" fill="#DAD2BD" stroke-linejoin="round"></path>
            </g>
            <g id="leaf-copy" transform="translate(59.288315, 91.895062) scale(-1, 1) rotate(20.000000) translate(-59.288315, -91.895062) translate(46.788315, 66.895062)" stroke="#23366F">
                <path d="M25.5079695,-2.43934338 L25.9063314,0.369046041 C26.2253942,2.41212822 28.3968891,17.0880582 24.6877269,24.7899033 C22.0130077,30.4330412 17.3541498,34.4798747 12.4310711,35.6734018 L12.4310711,35.6734018 L3.09869149,33.7936352 C0.32391781,31.7007964 -1.37132189,28.3049941 -1.77869471,24.3423515 C-2.14441711,20.7848554 -1.46987338,16.7739209 0.337997424,12.9807058 C2.014098,9.4556902 6.29767056,5.77297421 13.3328931,2.33012193 C17.9485279,0.0505683389 22.2306173,-1.42542287 22.7478049,-1.58827364 L22.7478049,-1.58827364 L25.5079695,-2.43934338 Z" id="Fill-1" stroke-width="3.75" fill="#1FB1E6"></path>
                <path d="M14.2645387,15.986858 L16.6392716,18.5222648 C16.1213162,18.9233406 15.8315212,19.175686 15.8210865,19.1868267 C15.7728571,19.2383193 10.9729296,25.5819259 10.2022407,32.5760011 C9.28721914,40.9861086 11.1473615,46.2808764 11.8593542,47.9613001 L11.9348415,48.1360695 C11.9933087,48.268799 12.0402399,48.3691934 12.0723408,48.4368336 L12.0723408,48.4368336 L13.5892829,51.125 L6.75571152,51.125 C6.58605415,50.7854734 6.47934491,50.5522179 6.43491491,50.4505691 C6.06717257,49.6092326 1.97985195,39.5128429 4.97461837,29.640224 C7.29361504,22.0999848 13.1462474,16.869615 13.4097348,16.6445632 L13.4331278,16.6249157 C13.4943383,16.5740536 13.6416772,16.4546672 13.8676177,16.2825671 L14.1194799,16.0934814 L14.1194799,16.0934814 L14.2645387,15.986858 Z" id="Fill-4" stroke-width="2.25" fill="#DAD2BD" stroke-linejoin="round"></path>
            </g>
        </g>
    </g>
</svg>