<?xml version="1.0" encoding="UTF-8"?>
<svg width="140px" height="140px" viewBox="0 0 140 140" version="1.1" xmlns="http://www.w3.org/2000/svg" xmlns:xlink="http://www.w3.org/1999/xlink">
    <title>pictogram/contact/newsletter</title>
    <defs>
        <polygon id="path-1" points="0 5.68434189e-14 140 5.68434189e-14 140 139.999895 0 139.999895"></polygon>
    </defs>
    <g id="pictogram/contact/newsletter" stroke="none" stroke-width="1" fill="none" fill-rule="evenodd">
        <g transform="translate(0.000000, 0.000105)" id="Group-13">
            <g transform="translate(0.000000, 0.000000)">
                <g transform="translate(0.000000, 0.000000)">
                    <g id="Group-3" transform="translate(0.000000, 0.000000)">
                        <mask id="mask-2" fill="white">
                            <use xlink:href="#path-1"></use>
                        </mask>
                        <g id="Clip-2"></g>
                        <path d="M140,70 C140,108.65995 108.65995,140 70,140 C31.34005,140 0,108.65995 0,70 C0,31.34005 31.34005,0 70,0 C108.65995,0 140,31.34005 140,70" id="Fill-1" fill="#91BFE3" mask="url(#mask-2)"></path>
                    </g>
                    <g id="Group-12" transform="translate(31.270190, 21.319008)">
                        <path d="M53.37717,56.8885625 L75.95357,76.6432625 C76.54087,77.1567125 77.45962,76.7402125 77.45962,75.9597125 L77.45962,36.4506625 C77.45962,35.6705125 76.54087,35.2540125 75.95357,35.7674625 L53.37717,55.5221625 C52.96347,55.8837125 52.96347,56.5270125 53.37717,56.8885625" id="Fill-4" fill="#23366F"></path>
                        <path d="M24.08245,55.5220575 L1.50605,35.7677075 C0.91875,35.2539075 0,35.6704075 0,36.4509075 L0,75.9599575 C0,76.7401075 0.91875,77.1566075 1.50605,76.6435075 L24.08245,56.8884575 C24.49615,56.5269075 24.49615,55.8836075 24.08245,55.5220575" id="Fill-6" fill="#23366F"></path>
                        <path d="M27.67611,52.6960875 L38.11906,43.2026875 C38.46556,42.8880375 38.99406,42.8880375 39.34056,43.2026875 L49.78351,52.6960875 C50.12511,53.0065375 50.64486,53.0114375 50.99206,52.7072875 L73.69971,32.8388375 C74.10781,32.4811375 74.11376,31.8483375 73.71231,31.4836375 L39.34056,0.2359875 C38.99406,-0.0786625 38.46556,-0.0786625 38.11906,0.2359875 L3.74731,31.4836375 C3.34586,31.8483375 3.35181,32.4811375 3.75991,32.8388375 L26.46756,52.7072875 C26.81476,53.0114375 27.33451,53.0065375 27.67611,52.6960875" id="Fill-8" fill="#2167AE"></path>
                        <path d="M65.5802773,11.6808875 L12.72981,11.6808875 L12.72981,41.1808875 L26.4925181,53.3197988 C26.8843324,53.6653848 27.4761412,53.6511174 27.8508471,53.287052 L38.0367604,43.3903893 C38.4233034,43.0148231 39.0379398,43.0131433 39.4265298,43.3865911 L49.7269798,53.2856649 C50.1058295,53.6497521 50.7018352,53.6585414 51.0912562,53.3057839 L65.5802773,40.1808875 L65.5802773,40.1808875 L65.5802773,11.6808875 Z M57.4494362,38.5126632 L57.4494362,42.5780838 L22.4868193,42.5780838 L22.4868193,38.5126632 L57.4494362,38.5126632 Z M57.4494362,28.7556539 L57.4494362,32.8210744 L22.4868193,32.8210744 L22.4868193,28.7556539 L57.4494362,28.7556539 Z M57.4494362,18.1855604 L57.4494362,22.250981 L22.4868193,22.250981 L22.4868193,18.1855604 L57.4494362,18.1855604 Z" id="Combined-Shape" fill="#DAD2BD" fill-rule="nonzero"></path>
                        <path d="M38.119025,48.1871075 L4.664275,78.6010575 C4.050025,79.1593075 4.444825,80.1809575 5.274675,80.1809575 L72.184875,80.1809575 C73.014725,80.1809575 73.409875,79.1593075 72.795625,78.6010575 L39.340525,48.1871075 C38.994025,47.8724575 38.465525,47.8724575 38.119025,48.1871075" id="Fill-10" fill="#23366F"></path>
                    </g>
                </g>
            </g>
        </g>
    </g>
</svg>