<?xml version="1.0" encoding="UTF-8"?>
<svg width="140px" height="140px" viewBox="0 0 140 140" version="1.1" xmlns="http://www.w3.org/2000/svg" xmlns:xlink="http://www.w3.org/1999/xlink">
    <title>pictogram/more/notification</title>
    <g id="pictogram/more/notification" stroke="none" stroke-width="1" fill="none" fill-rule="evenodd">
        <g>
            <path d="M140,70 C140,108.65995 108.65995,140 70,140 C31.34005,140 0,108.65995 0,70 C0,31.34005 31.34005,0 70,0 C108.65995,0 140,31.34005 140,70" id="Mask" fill="#DAD2BD"></path>
            <path d="M79.5248989,95.2192413 C79.1703976,94.4380275 79.5971121,93.5351492 80.4439762,93.3238372 C81.0873303,93.1637524 81.7372493,93.010071 82.3937331,92.862793 C83.0305223,92.715515 98.0771309,89.123212 98.7598741,88.9951442 L100.676807,88.6365542 C101.523671,88.4764694 102.311451,89.0911951 102.370535,89.9300394 C102.593739,93.1957694 101.530236,96.0644891 99.3113205,98.5810221 C96.3046247,101.99403 92.4510648,103.332339 87.9607157,102.237359 C83.9430348,101.251237 81.1726732,98.856368 79.5248989,95.2192413 Z" id="Path" fill="#1FB1E6" fill-rule="nonzero"></path>
            <path d="M72.291574,99.6488087 C62.8351256,101.90414 53.3721735,104.152972 43.9157251,106.414803 C41.3727599,107.025757 38.8037798,107.266239 36.2413034,106.603289 C32.9178886,105.745353 24.495536,98.5893879 35.4153275,82.5940836 C39.7663344,76.2245597 37.717654,73.1892866 36.5469795,58.7343671 C35.7340111,49.9015273 38.6151711,42.3815895 45.1449333,36.3305418 C45.8343305,35.6870899 46.1139916,35.2256244 45.873353,34.1987011 C44.8522647,29.7660325 46.0294429,25.9378186 49.7235713,23.1820246 C53.4111959,20.4262306 57.4435192,20.3417369 61.3977975,22.5840693 C64.21392,24.1829498 65.8658718,26.7437584 66.4642165,29.9610179 C66.5162465,30.253496 66.9519975,30.6109693 67.2706812,30.6889635 C73.0264974,32.1578537 83.1073055,32.7753075 89.9362401,58.6043768 C92.5117239,68.340649 94.7034867,67.6127034 100.218664,70.5634829 C113.818,77.8429387 112.51725,90.0555258 100.758475,92.8698155 C91.2695082,95.1186474 81.7805411,97.3869778 72.291574,99.6488087 Z" id="Path" fill="#23366F" fill-rule="nonzero" transform="translate(70.000000, 64.000000) rotate(-10.000000) translate(-70.000000, -64.000000) "></path>
        </g>
    </g>
</svg>