<?xml version="1.0" encoding="UTF-8"?>
<svg width="140px" height="140px" viewBox="0 0 140 140" version="1.1" xmlns="http://www.w3.org/2000/svg" xmlns:xlink="http://www.w3.org/1999/xlink">
    <title>pictogram/finance-and-data/our-shares</title>
    <defs>
        <rect id="path-1" x="0" y="0" width="140" height="140" rx="70"></rect>
    </defs>
    <g id="pictogram/finance-and-data/our-shares" stroke="none" stroke-width="1" fill="none" fill-rule="evenodd">
        <g id="Rectangle-Copy-5">
            <mask id="mask-2" fill="white">
                <use xlink:href="#path-1"></use>
            </mask>
            <use id="Mask" fill="#2167AE" xlink:href="#path-1"></use>
            <path d="M140,0 C140,0 140,46.6666667 140,140 C46.6666667,140.666667 0,140.666667 0,140" id="Rectangle-Copy-9" fill="#5495CF" mask="url(#mask-2)" transform="translate(70.000000, 70.250000) rotate(-45.000000) translate(-70.000000, -70.250000) "></path>
            <path d="M140,-3.55271368e-15 C140,-3.55271368e-15 140,46.6666667 140,140 C46.6666667,140.666667 -4.52970994e-13,140.666667 -4.52970994e-13,140" id="Rectangle-Copy-9" fill="#DAD2BD" mask="url(#mask-2)" transform="translate(70.000000, 70.250000) rotate(-10.000000) translate(-70.000000, -70.250000) "></path>
            <path d="M140,0 C140,0 140,46.6666667 140,140 C46.6666667,140.666667 0,140.666667 0,140" fill="#91BFE3" mask="url(#mask-2)" transform="translate(70.000000, 70.250000) rotate(10.000000) translate(-70.000000, -70.250000) "></path>
        </g>
    </g>
</svg>