<?xml version="1.0" encoding="UTF-8"?>
<svg width="140px" height="140px" viewBox="0 0 140 140" version="1.1" xmlns="http://www.w3.org/2000/svg" xmlns:xlink="http://www.w3.org/1999/xlink">
    <title>pictogram/products-and-services/platform</title>
    <defs>
        <path d="M140,70 C140,108.65995 108.65995,140 70,140 C31.34005,140 0,108.65995 0,70 C0,31.34005 31.34005,0 70,0 C108.65995,0 140,31.34005 140,70" id="path-1"></path>
        <path d="M28.3534857,55.9854406 C12.7203197,55.9854406 0,43.3047111 0,27.716084 C0,12.4303217 12.7203197,0 28.3534857,0 C43.9906107,0 56.7129098,12.4303217 56.7129098,27.716084 C56.7129098,43.3047111 43.9906107,55.9854406 28.3534857,55.9854406 Z" id="path-3"></path>
    </defs>
    <g id="pictogram/products-and-services/platform" stroke="none" stroke-width="1" fill="none" fill-rule="evenodd">
        <g>
            <mask id="mask-2" fill="white">
                <use xlink:href="#path-1"></use>
            </mask>
            <use id="Mask" fill="#91BFE3" xlink:href="#path-1"></use>
            <g id="Man" mask="url(#mask-2)">
                <g transform="translate(33.000000, 14.000000)">
                    <g id="head" stroke-width="1" fill="none" transform="translate(8.000000, 0.000000)">
                        <mask id="mask-4" fill="white">
                            <use xlink:href="#path-3"></use>
                        </mask>
                        <use id="Mask" fill="#DAD2BD" xlink:href="#path-3"></use>
                        <path d="M55.1650403,24.2335791 C50.7210444,16.8945525 37.1802186,11.0035361 37.1802186,11.0035361 C35.7331981,16.3779008 33.6656018,17.2053352 28.0843784,19.4788004 C21.2045977,22.281784 13.8200423,18.2386385 4.1046161,27.9550545 C3.21086815,28.8478127 -1.0638798,23.9237861 -0.650162589,23.8198619 L-0.650162589,-4.54708443 L23.4077903,-14.4484631 L44.8773728,-7.87820082 L62.6407986,16.6706701 L55.1650403,24.2335791 Z" id="Stroke-35" fill="#23366F" mask="url(#mask-4)"></path>
                    </g>
                    <path d="M0,116.723142 L0.195971311,77.9633432 C0.293956967,68.4983248 8.04769057,60.9029518 17.5176578,61.0009375 L36.518957,61.1988883 L56.8079262,61.4106957 C66.2749242,61.5086813 73.8712869,69.2653842 73.7733012,78.7313924 L73.585248,126" id="Fill-24" fill="#23366F"></path>
                </g>
            </g>
            <path d="M39.1826803,138 L39.1826803,137.057971 L39.1826803,119.200507 C39.1826803,119.200507 38.910614,112.924711 39.1826803,104.378961 C39.1826803,103.444253 39.1826803,102.376039 39.3187134,101.307826 L21.2258546,113.458818 C17.6889035,116.129372 13.3357332,117.197586 9.52670977,114.794105 C5.03750211,112.123551 3.67713635,106.381861 6.39786827,101.975459 C7.35012464,100.506666 8.57445339,99.3049047 9.93481935,98.6372712 L9.93481935,98.5037445 L11.5672577,97.4355308 L35.1015845,80.4775386 C39.8628663,75.4034951 48.025058,73 72.2395667,73 C95.5018232,73 104.208168,80.4775386 104.208168,80.4775386 L125.1578,96.6343706 L126.790238,97.7025842 C128.286623,98.3702178 129.510962,99.4384314 130.463235,100.907246 C133.319991,105.313648 132.095653,111.055337 127.606457,113.859398 C123.933461,116.262899 119.580299,115.461739 115.907302,112.924711 L98.3586005,101.841933 C98.6306667,103.5778 98.7666998,105.580701 98.6306667,107.717149 L98.6306667,136.115942" id="Stroke-2-Copy" fill="#23366F" mask="url(#mask-2)"></path>
            <path d="M15.4055772,115.987239 L15.4055772,115.987239 L47.6195099,129.267424 C52.4173319,131.220386 58.0376517,129.13721 60.2309382,124.580299 C62.2871418,120.023368 60.0938553,114.685261 55.1589503,112.602096 L24.1787357,99.8427086 L22.3966878,99.0615216 L22.3966878,99.1917195 C20.8888017,98.4105326 19.2438348,97.8897411 17.4617869,98.019939 C12.1156432,98.019939 7.86614489,102.186269 8.00322549,107.263986 C8.00322549,111.560514 11.1560788,114.424866 15.4055772,115.987239 L15.4055772,115.987239 Z" id="Stroke-2-Copy-2" fill="#DAD2BD" mask="url(#mask-2)"></path>
            <path d="M93.3242152,130.319525 L93.3242152,130.319525 L124.678111,115.425922 C129.313057,113.185293 131.357867,107.78142 129.040394,103.168357 C126.722942,98.5552947 120.997446,96.7100696 116.36252,98.9507006 L86.0991846,113.317096 L84.3270073,114.107907 L84.3270073,114.107907 C82.8274726,114.635112 81.4642593,115.557725 80.2373673,116.875743 C76.829334,120.82979 77.3746194,126.629084 81.4642593,129.924123 C85.008614,132.82376 89.3708966,132.428358 93.3242152,130.319525 Z" id="Stroke-4-Copy" fill="#DAD2BD" mask="url(#mask-2)"></path>
            <path d="M26,138.080178 C26,138.605785 26.4101749,139 26.9570747,139 L111.042919,139 C111.589822,139 112,138.605785 112,138.080178 L112,80.9198217 C112,80.3942093 111.589822,80 111.042919,80 L26.9570747,80 C26.4101749,80 26,80.3942093 26,80.9198217 L26,138.080178 Z" id="Stroke-6-Copy" fill="#5495CF" mask="url(#mask-2)"></path>
            <path d="M69,120 L69,120 C62.3023258,120 57,114.558144 57,108.00001 C57,101.302327 62.3023258,96 69,96 C75.5581352,96 81,101.302327 81,108.00001 C81,114.558144 75.5581352,120 69,120 L69,120 Z" id="Stroke-7-Copy" fill="#91BFE3" mask="url(#mask-2)"></path>
        </g>
    </g>
</svg>