<?xml version="1.0" encoding="UTF-8"?>
<svg width="140px" height="140px" viewBox="0 0 140 140" version="1.1" xmlns="http://www.w3.org/2000/svg" xmlns:xlink="http://www.w3.org/1999/xlink">
    <title>pictogram/industry-and-company-and-business/portfolio</title>
    <defs>
        <path d="M7.85815,59 C5.72734167,59 4,57.2823625 4,55.163525 L0,3.83610625 C0,1.71726875 1.72734167,0 3.85815,0 L85.1422208,0 C87.2730292,0 89,1.71726875 89,3.83610625 L93,55.163525 C93,57.2823625 91.2730292,59 89.1422208,59 L7.85815,59 Z" id="path-1"></path>
    </defs>
    <g id="pictogram/industry-and-company-and-business/portfolio" stroke="none" stroke-width="1" fill="none" fill-rule="evenodd">
        <g>
            <path d="M140,70 C140,108.65995 108.65995,140 70,140 C31.34005,140 0,108.65995 0,70 C0,31.34005 31.34005,0 70,0 C108.65995,0 140,31.34005 140,70" id="Mask" fill="#91BFE3"></path>
            <g id="Group-3" transform="translate(21.000000, 30.000000)">
                <path d="M43.319586,0 C44.0814991,-3.95704329e-15 44.7622881,0.475906696 45.0239887,1.1914655 L48.1025907,9.611 L96.0315945,9.61111111 C97.0338891,9.61111111 97.8464093,10.4236314 97.8464093,11.4259259 C97.8464093,11.4750241 97.8444169,11.5241021 97.8404369,11.5730387 L93.299611,67.4053106 C93.0885037,70.0010055 90.9203311,72 88.3160657,72 L8.33852635,72 C6.12938735,72 4.33852635,70.209139 4.33852635,68 C4.33852635,67.8917836 4.34291789,67.7836118 4.35169014,67.6757515 L8.01506928,22.6236856 C7.58436688,22.2918612 7.30686874,21.7709298 7.30686874,21.1851852 C7.30686874,21.0910124 7.31419882,20.9969825 7.32879257,20.9039474 L10.367282,1.53357701 C10.505779,0.650658861 11.2664584,1.64172717e-16 12.160173,0 L43.319586,0 Z" id="Combined-Shape" fill="#2167AE"></path>
                <g id="Fill-1-and-Fill-3-Mask" transform="translate(0.000000, 13.000000)">
                    <mask id="mask-2" fill="white">
                        <use xlink:href="#path-1"></use>
                    </mask>
                    <use id="Mask" fill="#23366F" xlink:href="#path-1"></use>
                    <path d="M59,20.5 C59,26.8513846 53.8512737,32 47.5,32 C41.1487263,32 36,26.8513846 36,20.5 C36,14.1486154 41.1487263,9 47.5,9 C53.8512737,9 59,14.1486154 59,20.5" id="Fill-1" fill="#DAD2BD" mask="url(#mask-2)"></path>
                    <path d="M69,66 L33,66 L32,51.9584976 C32,42.0402702 38.7038889,34 48.2069722,34 L49.7930278,34 C59.2961111,34 67,42.0402702 67,51.9584976 L69,66 Z" id="Fill-3" fill="#DAD2BD" mask="url(#mask-2)"></path>
                </g>
            </g>
        </g>
    </g>
</svg>