<?xml version="1.0" encoding="UTF-8"?>
<svg width="140px" height="140px" viewBox="0 0 140 140" version="1.1" xmlns="http://www.w3.org/2000/svg" xmlns:xlink="http://www.w3.org/1999/xlink">
    <title>pictogram/knowledge/presentations</title>
    <defs>
        <rect id="path-1" x="0" y="0" width="140" height="140" rx="70"></rect>
        <path d="M34.1525068,66.7896484 C15.321954,66.7896484 0,51.6617606 0,33.064802 C0,14.8291557 15.321954,0 34.1525068,0 C52.9878282,0 68.3121666,14.8291557 68.3121666,33.064802 C68.3121666,51.6617606 52.9878282,66.7896484 34.1525068,66.7896484 Z" id="path-3"></path>
    </defs>
    <g id="pictogram/knowledge/presentations" stroke="none" stroke-width="1" fill="none" fill-rule="evenodd">
        <g>
            <mask id="mask-2" fill="white">
                <use xlink:href="#path-1"></use>
            </mask>
            <use id="Mask" fill="#91BFE3" xlink:href="#path-1"></use>
            <g id="Man" mask="url(#mask-2)">
                <g transform="translate(25.000000, 20.478496)">
                    <g id="head" stroke-width="1" fill="none" transform="translate(13.099725, 0.000000)">
                        <mask id="mask-4" fill="white">
                            <use xlink:href="#path-3"></use>
                        </mask>
                        <use id="Mask" fill="#DAD2BD" xlink:href="#path-3"></use>
                        <path d="M67.8945444,28.4317387 C62.5416364,19.6764087 46.2313615,12.6485295 46.2313615,12.6485295 C44.4883879,19.0600524 41.9979147,20.0471671 35.2751868,22.7593712 C26.988313,26.1032814 18.0934251,21.2798798 6.39094296,32.8713936 C5.31440044,33.9364385 0.165355977,28.0621611 0.66368906,27.9381814 L0.66368906,-5.90308792 L29.6421155,-17.715259 L55.5027828,-9.87705134 L76.8992886,19.409321 L67.8945444,28.4317387 Z" id="Stroke-35" fill="#23366F" mask="url(#mask-4)"></path>
                    </g>
                    <path d="M0,118.521504 L0.236416492,95.9403057 C0.354624739,84.5472488 9.70859848,75.404687 21.1330076,75.5226325 L44.0558552,75.7609062 L68.5321263,76.015859 C79.9529533,76.1338045 89.1170774,85.4705594 88.9988692,96.8648076 L88.7720049,118.510782" id="Fill-24" fill="#23366F"></path>
                    <g id="Micro" stroke-width="1" fill="none" transform="translate(30.263095, 62.018088)">
                        <path d="M32.6893604,15.9487166 C32.6893604,24.7576771 25.6098424,31.8974333 16.8778455,31.8974333 C8.14466573,31.8974333 1.06514779,24.7576771 1.06514779,15.9487166 C1.06514779,7.13975615 8.14466573,0 16.8778455,0 C25.6098424,0 32.6893604,7.13975615 32.6893604,15.9487166" id="Fill-27" fill="#1FB1E6"></path>
                        <polyline id="Fill-29" fill="#23366F" points="13.8028388 56.2643567 12.0462667 30.1262154 22.5868823 30.1262154 20.8303102 56.2643567"></polyline>
                        <polyline id="Stroke-30" fill="#DDE4E3" points="13.8028388 56.2643567 12.0462667 30.1262154 22.5868823 30.1262154 20.8303102 56.2643567"></polyline>
                        <rect id="Rectangle" fill="#2167AE" x="0" y="26.1869164" width="34.6585366" height="9.64393939" rx="4"></rect>
                    </g>
                </g>
            </g>
        </g>
    </g>
</svg>