<?xml version="1.0" encoding="UTF-8"?>
<svg width="140px" height="144px" viewBox="0 0 140 144" version="1.1" xmlns="http://www.w3.org/2000/svg" xmlns:xlink="http://www.w3.org/1999/xlink">
    <title>pictogram/more/Protection-for-your-people-plant-and-premises</title>
    <defs>
        <polygon id="path-1" points="0 0 8.88 0 8.88 13.5129984 0 13.5129984"></polygon>
    </defs>
    <g id="pictogram/more/Protection-for-your-people-plant-and-premises" stroke="none" stroke-width="1" fill="none" fill-rule="evenodd">
        <g>
            <path d="M140,70 C140,108.65995 108.65995,140 70,140 C31.34005,140 0,108.65995 0,70 C0,31.34005 31.34005,0 70,0 C108.65995,0 140,31.34005 140,70" id="Mask" fill="#91BFE3"></path>
            <g id="gearwheel" transform="translate(47.000000, 24.000000)">
                <path d="M40,23 C40,32.3887909 32.3887909,40 23,40 C13.6112091,40 6,32.3887909 6,23 C6,13.6110545 13.6112091,6 23,6 C32.3887909,6 40,13.6110545 40,23" id="Fill-1" fill="#23366F"></path>
                <path d="M29,23 C29,26.31365 26.31365,29 23,29 C19.68635,29 17,26.31365 17,23 C17,19.6862 19.68635,17 23,17 C26.31365,17 29,19.6862 29,23" id="Fill-3" fill="#5495CF"></path>
                <path d="M23.5,14 L23.5,14 C21.0148,14 19,11.9105778 19,9.33333333 L19,4.66666667 C19,2.08926667 21.0148,0 23.5,0 C25.9852,0 28,2.08926667 28,4.66666667 L28,9.33333333 C28,11.9105778 25.9852,14 23.5,14" id="Fill-5" fill="#23366F"></path>
                <path d="M29.2983596,16.5934438 L29.2983596,16.5934438 C27.5672135,14.7180355 27.5672135,11.6774603 29.2983596,9.80205201 L32.4327742,6.40643614 C34.1639203,4.53118795 36.9706052,4.53118795 38.7017513,6.40643614 C40.4327496,8.2818444 40.4327496,11.3224197 38.7017513,13.1978279 L35.5673366,16.5934438 C33.8361905,18.4688521 31.0295057,18.4688521 29.2983596,16.5934438" id="Fill-7" fill="#23366F"></path>
                <path d="M32,22.5 L32,22.5 C32,20.01465 34.0894222,18 36.6666667,18 L41.3333333,18 C43.9105778,18 46,20.01465 46,22.5 C46,24.9852 43.9105778,27 41.3333333,27 L36.6666667,27 C34.0894222,27 32,24.9852 32,22.5" id="Fill-9" fill="#23366F"></path>
                <path d="M29.2983596,29.4065562 L29.2983596,29.4065562 C31.0295057,27.5311479 33.8361905,27.5311479 35.5673366,29.4065562 L38.7017513,32.8023321 C40.4327496,34.6777404 40.4327496,37.7181556 38.7017513,39.5935639 C36.9706052,41.468812 34.1639203,41.468812 32.4327742,39.5935639 L29.2983596,36.197948 C27.5672135,34.3225397 27.5672135,31.2819645 29.2983596,29.4065562" id="Fill-11" fill="#23366F"></path>
                <g id="Group-15" transform="translate(19.000000, 32.000045)">
                    <mask id="mask-2" fill="white">
                        <use xlink:href="#path-1"></use>
                    </mask>
                    <g id="Clip-14"></g>
                    <path d="M4.44,0 L4.44,0 C6.892064,0 8.88,2.01659652 8.88,4.50434783 L8.88,9.00869565 C8.88,11.4962968 6.892064,13.5130435 4.44,13.5130435 C1.987936,13.5130435 0,11.4962968 0,9.00869565 L0,4.50434783 C0,2.01659652 1.987936,0 4.44,0" id="Fill-13" fill="#23366F" mask="url(#mask-2)"></path>
                </g>
                <path d="M16.7016404,29.4065562 L16.7016404,29.4065562 C18.4327865,31.2819645 18.4327865,34.3225397 16.7016404,36.197948 L13.5672258,39.5935639 C11.8360797,41.468812 9.02939483,41.468812 7.29824875,39.5935639 C5.56725042,37.7181556 5.56725042,34.6777404 7.29824875,32.8023321 L10.4326634,29.4065562 C12.1638095,27.5311479 14.9704943,27.5311479 16.7016404,29.4065562" id="Fill-16" fill="#23366F"></path>
                <path d="M14,22.5 L14,22.5 C14,24.9852 11.9105778,27 9.33333333,27 L4.66666667,27 C2.08942222,27 0,24.9852 0,22.5 C0,20.01465 2.08942222,18 4.66666667,18 L9.33333333,18 C11.9105778,18 14,20.01465 14,22.5" id="Fill-18" fill="#23366F"></path>
                <path d="M16.7016404,16.5934438 L16.7016404,16.5934438 C14.9704943,18.4688521 12.1638095,18.4688521 10.4326634,16.5934438 L7.29824875,13.1978279 C5.56725042,11.3224197 5.56725042,8.2818444 7.29824875,6.40643614 C9.02939483,4.53118795 11.8360797,4.53118795 13.5672258,6.40643614 L16.7016404,9.80205201 C18.4327865,11.6774603 18.4327865,14.7180355 16.7016404,16.5934438" id="Fill-20" fill="#23366F"></path>
            </g>
            <path d="M29,70.8390107 C34.2407955,65.4166196 40.0890931,59.3619144 46.242595,53 C47.4837596,54.0916365 48.6173759,55.2429253 49.8992344,56.1824485 C55.7329984,60.4565335 61.6336167,64.6321923 67.4528472,68.9211903 C70.3711826,71.0746372 73.5104278,73.0640403 75.9578764,75.7066358 C80.9457882,81.0992008 85.4831603,86.93021 90.302483,92.4898014 C92.5406486,95.0757272 93.4591685,98.2134365 90.8576643,100.348988 C89.026438,101.84626 84.9396058,102.869296 83.3583563,101.792573 C79.2337369,98.988916 76.0305441,94.7983442 72.2576364,91.3951823 C70.975778,90.2379283 68.3451315,88.2961461 67.5022613,88.9971611 C66.659391,89.6981761 67.9498944,92.8268367 68.8887612,94.2495433 C73.4610138,101.219911 82.2830739,109.22019 90.230015,111.886646 C93.840147,113.097587 97.3369174,114.696268 100.804621,116.303896 C103.946773,117.759412 106.33318,120.572016 104.382779,123.757447 C101.416321,128.581407 93.5175024,127.04727 91.7938242,126.477591 C84.375904,124.028865 75.5437703,120.168909 68.1636373,117.606844 C58.5802193,114.278247 50.6259115,106.293336 45.7252009,97.1426783" id="Fill-4-Copy" fill="#2167AE" transform="translate(67.044195, 90.082980) rotate(-45.000000) translate(-67.044195, -90.082980) "></path>
        </g>
    </g>
</svg>