<?xml version="1.0" encoding="UTF-8"?>
<svg width="140px" height="140px" viewBox="0 0 140 140" version="1.1" xmlns="http://www.w3.org/2000/svg" xmlns:xlink="http://www.w3.org/1999/xlink">
    <title>pictogram/industry-and-company-and-business/purpose</title>
    <defs>
        <path d="M37.0678931,0.0155190333 C40.7379459,0.158585536 44.4058605,0.458803691 48.0736369,0.78868634 L52.4750303,1.1906253 C54.6758219,1.39055508 56.8768518,1.58280593 59.0785519,1.73984062 C62.4896997,1.98574424 65.3578868,3.55494811 65.0284083,6.90455206 C64.7922669,9.25815578 62.6258361,12.8713785 60.7463654,13.2281323 C55.8473345,14.162194 50.6191534,13.4640116 45.5449059,13.7254614 C43.820193,13.8135701 40.5869977,14.3006706 40.4866909,15.3923624 C40.3863841,16.4840542 43.5112049,17.7838276 45.1810895,18.1259539 C53.3429544,19.8216773 65.2381443,19.2405901 72.7429496,15.5067235 C76.1519631,13.8102393 79.7549911,12.4680873 83.3437927,11.1528159 C86.5948344,9.96018375 90.2710912,10.2615503 91.144389,13.8931324 C92.4578412,19.4017894 85.7877342,23.9022989 84.1660857,24.7182994 C77.1893135,28.2320506 68.2146504,31.7479108 61.1844549,35.1547994 C52.0542818,39.5776261 40.7835522,39.5559865 30.8477343,36.5508199 L0.421729586,29.7778212 C0.293322058,22.2378096 0.147369827,13.8211156 1.77635684e-15,4.97137984 C1.64953944,4.86564754 3.26521133,4.87814385 4.83596538,4.63607628 C11.983294,3.53321666 19.1082978,2.31348605 26.2558948,1.23144832 C29.8421864,0.690590482 33.4686884,-0.122470651 37.0678931,0.0155190333 Z" id="path-1"></path>
    </defs>
    <g id="pictogram/industry-and-company-and-business/purpose" stroke="none" stroke-width="1" fill="none" fill-rule="evenodd">
        <g id="purpose">
            <path d="M140,70 C140,108.65995 108.65995,140 70,140 C31.34005,140 0,108.65995 0,70 C0,31.34005 31.34005,0 70,0 C108.65995,0 140,31.34005 140,70" id="Mask" fill="#DAD2BD"></path>
            <path d="M70.4353556,56 C84.5542222,56 96,67.3519389 96,81.3553377 L96,113.754098 L44,113.754098 L44,81.3553377 C44,67.3519389 55.4457778,56 69.5646444,56 L70.4353556,56 Z M70.5,20 C79.6126971,20 87,27.3871438 87,36.5 C87,45.6128562 79.6126971,53 70.5,53 C61.3873029,53 54,45.6128562 54,36.5 C54,27.3871438 61.3873029,20 70.5,20 Z" id="Combined-Shape" fill="#23366F"></path>
            <g id="Rectangle" transform="translate(29.113616, 81.598926)">
                <mask id="mask-2" fill="white">
                    <use xlink:href="#path-1"></use>
                </mask>
                <use id="Combined-Shape" fill="#2167AE" xlink:href="#path-1"></use>
            </g>
        </g>
    </g>
</svg>