<?xml version="1.0" encoding="UTF-8"?>
<svg width="140px" height="140px" viewBox="0 0 140 140" version="1.1" xmlns="http://www.w3.org/2000/svg" xmlns:xlink="http://www.w3.org/1999/xlink">
    <title>pictogram/more/pylone</title>
    <g id="pictogram/more/pylone" stroke="none" stroke-width="1" fill="none" fill-rule="evenodd">
        <g>
            <path d="M140,70 C140,108.65995 108.65995,140 70,140 C31.34005,140 0,108.65995 0,70 C0,31.34005 31.34005,0 70,0 C108.65995,0 140,31.34005 140,70" id="Mask" fill="#91BFE3"></path>
            <g id="Pylone" transform="translate(30.000000, 21.000000)">
                <polygon id="Path-3" fill="#23366F" points="61.6772461 57.2983398 17.6 67.2 2.63975582 75.4110328 2.63975582 82.4 80 83 80 73.574604 65.4804688 70.8005342"></polygon>
                <path d="M33.1090511,0.73413495 L14.623474,67.761696 C14.5376711,68.072812 14.3069938,68.3233937 14.0040257,68.4345945 L0.655438093,73.3340333 C0.261714216,73.478545 2.61317273e-15,73.8533901 0,74.2727969 L0,81.4 C-4.33869274e-17,81.9522847 0.44771525,82.4 1,82.4 L35.416724,82.4 L35.416724,82.4 L44.5821761,82.4 L71.8629527,82.4 L71.8629527,79.7655534 L44.5821761,79.7655534 L35.416724,79.7655534 L2.63975582,79.7655534 L2.63975582,75.4110328 L15.978222,70.515353 L60.1127396,58.6010684 L63.3266423,70.2617875 L77.3591443,75.4110328 L77.3591443,79.6799339 L80,79.6799339 L80,74.2728335 C80,73.8534086 79.7382637,73.4785514 79.3445158,73.3340529 L65.9938213,68.4345848 C65.6908265,68.3233911 65.4601271,68.072794 65.3743228,67.7616549 L46.8898412,0.734149386 C46.7702353,0.300440793 46.3757254,-2.85820258e-15 45.9258269,0 L34.0730614,0 C33.6231684,3.04688604e-16 33.2286619,0.300433508 33.1090511,0.73413495 Z" id="Path" fill="#23366F"></path>
                <polygon id="Path" fill="#23366F" points="34.5706145 2.4 35.2012229 2.4 43.0924366 2.4 43.7230449 2.4 47.2 15.2667342 29.6 20.8"></polygon>
                <polygon id="Path" fill="#23366F" points="22.4956576 49.5642824 54.5246906 39.2 59.2 56.0441217 17.6 67.2"></polygon>
                <path d="M37.5193878,4.4 L43.1947991,4.4 C43.664631,4.4 44.0711049,4.72707347 44.1716379,5.18602347 L46.5765846,16.1650087 C46.6843865,16.6571426 46.4092525,17.1526233 45.9345203,17.3212835 L34.4729046,21.393303 C33.9524876,21.5781939 33.3807226,21.3061962 33.1958318,20.7857792 C33.1326615,20.6079723 33.1210878,20.4159208 33.1624479,20.2318145 L36.5437056,5.1808098 C36.6462497,4.72435483 37.0515561,4.4 37.5193878,4.4 Z" id="Path" fill="#1FB1E6"></path>
                <path d="M25.5164289,48.5820944 L50.6647927,39.5756395 C51.1847392,39.3894296 51.757192,39.6599765 51.9434019,40.179923 C51.9555263,40.2137775 51.9658158,40.2482613 51.9742254,40.2832242 L55.5431299,55.1207949 C55.6675979,55.6382653 55.3649412,56.1625569 54.8545834,56.3135627 L22.4263866,65.9084901 C21.8967973,66.0651861 21.3404531,65.7628965 21.1837571,65.2333072 C21.1339385,65.0649343 21.1293318,64.886412 21.1704002,64.7156938 L24.8813287,49.2896507 C24.9601959,48.961806 25.1989755,48.6957849 25.5164289,48.5820944 Z" id="Path" fill="#1FB1E6"></path>
                <polygon id="Path" fill="#23366F" points="29.9036238 24.2975439 48.8 18.0523438 52.8648438 36.0992188 24 44.8"></polygon>
            </g>
        </g>
    </g>
</svg>