<?xml version="1.0" encoding="UTF-8"?>
<svg width="140px" height="140px" viewBox="0 0 140 140" version="1.1" xmlns="http://www.w3.org/2000/svg" xmlns:xlink="http://www.w3.org/1999/xlink">
    <title>pictogram/products-and-services/regulatory-and-tax-information</title>
    <g id="pictogram/products-and-services/regulatory-and-tax-information" stroke="none" stroke-width="1" fill="none" fill-rule="evenodd">
        <g>
            <path d="M140,70 C140,108.65995 108.65995,140 70,140 C31.34005,140 0,108.65995 0,70 C0,31.34005 31.34005,0 70,0 C108.65995,0 140,31.34005 140,70" id="Mask" fill="#91BFE3"></path>
            <g id="Group-2" transform="translate(20.000000, 20.000000)">
                <rect id="Rectangle" fill="#23366F" fill-rule="nonzero" x="0" y="0" width="100" height="100" rx="50"></rect>
                <path d="M50.7071068,98.7071068 L60,108 L60,108 L40,108 L49.2928932,98.7071068 C49.6834175,98.3165825 50.3165825,98.3165825 50.7071068,98.7071068 Z" id="Triangle" fill="#23366F" transform="translate(50.000000, 103.000000) rotate(180.000000) translate(-50.000000, -103.000000) "></path>
                <path d="M54.7012532,27.827264 C53.6066833,26.6941557 52.0738231,26.0924895 50.5007311,26.1785083 C49.2542904,26.189005 48.042499,26.5899784 47.0358077,27.3250276 C45.9762307,28.0150312 45.351723,29.2063997 45.3870521,30.4703461 C45.4532341,31.7633232 46.0955266,32.9585456 47.1372696,33.7272726 C48.4370683,34.7628424 49.8455017,35.6541698 51.3377917,36.385574 C53.0288231,37.2378538 54.8568281,38.0833695 56.8218066,38.9221211 C58.729524,39.7399807 60.552679,40.7424611 62.2652367,41.9152467 C63.859965,42.993486 65.259788,44.3349831 66.4048816,45.8824064 C67.526132,47.4605891 68.1047182,49.3601323 68.0536373,51.295398 C68.1043411,53.472895 67.4494541,55.6083961 66.1867386,57.3831111 C64.9202987,59.1420887 63.1333187,60.4588108 61.0781327,61.1473471 C62.3087604,62.0469142 63.2814436,63.254021 63.8987731,64.6477821 C64.4901387,66.0274306 64.7889788,67.5147215 64.7764184,69.0157163 C64.8150599,70.7508745 64.3725782,72.4628575 63.4979986,73.9619832 C62.6577677,75.3718589 61.5224878,76.5832856 60.1700488,77.5131492 C58.7648931,78.4742328 57.2075469,79.1911609 55.5636792,79.6337026 C53.8989079,80.0991965 52.1786246,80.3364181 50.4500002,80.3388627 C48.4304728,80.3552116 46.4181669,80.0957794 44.468822,79.5677523 C42.7292704,79.0996774 41.0963417,78.300438 39.6595287,77.2138366 C38.2796989,76.1413412 37.1825831,74.7481783 36.4634793,73.1553612 C35.6623076,71.3242657 35.2726641,69.3396816 35.3220331,67.3415952 L43.6622001,67.3415952 C43.7467516,69.269371 44.3622871,70.7152028 45.5088064,71.6790908 C46.6553257,72.6429787 48.2364401,73.1249226 50.2521495,73.1249226 C51.5275644,73.1676688 52.7796778,72.7759362 53.8033155,72.013915 C54.7975284,71.2055395 55.3367673,69.9643442 55.2491474,68.6859651 C55.2827445,67.3696381 54.6803709,66.1176829 53.6308303,65.3225036 C52.3273013,64.2658018 50.9058289,63.3635499 49.3947966,62.6337637 C47.7037652,61.7814839 45.8436306,60.9190578 43.8143929,60.0464856 C41.845495,59.2018107 39.9558858,58.1831535 38.168039,57.0026291 C36.4836722,55.9002333 35.0039399,54.5131989 33.7950317,52.9035689 C32.5817653,51.2581513 31.9516163,49.2552417 32.0042294,47.2115571 C31.9403165,45.0299098 32.6022933,42.8887449 33.8863474,41.123844 C35.2506606,39.3890829 37.1019676,38.1012939 39.2029502,37.4255583 C38.3363138,36.5054079 37.6098392,35.4627032 37.0468851,34.3309708 C36.5283059,33.1686981 36.2769403,31.9049361 36.3112865,30.6326851 C36.2761471,28.8831636 36.7049888,27.1555443 37.5541946,25.625541 C38.3636617,24.1923805 39.4624383,22.9432996 40.7806825,21.9576939 C42.1382014,20.9561505 43.6638361,20.2053596 45.2855902,19.7407517 C48.7598945,18.7212503 52.4584805,18.7547936 55.9137227,19.8371405 C57.5729531,20.3658451 59.10616,21.2291373 60.4186304,22.3736876 C61.7069593,23.4977825 62.744088,24.8806208 63.462487,26.432163 C64.2310318,28.1777099 64.6084966,30.0702281 64.5684215,31.9770551 L56.2130353,31.9770551 C56.2680565,30.4498087 55.7257638,28.9612334 54.7012532,27.827264 Z M44.7529153,42.1384629 C44.4599297,41.9593864 44.113832,41.8876563 43.7738081,41.9355391 C43.2775122,41.9815679 42.8018491,42.1564441 42.3939265,42.4428485 C41.9725276,42.7323842 41.6079662,43.0969456 41.3184305,43.5183445 C41.0224771,43.9554526 40.7853848,44.4296371 40.6132704,44.9286647 C40.4392287,45.4173849 40.3483446,45.931823 40.3443964,46.450593 C40.3467398,47.0906378 40.522023,47.7181515 40.8517058,48.2667607 C41.2489524,48.9075245 41.8209813,49.4214704 42.5004615,49.7481043 L54.5997913,56.3431268 C54.8230074,56.4344425 55.1071007,56.5359044 55.4723635,56.6475125 C55.8438875,56.7609039 56.2304477,56.8173485 56.6188828,56.8149994 C57.0603607,56.814816 57.4922502,56.6861305 57.8617909,56.4445887 C58.2446311,56.1962523 58.5754631,55.8757588 58.835825,55.5009932 C59.1010167,55.1283595 59.3159375,54.722398 59.4750349,54.2935967 C59.6232203,53.918385 59.7039397,53.5199402 59.7134703,53.1166389 C59.741988,52.1867816 59.4175674,51.2805789 58.8053864,50.5800917 C58.1982258,49.9048471 57.4812711,49.337115 56.684833,48.9008975 L45.5899759,42.5899683 C45.3227929,42.4546857 45.0437727,42.3041839 44.7529153,42.1384629 Z" id="Shape" fill="#DAD2BD" fill-rule="nonzero"></path>
            </g>
        </g>
    </g>
</svg>