<?xml version="1.0" encoding="UTF-8"?>
<svg width="140px" height="140px" viewBox="0 0 140 140" version="1.1" xmlns="http://www.w3.org/2000/svg" xmlns:xlink="http://www.w3.org/1999/xlink">
    <title>pictogram/finance-and-data/risk-room</title>
    <defs>
        <path d="M140,70 C140,108.65995 108.65995,140 70,140 C31.34005,140 0,108.65995 0,70 C0,31.34005 31.34005,0 70,0 C108.65995,0 140,31.34005 140,70" id="path-1"></path>
    </defs>
    <g id="pictogram/finance-and-data/risk-room" stroke="none" stroke-width="1" fill="none" fill-rule="evenodd">
        <g>
            <mask id="mask-2" fill="white">
                <use xlink:href="#path-1"></use>
            </mask>
            <use id="Fill-32" fill="#2167AE" xlink:href="#path-1"></use>
            <g id="room" mask="url(#mask-2)">
                <g transform="translate(13.000000, 28.000000)">
                    <polygon id="Path-4" fill="#5495CF" points="11 62.9074038 57.7626301 41 102 62.9074038 57.7626301 99"></polygon>
                    <polygon id="Path-5" fill="#5495CF" points="51 0 51 35.2616077 6.78123718 55 0 11.3303831"></polygon>
                    <g id="Group-7" stroke-width="1" fill="none" transform="translate(10.000000, 8.000000)">
                        <path d="M4.00301205,37.7848253 L1.09036145,38.9073211 C0.53313253,39.1207871 0.078313253,38.9528925 0.0753012048,38.5331558 L0,31.3640538 C0.0610821623,30.869751 0.437947573,30.4354701 0.996987952,30.2151747 L3.90963855,29.0926789 C4.46686747,28.8792129 4.92168675,29.0471075 4.9246988,29.4668442 L5,36.6359462 C4.93891784,37.130249 4.56205243,37.5645299 4.00301205,37.7848253 Z" id="Path-Copy-3" fill="#23366F" fill-rule="nonzero"></path>
                        <path d="M12.5383875,34.4718655 L8.61643452,35.974281 C8.35139746,36.0758594 8.13400751,35.867978 8.12805162,35.5018233 L8,23.3596601 C8,23.0005922 8.20845612,22.6273507 8.47349319,22.5257722 L12.3865123,21.025719 C12.6485715,20.9241406 12.8689394,21.132022 12.8719173,21.4981767 L13,33.6379776 C13.0029469,33.9970455 12.7915128,34.3702871 12.5383875,34.4718655 Z" id="Path-Copy-4" fill="#23366F" fill-rule="nonzero"></path>
                        <path d="M20.0316901,31.752516 L17.185446,32.905173 C16.6455399,33.1234421 16.2053991,32.9517697 16.2024648,32.5250414 L16,12.4148558 C16.060842,11.9117599 16.4264919,11.4700148 16.9683099,11.2450315 L19.814554,10.094827 C20.3544601,9.87655794 20.7946009,10.0482303 20.8004695,10.4749586 L21,30.5851442 C20.9431286,31.0888508 20.5761129,31.5313164 20.0316901,31.752516 Z" id="Path-Copy-5" fill="#23366F" fill-rule="nonzero"></path>
                        <path d="M26.5638325,29.0925198 L24.6421292,29.8601968 C23.8446077,30.180872 23.1912875,29.9306481 23.1706873,29.3063032 L23,12.6068987 C23,11.9801245 23.6356629,11.2148768 24.4361274,10.9063484 L26.3578306,10.1386713 C27.1553521,9.8204255 27.8086724,10.06822 27.8292726,10.6949943 L28,27.3919694 C28.0058456,28.0090262 27.3642969,28.7742739 26.5638325,29.0925198 Z" id="Path-Copy-6" fill="#23366F" fill-rule="nonzero"></path>
                        <path d="M34.9831493,26.786578 L32.2812318,27.8986693 C31.7147008,28.1309728 31.25276,27.9505668 31.2469494,27.4933738 L31,2.44907893 C31.066122,1.91570594 31.450322,1.44883367 32.0168507,1.21342199 L34.7216734,0.101330746 C35.2852992,-0.130972759 35.7501453,0.0494331543 35.7530506,0.506626222 L36,25.5484498 C35.9342958,26.0825653 35.5501211,26.5503406 34.9831493,26.786578 Z" id="Path-Copy-7" fill="#23366F" fill-rule="nonzero"></path>
                    </g>
                    <polygon id="Path-6" fill="#5495CF" points="65 0 65 35.2073418 107.644803 55 116 13.390888"></polygon>
                    <g id="Kurve-Copy-3" stroke-width="1" fill="none" transform="translate(89.802298, 25.680958) rotate(8.000000) translate(-89.802298, -25.680958) translate(72.498930, 14.204066)">
                        <polyline id="Path" stroke="#23366F" stroke-width="1.89570552" stroke-linecap="round" points="2.54354763 20.7653143 10.1939002 14.7653143 17.6931743 11.9584212 24.9770814 14.3912646 33.5435476 2.7653143"></polyline>
                        <ellipse id="Oval" stroke="#23366F" stroke-width="3.79141104" fill="#23366F" fill-rule="nonzero" transform="translate(1.931054, 20.968780) rotate(-25.530000) translate(-1.931054, -20.968780) " cx="1.93105424" cy="20.9687803" rx="1.41128534" ry="1.52573582"></ellipse>
                        <ellipse id="Oval" stroke="#23366F" stroke-width="3.79141104" fill="#23366F" fill-rule="nonzero" transform="translate(9.533723, 14.299850) rotate(-25.530000) translate(-9.533723, -14.299850) " cx="9.53372312" cy="14.2998497" rx="1.41128534" ry="1.52573582"></ellipse>
                        <ellipse id="Oval" stroke="#23366F" stroke-width="3.79141104" fill="#23366F" fill-rule="nonzero" transform="translate(16.998791, 11.637996) rotate(-25.530000) translate(-16.998791, -11.637996) " cx="16.9987906" cy="11.637996" rx="1.41128534" ry="1.52573582"></ellipse>
                        <ellipse id="Oval" stroke="#23366F" stroke-width="3.79141104" fill="#23366F" fill-rule="nonzero" transform="translate(24.293929, 13.850368) rotate(-25.530000) translate(-24.293929, -13.850368) " cx="24.2939288" cy="13.8503684" rx="1.41128534" ry="1.52573582"></ellipse>
                        <ellipse id="Oval" stroke="#23366F" stroke-width="3.79141104" fill="#23366F" fill-rule="nonzero" transform="translate(32.675682, 1.985003) rotate(-25.530000) translate(-32.675682, -1.985003) " cx="32.6756818" cy="1.98500347" rx="1.41128534" ry="1.52573582"></ellipse>
                    </g>
                </g>
            </g>
            <g id="login" mask="url(#mask-2)">
                <g transform="translate(36.643158, 50.000000)" id="Fill-1-and-Fill-3-Mask">
                    <path d="M54.7750498,20.5 C54.7750498,31.8220335 45.6099413,41 34.3042105,41 C22.9984798,41 13.8333713,31.8220335 13.8333713,20.5 C13.8333713,9.17796655 22.9984798,0 34.3042105,0 C45.6099413,0 54.7750498,9.17796655 54.7750498,20.5" id="Fill-1" fill="#DAD2BD"></path>
                    <path d="M70.5031579,105 L0,105 L0,78.233386 C0,59.3267651 15.5185284,44 34.6613108,44 L35.8418471,44 C54.9846295,44 70.5031579,59.3267651 70.5031579,78.233386 L70.5031579,105 Z" id="Fill-3" fill="#23366F"></path>
                </g>
            </g>
        </g>
    </g>
</svg>