<?xml version="1.0" encoding="UTF-8"?>
<svg width="140px" height="140px" viewBox="0 0 140 140" version="1.1" xmlns="http://www.w3.org/2000/svg" xmlns:xlink="http://www.w3.org/1999/xlink">
    <title>pictogram/products-and-services/sales</title>
    <g id="pictogram/products-and-services/sales" stroke="none" stroke-width="1" fill="none" fill-rule="evenodd">
        <g>
            <path d="M140,70 C140,108.65995 108.65995,140 70,140 C31.34005,140 0,108.65995 0,70 C0,31.34005 31.34005,0 70,0 C108.65995,0 140,31.34005 140,70" id="Mask" fill="#DAD2BD"></path>
            <g id="hands" transform="translate(17.000000, 42.000000)">
                <path d="M-1.49213975e-13,13.9575431 C4.18440997,9.71497271 8.85386801,4.97766918 13.7670105,4.26325641e-14 C14.7579939,0.854114824 15.6631075,1.75490259 16.6865822,2.49000141 C21.3444362,5.83411765 26.0556687,9.10122353 30.7019187,12.457008 C33.0320061,14.1419012 35.5384747,15.6984438 37.4925918,17.7660551 C41.4750918,21.9852889 45.0978671,26.5475689 48.9457605,30.8974871 C50.7327797,32.9207591 51.4661538,35.3757558 49.3890341,37.0466471 C47.9269274,38.2181379 44.6638767,39.0185788 43.4013593,38.1761322 C40.1081381,35.982504 37.5506119,32.7037299 34.538208,30.0410386 C33.5147334,29.1355835 32.0201355,28.7762019 30.7413724,28.1647864 C31.089493,29.5486391 31.0987762,31.1611892 31.848396,32.2743388 C35.499021,37.728072 40.2845192,41.774616 46.6295979,43.8608965 C49.5120367,44.8083572 52.3039642,46.059192 55.0726836,47.3170278 C57.5814729,48.4558475 59.4868531,50.6564767 57.9295935,53.1488118 C56.8945149,54.8057012 54.179174,55.6714842 52.0440341,56.2595633 C50.8325743,56.5932748 49.2544274,55.7228245 47.8781906,55.2770979 C41.9554983,53.3611736 36.0328059,51.4475831 30.1402841,49.4429802 C22.4885927,46.8386301 17.2667832,41.6976056 13.3539073,34.5379765 C9.5129764,27.5113652 4.65785402,21.0471628 -1.49213975e-13,13.9575431" id="Fill-4" fill="#1FB1E6"></path>
                <path d="M106.202076,48.4592859 C100.605766,53.8920162 95.7212479,58.6293198 90.6383614,63.5649833 C90.2392918,63.2872793 89.4318177,62.9092285 88.8740537,62.3048139 C84.2065731,57.2594689 79.1680277,52.9212191 72.6778958,50.0811706 C69.4083256,48.6506449 66.8855523,45.3275315 64.2810981,42.6181673 C61.2565706,39.4700774 58.5914391,35.9812751 55.6135865,32.7865122 C53.8446113,30.8915908 52.3626862,28.6722925 54.6450842,26.824044 C56.2273602,25.5428718 59.1702067,24.8334431 61.0862076,25.3655146 C63.2519186,25.9699292 65.0605674,28.1355536 66.8155401,29.8344487 C68.3791461,31.346652 69.5530175,33.2579089 71.1166235,34.7701122 C71.6580513,35.2928492 72.8482588,35.1458294 73.7444151,35.3068511 C73.7537501,34.3897278 74.1621547,33.0735508 73.709409,32.6208233 C69.9497534,28.8543169 66.3651282,24.7704346 62.0523761,21.7436944 C58.6777875,19.3797099 54.341698,18.3809089 50.4326829,16.7846944 C47.4524965,15.5711979 45.2004371,13.6879447 46.2692902,10.1804732 C47.3731494,6.55865294 50.423348,6.48630988 53.4595442,7.265748 C57.972998,8.42557059 62.430442,9.79308777 66.9298934,11.0042506 C79.6837843,14.4393791 88.8880562,21.7693645 93.9592739,34.3103838 C95.3641856,37.7898515 98.4050492,40.6625711 100.91382,43.6286365 C102.391078,45.3695372 104.300077,46.7463889 106.202076,48.4592859" id="Fill-1" fill="#23366F"></path>
            </g>
        </g>
    </g>
</svg>