<?xml version="1.0" encoding="UTF-8"?>
<svg width="140px" height="140px" viewBox="0 0 140 140" version="1.1" xmlns="http://www.w3.org/2000/svg" xmlns:xlink="http://www.w3.org/1999/xlink">
    <title>pictogram/more/search</title>
    <g id="pictogram/more/search" stroke="none" stroke-width="1" fill="none" fill-rule="evenodd">
        <g>
            <path d="M140,70 C140,108.65995 108.65995,140 70,140 C31.34005,140 0,108.65995 0,70 C0,31.34005 31.34005,0 70,0 C108.65995,0 140,31.34005 140,70" id="Mask" fill="#DAD2BD"></path>
            <g id="search" transform="translate(32.000000, 28.913043)" stroke="#23366F">
                <path d="M52.059038,53.9664158 L52.6742347,53.5542513 C53.9544438,52.6965471 55.6762587,52.9482442 56.6573849,54.1365132 L74.5845138,75.8485528 C75.6394221,77.1261813 75.4588717,79.0170759 74.1812432,80.0719842 C74.1041808,80.1356129 74.0239871,80.1953511 73.940962,80.2509755 L73.3257653,80.6631401 C72.0455562,81.5208442 70.3237413,81.2691471 69.3426151,80.0808781 L51.4154862,58.3688385 C50.3605779,57.09121 50.5411283,55.2003154 51.8187568,54.1454071 C51.8958192,54.0817784 51.9760129,54.0220402 52.059038,53.9664158 Z" id="Rectangle" stroke-width="3" fill="#23366F"></path>
                <circle id="Oval" stroke-width="9" fill="#DDE4E3" cx="31.5" cy="31.5" r="31.5"></circle>
            </g>
        </g>
    </g>
</svg>