<?xml version="1.0" encoding="UTF-8"?>
<svg width="140px" height="140px" viewBox="0 0 140 140" version="1.1" xmlns="http://www.w3.org/2000/svg" xmlns:xlink="http://www.w3.org/1999/xlink">
    <title>pictogram/digital-security/security</title>
    <g id="pictogram/digital-security/security" stroke="none" stroke-width="1" fill="none" fill-rule="evenodd">
        <g>
            <path d="M140,70 C140,108.65995 108.65995,140 70,140 C31.34005,140 0,108.65995 0,70 C0,31.34005 31.34005,0 70,0 C108.65995,0 140,31.34005 140,70" id="Mask-Copy" fill="#91BFE3"></path>
            <g id="Schloss-Copy" transform="translate(32.999907, 27.000093)">
                <path d="M71.5272039,77.8834261 L3.24119666,77.8834261 C1.451124,77.8834261 0,76.4323021 0,74.6422294 L0,31.2789185 C0,29.4888459 1.451124,28.0380334 3.24119666,28.0380334 L71.5272039,28.0380334 C73.3172766,28.0380334 74.7680891,29.4888459 74.7680891,31.2789185 L74.7680891,74.6422294 C74.7680891,76.4323021 73.3172766,77.8834261 71.5272039,77.8834261" id="Fill-4" fill="#23366F"></path>
                <path d="M15.5767787,24.9226964 L15.5767787,21.8073593 C15.5767787,9.7634663 25.340245,0 37.384138,0 C49.428031,0 59.1914973,9.7634663 59.1914973,21.8073593 L59.1914973,24.9226964" id="Stroke-6" stroke="#23366F" stroke-width="12.4613482"></path>
                <path d="M43.6148121,49.8453927 C43.6148121,46.4041914 40.8253393,43.6147186 37.384138,43.6147186 C33.9432482,43.6147186 31.1534639,46.4041914 31.1534639,49.8453927 C31.1534639,52.150119 32.4083217,54.1579538 34.2688009,55.2358604 L34.2688009,62.3067409 L40.499475,62.3067409 L40.499475,55.2358604 C42.3599543,54.1579538 43.6148121,52.150119 43.6148121,49.8453927" id="Fill-8" fill="#DAD2BD"></path>
            </g>
        </g>
    </g>
</svg>