<?xml version="1.0" encoding="UTF-8"?>
<svg width="140px" height="140px" viewBox="0 0 140 140" version="1.1" xmlns="http://www.w3.org/2000/svg" xmlns:xlink="http://www.w3.org/1999/xlink">
    <title>pictogram/finance-and-data/shareholder</title>
    <defs>
        <path d="M70,140 C31.34005,140 0,108.65995 0,70 C0,31.34005 31.34005,0 70,0 C108.65995,0 140,31.34005 140,70 C140,108.65995 108.65995,140 70,140 Z" id="path-1"></path>
        <path d="M25.9092197,51.074437 C11.6237404,51.074437 0,39.5060522 0,25.2848486 C0,11.3399426 11.6237404,0 25.9092197,0 C40.1983166,0 51.8238659,11.3399426 51.8238659,25.2848486 C51.8238659,39.5060522 40.1983166,51.074437 25.9092197,51.074437 Z" id="path-3"></path>
        <path d="M24.44266,47.1456342 C10.9657928,47.1456342 1.13686838e-13,36.4671251 1.13686838e-13,23.3398602 C1.13686838e-13,10.4676393 10.9657928,0 24.44266,0 C37.9229402,0 48.8904395,10.4676393 48.8904395,23.3398602 C48.8904395,36.4671251 37.9229402,47.1456342 24.44266,47.1456342 Z" id="path-5"></path>
    </defs>
    <g id="pictogram/finance-and-data/shareholder" stroke="none" stroke-width="1" fill="none" fill-rule="evenodd">
        <g id="Man-Copy-2">
            <mask id="mask-2" fill="white">
                <use xlink:href="#path-1"></use>
            </mask>
            <use id="Mask" fill="#5495CF" xlink:href="#path-1"></use>
            <g id="Group-4" mask="url(#mask-2)" fill="#91BFE3" fill-rule="nonzero">
                <g transform="translate(51.000000, 2.560847)" id="$">
                    <path d="M21.82,37.48 L21.82,34.56 C23.7666667,34.4 25.4933333,33.94 27,33.18 C28.5066667,32.42 29.68,31.4 30.52,30.12 C31.36,28.84 31.78,27.3733333 31.78,25.72 C31.78,23.9333333 31.3866667,22.48 30.6,21.36 C29.8133333,20.24 28.7066667,19.36 27.28,18.72 C25.8533333,18.08 24.0333333,17.52 21.82,17.04 L21.82,17.04 L21.82,10 C22.86,10.24 23.7,10.7 24.34,11.38 C24.98,12.06 25.3666667,12.8 25.5,13.6 L25.5,13.6 L31.06,13.6 C30.8733333,11.4666667 29.9733333,9.62 28.36,8.06 C26.7466667,6.5 24.5666667,5.57333333 21.82,5.28 L21.82,5.28 L21.82,2.68 L18.22,2.68 L18.22,5.32 C15.4733333,5.58666667 13.28,6.45333333 11.64,7.92 C10,9.38666667 9.18,11.3066667 9.18,13.68 C9.18,15.28 9.54,16.6 10.26,17.64 C10.98,18.68 11.9933333,19.5133333 13.3,20.14 C14.6066667,20.7666667 16.2466667,21.32 18.22,21.8 L18.22,21.8 L18.22,29.76 C17.3933333,29.5733333 16.6733333,29.2666667 16.06,28.84 C15.4466667,28.4133333 14.96,27.86 14.6,27.18 C14.24,26.5 14.0066667,25.72 13.9,24.84 L13.9,24.84 L8.18,24.84 L8.18,24.84 L8.18,24.92 C8.31333333,26.7066667 8.79333333,28.2866667 9.62,29.66 C10.4466667,31.0333333 11.5933333,32.1333333 13.06,32.96 C14.5266667,33.7866667 16.2466667,34.3066667 18.22,34.52 L18.22,34.52 L18.22,37.48 L21.82,37.48 Z M18.22,16.24 C17.02,15.8933333 16.1466667,15.4933333 15.6,15.04 C15.0533333,14.5866667 14.78,13.9866667 14.78,13.24 C14.78,12.4133333 15.0866667,11.7066667 15.7,11.12 C16.3133333,10.5333333 17.1533333,10.1466667 18.22,9.96 L18.22,9.96 L18.22,16.24 Z M21.82,29.88 L21.82,22.56 C22.86,22.8 23.6866667,23.0666667 24.3,23.36 C24.9133333,23.6533333 25.3733333,24.0066667 25.68,24.42 C25.9866667,24.8333333 26.14,25.36 26.14,26 C26.14,27.0666667 25.7466667,27.9333333 24.96,28.6 C24.1733333,29.2666667 23.1266667,29.6933333 21.82,29.88 L21.82,29.88 Z"></path>
                </g>
            </g>
            <g mask="url(#mask-2)">
                <g transform="translate(2.893130, 35.365909)">
                    <g id="head" stroke-width="1" fill="none" transform="translate(9.729976, 0.000000)">
                        <mask id="mask-4" fill="white">
                            <use xlink:href="#path-3"></use>
                        </mask>
                        <use id="Mask" fill="#DAD2BD" xlink:href="#path-3"></use>
                        <path d="M51.5070439,21.7419179 C47.4461511,15.0466655 35.0726378,9.67240492 35.0726378,9.67240492 C33.7503605,14.5753342 31.8610052,15.3301866 26.7609218,17.404225 C20.4742256,19.9613329 13.7262699,16.2728493 4.84838042,25.1369481 C4.0316797,25.9513941 0.125444506,21.4592997 0.503496442,21.3644916 L0.503496442,-4.51412606 L22.4874879,-13.5469628 L42.1062443,-7.55303926 L58.3383402,14.8424219 L51.5070439,21.7419179 Z" id="Stroke-35" fill="#23366F" mask="url(#mask-4)"></path>
                    </g>
                    <path d="M0,108.6093 L0.180632826,71.292562 C0.270949238,62.5556219 7.41780558,55.5445084 16.1465676,55.6349567 L33.6606534,55.8176805 L52.3616246,56.013195 C61.0876497,56.1036433 68.0894524,63.2636767 67.999136,72.0015305 L67.8258015,135.634091" id="Fill-24" fill="#23366F"></path>
                    <path d="M37.4665766,59.1969241 L44,68.6340913 L44,68.6340913 L26,68.6340913 L32.5334234,59.1969241 C33.4765214,57.8346715 35.3453773,57.4948795 36.7076299,58.4379775 C37.004178,58.64328 37.261274,58.9003761 37.4665766,59.1969241 Z" id="Triangle" fill="#5495CF" transform="translate(35.000000, 62.134091) rotate(180.000000) translate(-35.000000, -62.134091) "></path>
                    <path d="M35.9868746,70.6649915 L44,119.634091 L44,119.634091 L26,119.634091 L34.0131254,70.6649915 C34.1023131,70.1199558 34.6164528,69.7504179 35.1614886,69.8396055 C35.5853081,69.9089578 35.9175223,70.241172 35.9868746,70.6649915 Z" id="Triangle" fill="#5495CF" transform="translate(35.000000, 92.134091) scale(1, -1) rotate(180.000000) translate(-35.000000, -92.134091) "></path>
                </g>
            </g>
            <g id="woman" mask="url(#mask-2)">
                <g transform="translate(62.000000, 91.000000)">
                    <path d="M0,52.7137423 L4.6810322,14.6511444 C4.76486878,6.47626108 11.3989671,-0.0838199501 19.5014758,0.000809711332 L35.7589969,0.171778724 L53.1182491,0.354715568 C61.2182173,0.43934523 67.717669,7.138766 67.6338324,15.3145042 L84,78 L12.4904547,73.565074" id="Fill-24" fill="#2167AE"></path>
                    <path d="M36.5,9.98046584 C42.8512746,9.98046584 48,5.72717096 48,0.480465838 C41.4850069,-0.0312529124 29.1803768,-0.277346662 25,0.480465838 C25,5.72717096 30.1487254,9.98046584 36.5,9.98046584 Z" id="Oval" fill="#DAD2BD"></path>
                </g>
            </g>
            <g id="Group" mask="url(#mask-2)">
                <g transform="translate(74.688656, 38.337762)">
                    <mask id="mask-6" fill="white">
                        <use xlink:href="#path-5"></use>
                    </mask>
                    <use id="Mask" stroke="none" fill="#DAD2BD" fill-rule="evenodd" xlink:href="#path-5"></use>
                    <path d="M48.3366154,29.7824363 C42.6411071,19.5143751 25.2869313,11.2722308 25.2869313,11.2722308 C23.4324028,18.7915257 20.7825326,19.9491925 13.6295323,23.1300066 C4.81227653,27.0516721 1.68186304,22.1622381 -2.95533208,33.1622381 C-3.5859343,34.6581045 -9.57937317,27.5220745 -9.04914544,27.3766738 L-9.04914544,-12.3116329 L7.63592943,-24.3377619 L35.1517482,-15.1452819 L57.9176872,19.2011404 L48.3366154,29.7824363 Z" id="Stroke-35" stroke="none" fill="#23366F" fill-rule="evenodd" mask="url(#mask-6)" transform="translate(24.417687, 4.515243) scale(-1, 1) translate(-24.417687, -4.515243) "></path>
                </g>
            </g>
        </g>
    </g>
</svg>