<?xml version="1.0" encoding="UTF-8"?>
<svg width="140px" height="140px" viewBox="0 0 140 140" version="1.1" xmlns="http://www.w3.org/2000/svg" xmlns:xlink="http://www.w3.org/1999/xlink">
    <title>pictogram/more/stop</title>
    <defs>
        <filter id="filter-1">
            <feColorMatrix in="SourceGraphic" type="matrix" values="0 0 0 0 0.129412 0 0 0 0 0.403922 0 0 0 0 0.682353 0 0 0 1.000000 0"></feColorMatrix>
        </filter>
        <path d="M140,70 C140,108.65995 108.65995,140 70,140 C31.34005,140 0,108.65995 0,70 C0,31.34005 31.34005,0 70,0 C108.65995,0 140,31.34005 140,70" id="path-2"></path>
    </defs>
    <g id="pictogram/more/stop" stroke="none" stroke-width="1" fill="none" fill-rule="evenodd">
        <g>
            <g id="Global-Copy-5">
                <path d="M140,70 C140,108.65995 108.65995,140 70,140 C31.34005,140 0,108.65995 0,70 C0,31.34005 31.34005,0 70,0 C108.65995,0 140,31.34005 140,70" id="Mask" fill="#DAD2BD"></path>
                <g filter="url(#filter-1)" id="globe">
                    <g transform="translate(20.000000, 20.000000)"></g>
                </g>
                <mask id="mask-3" fill="white">
                    <use xlink:href="#path-2"></use>
                </mask>
                <use id="Mask" fill="#91BFE3" xlink:href="#path-2"></use>
                <circle id="Oval" stroke="#2167AE" stroke-width="6.664" mask="url(#mask-3)" cx="70" cy="70" r="45.668"></circle>
            </g>
            <g id="Zurich-Headquarter-(QuaiZurich)" transform="translate(40.000000, 33.000000)">
                <path d="M26.4986877,68.7320755 L19.1299213,69 C12.8307087,66.9169811 9.41863517,62.4037736 8.89370079,55.4603774 C8.3687664,48.5169811 8.3687664,36.1924528 8.89370079,18.4867925 C9.76859143,16.2301887 10.9934383,15.1018868 12.5682415,15.1018868 C14.9304462,15.1018868 16,17.1773585 16,19 C16,20.2150943 16,25.5484277 16,35 C16.8617673,36.1421384 17.6426072,36.1056604 18.3425197,34.890566 C18.3425197,33.5018868 18.4300087,25.0830189 18.6049869,9.63396226 L18.6049869,6.76981132 C19.1299213,4.86037736 20.17979,3.90566038 21.7545932,3.90566038 C24.1167979,3.90566038 24.9041995,5.20754717 25.1666667,6.76981132 C25.3416448,7.81132075 25.4291339,17.0113208 25.4291339,34.3698113 L25.4291339,34.890566 C26.1290464,35.9320755 26.8289589,35.9320755 27.5288714,34.890566 C27.5288714,33.6754717 27.5288714,22.9132075 27.5288714,2.60377358 C28.2287839,0.867924528 29.3661417,0 30.9409449,0 C33.3031496,0 34.3530184,1.82264151 34.6154856,2.60377358 C34.7904637,3.1245283 34.8779528,11.6301887 34.8779528,28.1207547 L34.8779528,34.890566 C35.5778653,35.9320755 36.2777778,35.9320755 36.9776903,34.890566 C36.9776903,33.6754717 36.9776903,25.4301887 36.9776903,10.154717 C37.3276465,8.24528302 38.4650044,7.29056604 40.3897638,7.29056604 C42.3145232,7.29056604 43.451881,8.24528302 43.8018373,10.154717 L44.0643045,41.9207547 C44.4142607,42.9622642 45.2016623,42.9622642 46.4265092,41.9207547 C47.3013998,40.7056604 48.6137358,39.0566038 50.3635171,36.9735849 C51.9383202,35.5849057 53.8630796,35.3245283 56.1377953,36.1924528 C56.6627297,36.5396226 57.4501312,37.1471698 58.5,38.0150943 L45.3766404,63.0113208 C43.2769029,66.309434 40.5647419,68.2188679 37.2401575,68.7396226 C36.3652668,68.7396226 32.7847769,68.7371069 26.4986877,68.7320755 Z" id="Path-21" fill="#23366F"></path>
                <line x1="0.5" y1="4.5" x2="59.5" y2="67.5" id="Line" stroke="#2167AE" stroke-width="5" stroke-linecap="square"></line>
            </g>
        </g>
    </g>
</svg>