<?xml version="1.0" encoding="UTF-8"?>
<svg width="140px" height="140px" viewBox="0 0 140 140" version="1.1" xmlns="http://www.w3.org/2000/svg" xmlns:xlink="http://www.w3.org/1999/xlink">
    <title>pictogram/products-and-services/supply-chain</title>
    <g id="pictogram/products-and-services/supply-chain" stroke="none" stroke-width="1" fill="none" fill-rule="evenodd">
        <g>
            <path d="M140,70 C140,108.65995 108.65995,140 70,140 C31.34005,140 0,108.65995 0,70 C0,31.34005 31.34005,0 70,0 C108.65995,0 140,31.34005 140,70" id="Mask" fill="#DAD2BD"></path>
            <g id="products-copy" transform="translate(70.376065, 70.000000) scale(-1, -1) translate(-70.376065, -70.000000) translate(17.752129, 17.381691)" stroke="#23366F" stroke-linecap="round" stroke-linejoin="round" stroke-width="7">
                <g id="supply-chain" transform="translate(52.876065, 79.068953) scale(-1, -1) translate(-52.876065, -79.068953) translate(0.752129, 52.901288)">
                    <path d="M4.32924048,30.5124586 C12.6018992,12.5049788 30.7965125,0 51.9115721,0 C80.8164279,0 104.247871,23.4314429 104.247871,52.335329" id="Stroke-1"></path>
                    <polyline id="Stroke-3" points="16 27.8310306 3.85704831 31.6183086 0 19.6183086"></polyline>
                </g>
                <g id="supply-chain">
                    <path d="M5.32924048,30.5124586 C13.6018992,12.5049788 31.7965125,0 52.9115721,0 C81.8164279,0 105.247871,23.4314429 105.247871,52.335329" id="Stroke-1"></path>
                    <polyline id="Stroke-3" points="16 29.8310306 3.85704831 33.6183086 0 21.6183086"></polyline>
                </g>
            </g>
            <g id="Paket" transform="translate(70.667891, 64.000000)" stroke="#23366F" stroke-linecap="round" stroke-linejoin="round">
                <polygon id="Stroke-9" stroke-width="3.4375" fill="#91BFE3" points="15.7405144 30.5927189 0.0137598239 23.989448 0 6.20666306 15.7195125 0 31.4390251 6.18254023 31.4527849 23.9653252"></polygon>
                <polyline id="Stroke-11" stroke-width="2.4375" points="1.13686838e-13 7.25994495 14.2391211 12.3543671 29.9586337 6.18246928"></polyline>
                <line x1="14.3117408" y1="29.5275231" x2="14.2394108" y2="12.8706763" id="Stroke-13" stroke-width="2.4375"></line>
                <polyline id="Stroke-20" stroke-width="2.4375" points="22.9969215 14.8254229 22.9969215 9.26841818 7.52156223 3.41145165"></polyline>
            </g>
            <g id="Paket" transform="translate(38.667891, 64.000000)" stroke="#23366F" stroke-linecap="round" stroke-linejoin="round">
                <polygon id="Stroke-9" stroke-width="3.4375" fill="#5495CF" points="15.7405144 30.5927189 0.0137598239 23.989448 0 6.20666306 15.7195125 0 31.4390251 6.18254023 31.4527849 23.9653252"></polygon>
                <polyline id="Stroke-11" stroke-width="2.4375" points="1.13686838e-13 7.25994495 14.2391211 12.3543671 29.9586337 6.18246928"></polyline>
                <line x1="14.3117408" y1="29.5275231" x2="14.2394108" y2="12.8706763" id="Stroke-13" stroke-width="2.4375"></line>
                <polyline id="Stroke-20" stroke-width="2.4375" points="22.9969215 14.8254229 22.9969215 9.26841818 7.52156223 3.41145165"></polyline>
            </g>
            <g id="Paket" transform="translate(54.667891, 40.000000)" stroke="#23366F" stroke-linecap="round" stroke-linejoin="round">
                <polygon id="Stroke-9" stroke-width="3.4375" fill="#1FB1E6" points="15.7405144 30.5927189 0.0137598239 23.989448 0 6.20666306 15.7195125 0 31.4390251 6.18254023 31.4527849 23.9653252"></polygon>
                <polyline id="Stroke-11" stroke-width="2.4375" points="1.13686838e-13 7.25994495 14.2391211 12.3543671 29.9586337 6.18246928"></polyline>
                <line x1="14.3117408" y1="29.5275231" x2="14.2394108" y2="12.8706763" id="Stroke-13" stroke-width="2.4375"></line>
                <polyline id="Stroke-20" stroke-width="2.4375" points="22.9969215 14.8254229 22.9969215 9.26841818 7.52156223 3.41145165"></polyline>
            </g>
        </g>
    </g>
</svg>