<?xml version="1.0" encoding="UTF-8"?>
<svg width="140px" height="140px" viewBox="0 0 140 140" version="1.1" xmlns="http://www.w3.org/2000/svg" xmlns:xlink="http://www.w3.org/1999/xlink">
    <title>pictogram/more/taking-risk</title>
    <g id="pictogram/more/taking-risk" stroke="none" stroke-width="1" fill="none" fill-rule="evenodd">
        <g>
            <path d="M140,70 C140,108.65995 108.65995,140 70,140 C31.34005,140 0,108.65995 0,70 C0,31.34005 31.34005,0 70,0 C108.65995,0 140,31.34005 140,70" id="Mask" fill="#91BFE3"></path>
            <path d="M103.268156,98.2961609 C102.379891,99.2275439 100.744356,99.2416557 98.7845334,98.2961609 C90.5645597,94.6129644 71.4739174,85.1015683 71.2906246,85.0027853 C70.7915044,84.7614724 70.2106075,84.7614724 69.7114873,85.0027853 C69.5281946,85.1015683 50.4375522,94.6129644 42.2175785,98.2961609 C40.2577563,99.1710964 38.6222212,99.1569845 37.7339564,98.2961609 C36.7921138,96.9442443 36.7540453,95.1590936 37.6352603,93.7662526 L66.4122182,34.6939914 C67.3794399,32.4375044 69.9906562,31.3932265 72.2451567,32.3613004 C73.2913352,32.8100576 74.1260221,33.64548 74.5757942,34.6939914 L103.366852,93.7803645 C104.245247,95.1675607 104.207178,96.9484779 103.268156,98.2961609 L103.268156,98.2961609 Z" id="Fill-4" fill="#DAD2BD"></path>
            <path d="M78.3284667,33.7007527 C76.9962627,30.9057106 74.094834,28.0903448 71,28 C67.9009323,28.1016379 64.1044225,31.1773381 62.775041,33.9794384 L34,93 C32.4532886,95.6976392 33.72927,98.8209997 35.7092299,101.219372 C36.8791421,102.396677 38.4808916,103.040384 40.1405016,102.998035 C41.5418559,102.974037 42.9234531,102.652184 44.1907403,102.052238 C51.5150396,98.7631226 67.3349616,90.9285347 71.0041674,89.093406 C74.7015979,90.9285347 90.5356322,98.7631226 97.8175945,102.052238 C101.176329,103.56269 104.337491,103.238013 106.284993,101.219372 C108.272009,98.8252346 108.5599,95.4457746 107.004721,92.749547 L78.3284667,33.7007527 Z" id="Path" fill="#23366F"></path>
            <path d="M98.7845334,98.2961609 C90.5645597,94.6129644 71.4739174,85.1015683 71.2906246,85.0027853 C70.7915044,84.7614724 70.2106075,84.7614724 69.7114873,85.0027853 C69.5281946,85.1015683 50.4375522,94.6129644 42.2175785,98.2961609 C40.2577563,99.1710964 38.6222212,99.1569845 37.7339564,98.2961609 C36.7921138,96.9442443 36.7540453,95.1590936 37.6352603,93.7662526 L66.4122182,34.6939914 C67.3794399,32.4375044 69.9906562,31.3932265 72.2451567,32.3613004 C73.2913352,32.8100576 74.1260221,33.64548 74.5757942,34.6939914 L103.366852,93.7803645 C104.245247,95.1675607 104.207178,96.9484779 103.268156,98.2961609 C102.379891,99.2275439 100.744356,99.2416557 98.7845334,98.2961609 Z" id="Path" fill="#DAD2BD"></path>
        </g>
    </g>
</svg>