<?xml version="1.0" encoding="UTF-8"?>
<svg width="140px" height="140px" viewBox="0 0 140 140" version="1.1" xmlns="http://www.w3.org/2000/svg" xmlns:xlink="http://www.w3.org/1999/xlink">
    <title>pictogram/transportation-and-travel/travel-warning</title>
    <defs>
        <path d="M140,70 C140,108.65995 108.65995,140 70,140 C31.34005,140 0,108.65995 0,70 C0,31.34005 31.34005,0 70,0 C108.65995,0 140,31.34005 140,70" id="path-1"></path>
    </defs>
    <g id="pictogram/transportation-and-travel/travel-warning" stroke="none" stroke-width="1" fill="none" fill-rule="evenodd">
        <g>
            <g id="plane">
                <mask id="mask-2" fill="white">
                    <use xlink:href="#path-1"></use>
                </mask>
                <use id="Mask" fill="#DAD2BD" xlink:href="#path-1"></use>
                <g id="Group-12-Copy" mask="url(#mask-2)" fill="#23366F">
                    <g transform="translate(20.000000, 18.000000)">
                        <path d="M62,83 L38,83 L38,12.45 C38,5.573865 43.3728,0 50,0 C56.6272,0 62,5.573865 62,12.45 L62,83 Z" id="Fill-4"></path>
                        <polygon id="Fill-6" points="100 61 62 61 62 33 100 49"></polygon>
                        <polygon id="Fill-8" points="0 61 38 61 38 33 0 49"></polygon>
                        <polygon id="Fill-10" points="70 98.5 30 98.5 30 90.5 38 82.5 62 82.5 70 90.5"></polygon>
                    </g>
                </g>
            </g>
            <g id="warning" transform="translate(35.500000, 37.000000)">
                <path d="M34.5,5.61993899 L63.2100234,48.8930177 L5.78997664,48.8930177 L34.5,5.61993899 Z" id="Triangle-Copy" stroke="#5495CF" stroke-width="6.21396464" fill="#FFFFFF"></path>
                <circle id="Oval" fill="#1FB1E6" cx="34.5" cy="38.5" r="2.5"></circle>
                <rect id="Rectangle" fill="#1FB1E6" x="32" y="22" width="5" height="13" rx="2.5"></rect>
            </g>
        </g>
    </g>
</svg>