<?xml version="1.0" encoding="UTF-8"?>
<svg width="140px" height="140px" viewBox="0 0 140 140" version="1.1" xmlns="http://www.w3.org/2000/svg" xmlns:xlink="http://www.w3.org/1999/xlink">
    <title>pictogram/products-and-services/we-protect-our-products</title>
    <defs>
        <path d="M140,70 C140,108.65995 108.65995,140 70,140 C31.34005,140 0,108.65995 0,70 C0,31.34005 31.34005,0 70,0 C108.65995,0 140,31.34005 140,70" id="path-1"></path>
    </defs>
    <g id="pictogram/products-and-services/we-protect-our-products" stroke="none" stroke-width="1" fill="none" fill-rule="evenodd">
        <g>
            <g id="Fill-2-Copy-and-Fill-3-Copy-and-Fill-4-Copy-and-Fill-5-Copy-2-Mask">
                <mask id="mask-2" fill="white">
                    <use xlink:href="#path-1"></use>
                </mask>
                <use id="Mask" fill="#5495CF" xlink:href="#path-1"></use>
                <polygon id="Fill-2-Copy" fill="#DAD2BD" mask="url(#mask-2)" points="20.6397899 31.6666667 20.6397899 31.6666667 39.6086957 31.6666667 39.6086957 13.4423623 35.1989543 17.5596884 27.2894058 10 17 19.9221087 24.9095438 27.5493406"></polygon>
                <polygon id="Fill-5-Copy-2" fill="#DAD2BD" mask="url(#mask-2)" points="112.629145 27.4947971 112.629145 27.4947971 120.608696 19.8240435 110.31929 10 102.409732 17.6034928 98 13.4989783 98 31.6666667 116.968884 31.6666667"></polygon>
                <polygon id="Fill-3-Copy" fill="#DAD2BD" mask="url(#mask-2)" points="24.9588242 111.296359 24.9588242 111.296359 17 119.325611 27.3535109 129.608696 35.312337 121.649871 39.6086957 126.087092 39.6086957 107 20.5920357 107"></polygon>
                <polygon id="Fill-4-Copy" fill="#DAD2BD" mask="url(#mask-2)" points="117.087109 108 117.087109 108 98 108 98 126.968906 102.296312 122.629156 110.325601 130.608696 120.608696 120.31929 112.64987 112.409741"></polygon>
            </g>
            <g id="Paket" transform="translate(45.347954, 19.000000)" stroke="#5495CF" stroke-linecap="round" stroke-linejoin="round">
                <polygon id="Stroke-9" stroke-width="5.14682623" fill="#23366F" points="24.9591281 48.7136229 0.0218184235 38.1990542 0 9.88303934 24.9258263 0 49.8516527 9.8446279 49.8734711 38.1606428"></polygon>
                <polyline id="Stroke-11" stroke-width="2.8271299" points="0 11.1011379 22.601964 19.7174188 47.5537748 9.27878532"></polyline>
                <line x1="22.6422771" y1="48.0518262" x2="22.5390256" y2="20.877267" id="Stroke-13" stroke-width="2.8271299"></line>
                <polyline id="Stroke-20" stroke-width="2.8271299" points="35.9552931 24.3568115 35.9552931 15.3218748 11.5984817 5.79924083"></polyline>
            </g>
            <g id="Paket" transform="translate(69.221426, 57.000000)" stroke="#5495CF" stroke-linecap="round" stroke-linejoin="round">
                <polygon id="Stroke-9" stroke-width="5.14682623" fill="#23366F" points="24.9591281 48.7136229 0.0218184235 38.1990542 0 9.88303934 24.9258263 0 49.8516527 9.8446279 49.8734711 38.1606428"></polygon>
                <polyline id="Stroke-11" stroke-width="2.8271299" points="0 11.1011379 22.601964 19.7174188 47.5537748 9.27878532"></polyline>
                <line x1="22.6422771" y1="48.0518262" x2="22.5390256" y2="20.877267" id="Stroke-13" stroke-width="2.8271299"></line>
                <polyline id="Stroke-20" stroke-width="2.8271299" points="35.9552931 24.3568115 35.9552931 15.3218748 11.5984817 5.79924083"></polyline>
            </g>
            <g id="Paket" transform="translate(20.474483, 57.000000)" stroke="#5495CF" stroke-linecap="round" stroke-linejoin="round">
                <polygon id="Stroke-9" stroke-width="5.14682623" fill="#23366F" points="24.9591281 48.7136229 0.0218184235 38.1990542 0 9.88303934 24.9258263 0 49.8516527 9.8446279 49.8734711 38.1606428"></polygon>
                <polyline id="Stroke-11" stroke-width="2.8271299" points="0 11.1011379 22.601964 19.7174188 47.5537748 9.27878532"></polyline>
                <line x1="22.6422771" y1="48.0518262" x2="22.5390256" y2="20.877267" id="Stroke-13" stroke-width="2.8271299"></line>
                <polyline id="Stroke-20" stroke-width="2.8271299" points="35.9552931 24.3568115 35.9552931 15.3218748 11.5984817 5.79924083"></polyline>
            </g>
        </g>
    </g>
</svg>