<?xml version="1.0" encoding="UTF-8"?>
<svg width="140px" height="140px" viewBox="0 0 140 140" version="1.1" xmlns="http://www.w3.org/2000/svg" xmlns:xlink="http://www.w3.org/1999/xlink">
    <title>pictogram/products-and-services/webcast</title>
    <g id="pictogram/products-and-services/webcast" stroke="none" stroke-width="1" fill="none" fill-rule="evenodd">
        <g>
            <path d="M140,70 C140,108.65995 108.65995,140 70,140 C31.34005,140 0,108.65995 0,70 C0,31.34005 31.34005,0 70,0 C108.65995,0 140,31.34005 140,70" id="Mask" fill="#DAD2BD"></path>
            <g id="Laptop" transform="translate(19.750752, 38.000000)">
                <path d="M85.0021292,-0.409448045 C87.1354146,-0.40529998 89.0642048,0.340484528 90.462156,1.53786685 C91.8847388,2.75634684 92.7588578,4.44052605 92.7637795,6.29803784 L92.7637795,6.29803784 L92.7637795,49.3370208 C92.7637795,49.8525008 92.5261271,50.3232287 92.1301067,50.6624307 C91.7588354,50.9804344 91.2469497,51.1811024 90.6793882,51.1811024 L90.6793882,51.1811024 L11.3206118,51.1811024 C10.7530503,51.1811024 10.2411646,50.9804344 9.86989333,50.6624307 C9.47387294,50.3232287 9.23622047,49.8525008 9.23622047,49.3370208 L9.23622047,49.3370208 L9.23622191,6.29695263 C9.24114222,4.44052605 10.1152612,2.75634684 11.537844,1.53786685 C12.9357952,0.340484528 14.8645854,-0.40529998 16.9986669,-0.409448819 L16.9986669,-0.409448819 Z" id="Shape" stroke="#23366F" stroke-width="0.818897638" fill="#23366F"></path>
                <polygon id="Triangle" stroke="#1FB1E6" stroke-width="3.27559055" fill="#1FB1E6" stroke-linejoin="round" transform="translate(52.410323, 24.742407) rotate(90.000000) translate(-52.410323, -24.742407) " points="52.4103234 18.8346457 61.6001744 30.6501684 43.2204724 30.6501684"></polygon>
                <path d="M93.9437958,63.5511811 L8.41840891,63.5511811 C3.77307724,63.5469215 0.00970814394,61.8956654 0,59.8574301 L0,57.7743713 C0,57.3466978 0.790157243,57 1.7648656,57 L100.597339,57 C101.572047,57 102.362205,57.3466978 102.362205,57.7743713 L102.362205,59.8574301 C102.352497,61.8956654 98.5891275,63.5469215 93.9437958,63.5511811 L93.9437958,63.5511811 Z" id="Shape" stroke="#23366F" stroke-width="1.63779528" fill="#23366F"></path>
                <path d="M57.8029272,60.0944882 L41.8506161,60.0944882 C40.8285491,60.0944882 40,59.1779058 40,58.0472441 C40,56.9165824 40.8285491,56 41.8506161,56 L57.8029272,56 C58.8249942,56 59.6535433,56.9165824 59.6535433,58.0472441 C59.6535433,59.1779058 58.8249942,60.0944882 57.8029272,60.0944882 Z" id="Path" fill="#5495CF" fill-rule="nonzero"></path>
            </g>
        </g>
    </g>
</svg>