<?xml version="1.0" encoding="UTF-8"?>
<svg width="140px" height="140px" viewBox="0 0 140 140" version="1.1" xmlns="http://www.w3.org/2000/svg" xmlns:xlink="http://www.w3.org/1999/xlink">
    <title>pictogram/more/zic-location</title>
    <defs>
        <polygon id="path-1" points="0 0 140 0 140 139.99993 0 139.99993"></polygon>
    </defs>
    <g id="pictogram/more/zic-location" stroke="none" stroke-width="1" fill="none" fill-rule="evenodd">
        <g>
            <g id="Group-3">
                <mask id="mask-2" fill="white">
                    <use xlink:href="#path-1"></use>
                </mask>
                <g id="Clip-2"></g>
                <path d="M140,69.99993 C140,108.66023 108.65995,139.99993 70,139.99993 C31.34005,139.99993 0,108.66023 0,69.99993 C0,31.33998 31.34005,-7e-05 70,-7e-05 C108.65995,-7e-05 140,31.33998 140,69.99993" id="Fill-1" fill="#5495CF" mask="url(#mask-2)"></path>
            </g>
            <g id="Group-8" transform="translate(34.999877, 27.999878)">
                <path d="M59.7487625,10.2514125 C46.0805625,-3.4171375 23.9196125,-3.4171375 10.2514125,10.2514125 C-3.4171375,23.9196125 -3.4171375,46.0805625 10.2514125,59.7487625 L35.0002625,84.4976125 L59.7487625,59.7487625 C73.4173125,46.0805625 73.4173125,23.9196125 59.7487625,10.2514125" id="Fill-4" fill="#23366F"></path>
                <path d="M47.3745475,47.3744775 C40.5404475,54.2085775 29.4597975,54.2085775 22.6256975,47.3744775 C15.7915975,40.5403775 15.7915975,29.4597275 22.6256975,22.6259775 C29.4597975,15.7915275 40.5404475,15.7915275 47.3745475,22.6259775 C54.2086475,29.4597275 54.2086475,40.5403775 47.3745475,47.3744775" id="Fill-6" fill="#1FB1E6"></path>
            </g>
            <path d="M102.484,110 L102.484,106.78 L93.832,106.78 L98.116,103.252 C99.068,102.468 99.8286667,101.786667 100.398,101.208 C100.967333,100.629333 101.452667,99.9106667 101.854,99.052 C102.255333,98.1933333 102.456,97.204 102.456,96.084 C102.456,94.8706667 102.162,93.788 101.574,92.836 C100.986,91.884 100.150667,91.1466667 99.068,90.624 C97.9853333,90.1013333 96.7346667,89.84 95.316,89.84 C93.6546667,89.84 92.278,90.1806667 91.186,90.862 C90.094,91.5433333 89.2913333,92.43 88.778,93.522 C88.2646667,94.614 88.008,95.7853333 88.008,97.036 L88.008,97.036 L91.788,97.036 C91.788,95.9346667 92.0726667,95.0013333 92.642,94.236 C93.2113333,93.4706667 94.1213333,93.088 95.372,93.088 C96.3986667,93.088 97.2153333,93.3726667 97.822,93.942 C98.4286667,94.5113333 98.732,95.2626667 98.732,96.196 C98.732,96.7933333 98.606,97.3346667 98.354,97.82 C98.102,98.3053333 97.7846667,98.7393333 97.402,99.122 C97.0193333,99.5046667 96.5106667,99.9666667 95.876,100.508 L95.876,100.508 L88.26,106.78 L88.26,110 L102.484,110 Z M113.04,110.448 C114.402667,110.448 115.648667,110.158667 116.778,109.58 C117.907333,109.001333 118.798667,108.189333 119.452,107.144 C120.105333,106.098667 120.432,104.885333 120.432,103.504 C120.432,102.178667 120.152,101.026 119.592,100.046 C119.032,99.066 118.257333,98.3146667 117.268,97.792 C116.278667,97.2693333 115.168,97.008 113.936,97.008 C112.834667,97.008 111.85,97.2226667 110.982,97.652 C110.114,98.0813333 109.4,98.688 108.84,99.472 C108.952,97.1386667 109.376667,95.4633333 110.114,94.446 C110.851333,93.4286667 111.845333,92.92 113.096,92.92 C113.954667,92.92 114.65,93.1673333 115.182,93.662 C115.714,94.1566667 116.073333,94.8146667 116.26,95.636 L116.26,95.636 L119.984,95.636 C119.629333,93.8066667 118.85,92.3833333 117.646,91.366 C116.442,90.3486667 114.925333,89.84 113.096,89.84 C111.453333,89.84 110.03,90.2506667 108.826,91.072 C107.622,91.8933333 106.698,93.102 106.054,94.698 C105.41,96.294 105.088,98.2213333 105.088,100.48 C105.088,102.776 105.438,104.670667 106.138,106.164 C106.838,107.657333 107.785333,108.744667 108.98,109.426 C110.174667,110.107333 111.528,110.448 113.04,110.448 Z M113.04,107.368 C112.312,107.368 111.672667,107.2 111.122,106.864 C110.571333,106.528 110.146667,106.066 109.848,105.478 C109.549333,104.89 109.4,104.250667 109.4,103.56 C109.4,102.832 109.549333,102.183333 109.848,101.614 C110.146667,101.044667 110.576,100.601333 111.136,100.284 C111.696,99.9666667 112.34,99.808 113.068,99.808 C113.796,99.808 114.435333,99.9666667 114.986,100.284 C115.536667,100.601333 115.961333,101.044667 116.26,101.614 C116.558667,102.183333 116.708,102.841333 116.708,103.588 C116.708,104.297333 116.558667,104.941333 116.26,105.52 C115.961333,106.098667 115.532,106.551333 114.972,106.878 C114.412,107.204667 113.768,107.368 113.04,107.368 Z" id="26" fill="#91BFE3" fill-rule="nonzero"></path>
        </g>
    </g>
</svg>