<?xml version="1.0" encoding="UTF-8"?>
<svg width="140px" height="140px" viewBox="0 0 140 140" version="1.1" xmlns="http://www.w3.org/2000/svg" xmlns:xlink="http://www.w3.org/1999/xlink">
    <title>pictogram/more/zic-speaker</title>
    <defs>
        <polygon id="path-1" points="0 0 140 0 140 139.99993 0 139.99993"></polygon>
        <polygon id="path-3" points="0 0 8.98941485 0 8.98941485 8.85235646 0 8.85235646"></polygon>
    </defs>
    <g id="pictogram/more/zic-speaker" stroke="none" stroke-width="1" fill="none" fill-rule="evenodd">
        <g>
            <g id="Group-3">
                <mask id="mask-2" fill="white">
                    <use xlink:href="#path-1"></use>
                </mask>
                <g id="Clip-2"></g>
                <path d="M140,69.99993 C140,108.66023 108.65995,139.99993 70,139.99993 C31.34005,139.99993 0,108.66023 0,69.99993 C0,31.33998 31.34005,-7e-05 70,-7e-05 C108.65995,-7e-05 140,31.33998 140,69.99993" id="Fill-1" fill="#91BFE3" mask="url(#mask-2)"></path>
                <g id="Group-30-Copy" mask="url(#mask-2)">
                    <g transform="translate(22.250227, 28.414870)">
                        <g id="Group-21">
                            <path d="M38.4261205,19.1544687 C38.4261205,29.7329622 29.8241928,38.3089374 19.2136867,38.3089374 C8.60192771,38.3089374 0,29.7329622 0,19.1544687 C0,8.57472596 8.60192771,0 19.2136867,0 C29.8241928,0 38.4261205,8.57472596 38.4261205,19.1544687 Z" id="fill" fill="#DAD2BD"></path>
                            <g id="Group-8" transform="translate(36.338602, 36.374252)">
                                <path d="M0,14.9070811 L37.1718554,47.3233929 C37.1718554,47.3233929 42.1287711,49.2597019 45.4204337,46.0741612 C48.9714699,42.6387742 48.0317108,37.3295398 48.0317108,37.3295398 L14.9534458,0" id="Fill-5" fill="#FEFEFE"></path>
                                <path d="M0,14.9070811 L37.1718554,47.3233929 C37.1718554,47.3233929 42.1287711,49.2597019 45.4204337,46.0741612 C48.9714699,42.6387742 48.0317108,37.3295398 48.0317108,37.3295398 L14.9534458,0" id="Stroke-7" fill="#23366F"></path>
                            </g>
                            <path d="M87.9198458,17.1763104 C80.9242795,28.2107734 81.4455325,33.2077 87.5025928,42.473251 C91.4871711,48.5682522 95.4003277,50.0173609 99.3009542,57.8812741 C100.510111,60.3172757 107.718689,71.6840344 100.032713,79.1182119 C93.035894,85.8840504 82.0128578,81.3049949 81.2497735,81.0851302" id="Stroke-9" stroke="#23366F" stroke-width="3.8"></path>
                            <polygon id="Fill-17" fill="#FEFEFE" points="56.3326651 29.86663 29.7124241 56.2241683 13.8492916 40.3002126 40.4707855 13.9426743"></polygon>
                            <polygon id="Stroke-19" fill="#23366F" points="56.3326651 29.86663 29.7124241 56.2241683 13.8492916 40.3002126 40.4707855 13.9426743"></polygon>
                        </g>
                        <g id="Group-28" transform="translate(65.521571, 77.664953)">
                            <mask id="mask-4" fill="white">
                                <use xlink:href="#path-3"></use>
                            </mask>
                            <g id="Clip-27"></g>
                        </g>
                    </g>
                </g>
            </g>
            <path d="M34.764,110 L34.764,90.288 L31.6,90.288 C31.264,91.352 30.6526667,92.22 29.766,92.892 C28.8793333,93.564 27.8573333,93.9373333 26.7,94.012 L26.7,94.012 L26.7,97.232 C27.484,97.2133333 28.254,97.078 29.01,96.826 C29.766,96.574 30.4613333,96.224 31.096,95.776 L31.096,95.776 L31.096,110 L34.764,110 Z M45.544,110.448 C47.0186667,110.448 48.3113333,110.154 49.422,109.566 C50.5326667,108.978 51.3866667,108.161333 51.984,107.116 C52.5813333,106.070667 52.88,104.885333 52.88,103.56 C52.88,102.253333 52.6186667,101.105333 52.096,100.116 C51.5733333,99.1266667 50.836,98.3613333 49.884,97.82 C48.932,97.2786667 47.8306667,97.008 46.58,97.008 C45.7586667,97.008 45.0213333,97.1013333 44.368,97.288 C43.7146667,97.4746667 43.1453333,97.736 42.66,98.072 L42.66,98.072 L43.248,93.508 L52.012,93.508 L52.012,90.288 L40.056,90.288 L38.656,101.6 L42.184,101.6 C42.52,101.152 42.968,100.755333 43.528,100.41 C44.088,100.064667 44.7786667,99.892 45.6,99.892 C46.664,99.892 47.5226667,100.214 48.176,100.858 C48.8293333,101.502 49.156,102.374667 49.156,103.476 C49.156,104.614667 48.8293333,105.510667 48.176,106.164 C47.5226667,106.817333 46.6453333,107.144 45.544,107.144 C44.592,107.144 43.794,106.892 43.15,106.388 C42.506,105.884 42.1186667,105.212 41.988,104.372 L41.988,104.372 L38.096,104.372 C38.1893333,105.436 38.544,106.434667 39.16,107.368 C39.776,108.301333 40.63,109.048 41.722,109.608 C42.814,110.168 44.088,110.448 45.544,110.448 Z M62.38,110.448 C64.0413333,110.448 65.474,110.028 66.678,109.188 C67.882,108.348 68.7966667,107.153333 69.422,105.604 C70.0473333,104.054667 70.36,102.225333 70.36,100.116 C70.36,98.044 70.0473333,96.2333333 69.422,94.684 C68.7966667,93.1346667 67.882,91.94 66.678,91.1 C65.474,90.26 64.032,89.84 62.352,89.84 C60.672,89.84 59.2253333,90.26 58.012,91.1 C56.7986667,91.94 55.8746667,93.1346667 55.24,94.684 C54.6053333,96.2333333 54.288,98.044 54.288,100.116 C54.288,102.225333 54.6053333,104.054667 55.24,105.604 C55.8746667,107.153333 56.7986667,108.348 58.012,109.188 C59.2253333,110.028 60.6813333,110.448 62.38,110.448 Z M62.38,107.144 C61.0173333,107.144 59.9486667,106.523333 59.174,105.282 C58.3993333,104.040667 58.012,102.318667 58.012,100.116 C58.012,97.9506667 58.3946667,96.2473333 59.16,95.006 C59.9253333,93.7646667 60.9893333,93.144 62.352,93.144 C63.696,93.144 64.746,93.7646667 65.502,95.006 C66.258,96.2473333 66.636,97.9506667 66.636,100.116 C66.636,102.318667 66.2626667,104.040667 65.516,105.282 C64.7693333,106.523333 63.724,107.144 62.38,107.144 Z" id="150" fill="#2167AE" fill-rule="nonzero"></path>
        </g>
    </g>
</svg>