<?xml version="1.0" encoding="UTF-8"?>
<svg width="140px" height="140px" viewBox="0 0 140 140" version="1.1" xmlns="http://www.w3.org/2000/svg" xmlns:xlink="http://www.w3.org/1999/xlink">
    <title>pictogram/products-and-services/zurich-logo</title>
    <defs>
        <rect id="path-1" x="0" y="0" width="140" height="140" rx="70"></rect>
    </defs>
    <g id="pictogram/products-and-services/zurich-logo" stroke="none" stroke-width="1" fill="none" fill-rule="evenodd">
        <g id="Icon-Z-Copy">
            <mask id="mask-2" fill="white">
                <use xlink:href="#path-1"></use>
            </mask>
            <use id="Mask" fill="#DDE4E3" xlink:href="#path-1"></use>
            <g id="Group" mask="url(#mask-2)">
                <g transform="translate(26.497436, 26.000000)" id="Logo/z">
                    <path d="M44.4528331,0 C27.5477274,0.00867568568 12.1090981,9.60575338 4.61247804,24.7659155 C-2.88414205,39.9260776 -1.14245993,58.0278744 9.10699843,71.478742 L46.0639001,22.8764894 L38.1387521,22.8764894 C34.4484572,22.8280823 30.7612757,23.1114451 27.1216572,23.7231618 C25.4944378,24.01495 23.9472117,24.6474901 22.5813774,25.5793282 C20.735289,27.0492024 19.1978172,28.8697075 18.0573709,30.9361594 C17.9271837,31.196674 17.7156294,31.5711637 17.4715284,32.0921929 L15.2908921,31.603728 L18.9198614,17.6499155 L65.2176972,17.6499155 L28.4235296,66.8871724 C30.1805455,66.7056154 31.9460428,66.6186518 33.7123861,66.6266579 C35.2095393,66.6266579 37.4715425,66.6266579 40.5146692,66.9034546 L47.024031,67.2779443 C49.399948,67.4244838 51.36903,67.5058946 52.8661832,67.5058946 C55.4808752,67.6043531 58.0947933,67.2911735 60.6123238,66.5778114 C62.3098945,66.0540499 63.9177358,65.2744037 65.3804313,64.2657444 C68.1303667,62.3032843 70.386665,59.7280478 71.9711601,56.7433857 C72.1176208,56.466589 72.3617218,56.0106884 72.6383697,55.4245306 L74.6074517,55.9292776 C74.1385359,57.8391555 73.4845015,59.6987032 72.6546431,61.4814948 C71.1357358,65.2924012 68.6170099,68.6225086 65.3641579,71.1205345 C62.2615158,73.4459422 58.4839813,74.692456 54.6074375,74.6700457 L53.9727747,74.6700457 C49.7050577,74.5527567 45.4542149,74.0844222 41.2632458,73.2697798 C36.3202203,72.370048 31.3144607,71.8583147 26.2917136,71.7392566 C23.8609418,71.7315354 21.4335873,71.9221253 19.0337752,72.3091323 C16.4822555,72.6383049 14.0025104,73.3864797 11.6944697,74.5235063 C25.4488917,89.5776146 47.6714888,93.348397 65.6175089,83.6732941 C83.5635289,73.9981912 92.6378955,53.354512 87.6364215,33.5814927 C82.6349476,13.8084734 64.8382598,-0.0310066407 44.4528331,0" id="Path" fill="#2167AE"></path>
                </g>
            </g>
        </g>
    </g>
</svg>